<?xml version="1.0" encoding="UTF-8" standalone="no"?>
<!-- Created with Inkscape (http://www.inkscape.org/) -->

<svg
   width="1000mm"
   height="600mm"
   viewBox="0 0 1000 600"
   version="1.1"
   id="svg8"
   inkscape:version="1.1.1 (eb90963e84, 2021-10-02)"
   sodipodi:docname="reachy.svg"
   xmlns:inkscape="http://www.inkscape.org/namespaces/inkscape"
   xmlns:sodipodi="http://sodipodi.sourceforge.net/DTD/sodipodi-0.dtd"
   xmlns="http://www.w3.org/2000/svg"
   xmlns:svg="http://www.w3.org/2000/svg"
   xmlns:rdf="http://www.w3.org/1999/02/22-rdf-syntax-ns#"
   xmlns:cc="http://creativecommons.org/ns#"
   xmlns:dc="http://purl.org/dc/elements/1.1/">
  <defs
     id="defs2" />
  <sodipodi:namedview
     id="base"
     pagecolor="#ffffff"
     bordercolor="#666666"
     borderopacity="1.0"
     inkscape:pageopacity="0.0"
     inkscape:pageshadow="2"
     inkscape:zoom="0.24748737"
     inkscape:cx="1062.6805"
     inkscape:cy="800.04083"
     inkscape:document-units="mm"
     inkscape:current-layer="layer1"
     showgrid="false"
     inkscape:window-width="1600"
     inkscape:window-height="863"
     inkscape:window-x="1464"
     inkscape:window-y="0"
     inkscape:window-maximized="1"
     inkscape:pagecheckerboard="0" />
  <metadata
     id="metadata5">
    <rdf:RDF>
      <cc:Work
         rdf:about="">
        <dc:format>image/svg+xml</dc:format>
        <dc:type
           rdf:resource="http://purl.org/dc/dcmitype/StillImage" />
      </cc:Work>
    </rdf:RDF>
  </metadata>
  <g
     inkscape:label="Calque 1"
     inkscape:groupmode="layer"
     id="layer1"
     transform="translate(0,303)">
    <rect
       style="fill:none;stroke:#ff0000;stroke-width:0.1"
       id="rect1042"
       width="650"
       height="450"
       x="89.038567"
       y="-234.73289" />
    <path
       id="rect1168"
       style="fill:#000000;fill-opacity:1;stroke:none;stroke-width:0.0452363"
       d="m 264.06117,-163.29277 v 14.95464 82.433725 14.954641 82.433741 14.95462 82.433743 14.95464 h 14.95463 270.04502 14.95515 v -14.95464 -292.16511 z m 14.95463,14.95464 h 80.04524 v 82.433725 H 279.0158 Z m 94.99989,0 h 80.04524 v 82.433725 h -80.04524 z m 94.99989,0 h 80.04524 v 82.433725 H 469.01558 Z M 279.0158,-50.949764 h 80.04524 V 31.483977 H 279.0158 Z m 94.99989,0 h 80.04524 v 82.433741 h -80.04524 z m 94.99989,0 h 80.04524 V 31.483977 H 469.01558 Z M 279.0158,46.438597 h 80.04524 V 128.87234 H 279.0158 Z m 94.99989,0 h 80.04524 v 82.433743 h -80.04524 z m 94.99989,0 h 80.04524 v 82.433743 h -80.04524 z" />
    <g
       id="g8721"
       style="fill:none;stroke:#0000ff;stroke-width:0.377953;stroke-miterlimit:4;stroke-dasharray:none;stroke-opacity:1"
       transform="matrix(0.17839174,0,0,0.17839174,614.0277,111.78311)">
      <path
         id="rect1158"
         style="fill:none;stroke:#0000ff;stroke-width:0.377953;stroke-miterlimit:4;stroke-dasharray:none;stroke-opacity:1"
         d="m 234.91016,68.484375 c -2.41125,0.124936 -5.37197,1.024968 -5.49805,2.125 -0.73071,6.375227 2.10016,13.710027 3.51562,18.925781 0.19001,0.700142 2.00125,-1.074059 2.14649,-0.363281 2.20525,10.791837 -0.54665,-1.049928 46.34961,213.187505 l 6.32031,-1.15626 c 0,10e-6 -46.59565,-209.286891 -47.00586,-213.017573 -0.0676,-0.614341 1.83075,0.100428 1.78125,-0.515625 -0.44188,-5.499359 -1.62782,-12.84694 -4.5918,-18.449219 -0.32094,-0.606613 -1.57083,-0.81129 -3.01757,-0.736328 z m 391.90429,81.375005 c -0.28969,0.0272 -0.51822,0.11444 -0.66211,0.27539 -1.15107,1.28757 -7.77811,11.08882 -9.88672,15.89648 -0.29764,0.67865 2.51654,0.0295 2.0625,0.83203 -33.23761,58.7455 -0.92141,0.30331 -99.8789,175.92383 -1.27591,-0.54904 -2.39861,-0.86066 -2.89844,-0.71289 -1.49574,0.44221 -25.21094,35.9082 -25.21094,35.9082 l 17.54493,5.43555 c 0,0 16.52232,-34.10462 16.36718,-36.13281 -0.0468,-0.61158 -0.72611,-1.36873 -1.68554,-2.11524 l 0.79687,0.38281 c 0,0 89.04295,-156.53597 99.60156,-176.83007 0.41183,-0.79155 1.82914,1.32646 2.26954,0.67187 1.04223,-1.54911 8.98001,-14.89134 8.80078,-16.00391 -0.15683,-0.97349 -5.19285,-3.72198 -7.22071,-3.53124 z M 289.93164,301.3418 c 0,0 -8.06674,1.21312 -10.22461,1.93554 -1.63518,0.54743 9.05664,66.27539 9.05664,66.27539 l 0.54492,-0.52734 c -19.21992,31.29122 -29.36912,98.44564 -14.57421,126.61719 12.4545,23.71512 221.32608,65.1206 245.70117,38.07812 C 544.81064,506.67822 556.9481,427.04055 541.39844,402.07617 526.54727,378.23319 343.5564,340.55621 304.71875,354.07422 l 0.76563,-0.74219 c 0,0 -14.14343,-50.72881 -15.55274,-51.99023 z" />
      <path
         id="path2770"
         style="fill:none;stroke:#0000ff;stroke-width:0.377953;stroke-miterlimit:4;stroke-dasharray:none;stroke-opacity:1"
         d="m 405.87475,439.96503 c 0,23.65485 -22.76478,45.07493 -47.40061,45.07493 -24.63583,0 -42.88332,-22.67825 -42.88332,-46.3331 0,-23.65485 21.60584,-45.46381 46.24167,-45.46381 24.63583,0 44.04226,23.06713 44.04226,46.72198 z"
         sodipodi:nodetypes="sssss" />
      <ellipse
         style="fill:none;stroke:#0000ff;stroke-width:0.377953;stroke-miterlimit:4;stroke-dasharray:none;stroke-opacity:1"
         id="path3372"
         cx="475.43195"
         cy="459.1835"
         rx="27.839064"
         ry="28.615417" />
    </g>
    <g
       inkscape:label="Image"
       id="g8"
       transform="matrix(0.09279124,0,0,0.09279124,644.21335,-250.12987)"
       style="fill:#000000;fill-opacity:1;stroke:none;stroke-width:0.377953;stroke-miterlimit:4;stroke-dasharray:none">
      <path
         style="fill:#000000;fill-opacity:1;stroke:none;stroke-width:0.377953;stroke-miterlimit:4;stroke-dasharray:none"
         d="m 792.40432,169.47828 c -6.69065,-0.69414 -11.22552,-3.63164 -13.83385,-8.961 -1.93047,-3.94437 -2.66507,-8.18965 -2.40425,-13.89428 0.3486,-7.62441 2.50063,-16.37883 6.32062,-25.71217 2.56317,-6.26257 6.84094,-13.57664 10.89908,-18.63505 3.66041,-4.562666 8.40779,-8.845465 11.79331,-10.63923 2.75261,-1.458421 10.77131,-3.787998 14.8979,-4.328105 1.83236,-0.239829 1.84909,-0.07735 0.30737,2.985878 -3.04681,6.053684 -4.39563,11.306157 -4.39563,17.117067 0,6.7821 1.30253,12.77871 5.53707,25.49169 4.97244,14.92834 6.31115,21.01032 5.55172,25.22248 -0.98222,5.44782 -4.53243,7.74452 -15.16638,9.81141 -7.31567,1.42193 -14.88949,2.02037 -19.50696,1.54131 z"
         id="path15485"
         transform="translate(50.235233,335.96952)" />
      <path
         style="fill:#000000;fill-opacity:1;stroke:none;stroke-width:0.377953;stroke-miterlimit:4;stroke-dasharray:none"
         d="m 542.44599,633.27158 c -19.23298,-4.17633 -31.00338,-16.38486 -33.28041,-34.51921 -3.06744,-24.42924 9.71274,-41.66405 36.28802,-48.93649 9.44858,-2.58565 23.09411,-3.98022 39.15701,-4.00184 l 12.87326,-0.0173 -0.44033,-11.75 c -0.33656,-8.98122 -0.92009,-12.81038 -2.47633,-16.25 -4.53199,-10.01664 -11.95795,-14.17676 -26.42584,-14.80413 -12.37188,-0.53648 -22.25406,1.87391 -36.09938,8.80512 -5.59259,2.79975 -11.08774,4.95738 -12.21145,4.79473 -4.29754,-0.62202 -6.12356,-10.76842 -3.08888,-17.16353 4.19849,-8.84767 30.62003,-17.65291 52.85617,-17.61483 23.96886,0.0411 40.59837,7.93754 47.72684,22.663 5.22489,10.79318 5.2442,11.03159 5.6542,69.80979 l 0.38358,54.99014 -2.17333,1.75986 c -2.45661,1.98923 -12.97033,2.46369 -17.38666,0.7846 -2.46028,-0.9354 -2.5651,-1.30421 -2.5651,-9.02554 v -8.0503 l -6.35608,5.39203 c -14.92269,12.65931 -33.35689,17.27669 -52.43529,13.13393 z m 29.14579,-20.50262 c 6.89942,-2.13102 12.98987,-6.15386 20.89558,-13.80189 l 4.75,-4.59518 V 579.5843 564.79671 l -15.75,0.0174 c -22.9164,0.0253 -32.89888,2.60156 -40.53127,10.46039 -3.98725,4.10554 -5.72716,9.18721 -5.69677,16.63827 0.0409,10.03621 5.55679,17.66498 15.17409,20.98674 6.94181,2.39765 13.09603,2.35969 21.15837,-0.13051 z m 154.14558,20.62098 c -8.168,-2.02024 -15.83729,-6.39807 -24.93119,-14.23138 l -8.56881,-7.38101 v 9.43203 9.43203 l -3.59892,1.18775 c -4.04358,1.3345 -15.86055,0.90788 -17.39648,-0.62805 -0.65483,-0.65483 -1.01327,-37.4418 -1.03656,-106.38329 -0.0319,-94.44417 0.12732,-105.54524 1.5339,-106.95182 1.98166,-1.98166 17.81598,-2.17211 21.24806,-0.25557 l 2.25,1.25645 v 42.46846 42.46847 l 7.62103,-6.3869 c 12.9818,-10.87955 24.93346,-15.6204 39.37897,-15.6204 19.68277,0 35.98888,9.40325 45.32737,26.13896 13.37894,23.97667 13.865,68.98169 1.034,95.7392 -4.46229,9.30557 -15.8682,21.1855 -24.38558,25.39901 -10.57622,5.23202 -27.2227,7.09935 -38.47579,4.31606 z m 23.05963,-23.87008 c 5.69013,-2.8834 12.31172,-9.5905 15.35231,-15.55053 4.96668,-9.7355 6.57587,-18.62953 6.54471,-36.17262 -0.0222,-12.47287 -0.45401,-18.07027 -1.76936,-22.93374 -5.86519,-21.68626 -17.90975,-32.32131 -34.86389,-30.78396 -9.96852,0.90391 -17.76619,5.3678 -28.99971,16.60132 l -9.82369,9.8237 v 27.9818 27.9818 l 7.75,7.99598 c 4.2625,4.39779 9.95902,9.49266 12.65894,11.32193 10.83992,7.34437 23.26461,8.74398 33.15069,3.73432 z m -543.70573,22.1492 c -1.45536,-0.53336 -2.91172,-1.96034 -3.23635,-3.17105 -0.76863,-2.8666 -0.77219,-137.52282 -0.004,-140.3884 0.33665,-1.25535 1.88547,-2.63991 3.63557,-3.25 4.0624,-1.41616 16.0145,-1.35541 19.20354,0.0976 l 2.54705,1.16051 v 72.24166 72.24166 l -3.14922,1.09782 c -3.81193,1.32885 -15.33896,1.31075 -18.99688,-0.0298 z m 73.6461,0.45092 c -4.66239,-1.25531 -4.5,1.41228 -4.5,-73.92266 v -71.3545 l 2.48698,-1.62953 c 2.97322,-1.94814 17.62275,-1.70685 19.6533,0.3237 0.83989,0.83989 1.18412,4.64082 1.0863,11.99461 l -0.14321,10.76511 3.14061,-4 c 5.98575,-7.62367 16.29912,-17.11124 21.13344,-19.44126 9.3661,-4.51422 27.16411,-3.62812 32.4056,1.61337 2.34699,2.34699 2.44892,2.9364 2.05712,11.89467 -0.23963,5.47903 -0.91656,9.92964 -1.61677,10.62985 -0.93938,0.93938 -3.05149,0.72013 -9.59488,-0.99605 -10.55969,-2.76955 -12.91971,-2.74564 -19.10849,0.19364 -5.88875,2.79679 -12.18257,9.10715 -19.90854,19.96087 l -5.59146,7.8551 v 46.77246 c 0,42.27601 -0.15888,46.9044 -1.65271,48.14491 -1.69046,1.40379 -15.89585,2.2596 -19.84729,1.19571 z M 55.594356,630.80513 c -5.629535,-2.2718 -5.356999,2.78046 -5.356999,-99.30785 v -93.85442 l 2.923077,-2.92307 2.923077,-2.92308 h 50.520219 50.52022 l 1.55671,2.22251 c 2.1191,3.02545 2.1191,14.52953 0,17.55498 l -1.55671,2.22251 H 117.18066 77.237357 v 31.52237 31.52237 l 34.250003,-0.0719 34.25,-0.0719 1.84762,2.28088 c 1.51363,1.86857 1.78081,3.60383 1.47804,9.59958 -0.25512,5.05198 -0.82736,7.60819 -1.84762,8.25335 -0.84092,0.53176 -16.24181,0.94125 -35.72804,0.94996 l -34.250003,0.0153 v 36 36 h 40.428573 c 44.65554,0 43.38828,-0.18312 43.74646,6.32143 0.33578,6.09769 -0.33765,11.19473 -1.7742,13.42857 l -1.44694,2.25 -50.22695,-0.0634 c -27.624817,-0.0349 -51.191294,-0.45255 -52.369944,-0.92819 z m 337.094174,-0.13915 c -1.12685,-0.54745 -2.59789,-1.87455 -3.26896,-2.94912 -1.61433,-2.58495 -1.73485,-193.76751 -0.12317,-195.37919 1.3702,-1.3702 22.51012,-1.3718 23.88011,-0.002 0.70227,0.70227 1.04974,28.97898 1.07182,87.22507 0.018,47.40227 0.296,86.87215 0.61784,87.71086 0.50975,1.32839 5.33524,1.52492 37.443,1.52492 h 36.85782 l 1.17843,2.20191 c 0.64814,1.21105 1.20738,5.4599 1.24277,9.44188 0.10954,12.32481 4.36975,11.36787 -50.25582,11.28853 -28.73473,-0.0417 -47.38034,-0.44921 -48.64384,-1.06305 z M 208.28227,456.70395 c -2.4503,-0.48013 -5.24043,-1.66818 -6.2003,-2.64011 -3.38619,-3.42871 -4.32122,-15.20936 -1.71156,-21.56429 1.70128,-4.14288 5.63124,-5.70284 14.36695,-5.70284 12.41174,0 15.5,2.98864 15.5,15 0,7.39764 -1.57363,11.73604 -4.85842,13.3944 -3.64667,1.84105 -11.75853,2.55885 -17.09667,1.51284 z"
         id="path863"
         sodipodi:nodetypes="sssscssssssssscssscssssscccsssssssscccssssscccsssssssssssscccssscscsscccsccsscssscsssssssscssssscccccsscccccccsssscccssscsscsssssscsssccsssssss" />
      <path
         style="fill:#000000;fill-opacity:1;stroke:none;stroke-width:0.377953;stroke-miterlimit:4;stroke-dasharray:none"
         d="m 749.83232,87.209581 c -3.38265,-1.168876 -4.66325,-2.753824 -6.30246,-7.800338 -2.13013,-6.557845 -3.28459,-14.234272 -3.31384,-22.035026 -0.0224,-5.977204 0.22952,-7.583147 1.66228,-10.595891 1.12301,-2.361438 3.83189,-5.245486 6.28852,-6.695168 3.37922,-1.994114 8.02888,-3.080945 13.18083,-3.080945 15.58488,0 36.73646,8.627182 48.95395,19.967044 4.85247,4.503903 7.03388,7.356073 8.60509,11.251077 2.03467,5.043884 3.94153,13.032703 3.27088,13.703355 -0.32161,0.321609 -2.77616,-0.520562 -5.4994,-1.886877 -2.12443,-1.065875 -5.3769,-2.180079 -8.41415,-2.882448 -3.0313,-0.700991 -9.98259,-1.001177 -12.60577,-0.54437 -2.5934,0.451623 -8.88252,2.307826 -18.88048,5.572489 -13.02298,4.252432 -18.44709,5.550512 -23.11919,5.532814 -1.55572,-0.0059 -2.89025,-0.182275 -3.82626,-0.505716 z"
         id="path14665"
         transform="translate(50.235233,335.96952)" />
      <path
         style="fill:#000000;fill-opacity:1;stroke:none;stroke-width:0.377953;stroke-miterlimit:4;stroke-dasharray:none"
         d="m 827.24669,81.401908 c -0.0764,-0.123585 0.525,-1.651485 1.3364,-3.395334 2.9118,-6.258011 4.14298,-11.653444 4.13884,-18.137825 -0.002,-3.924305 -0.0609,-4.374987 -1.04068,-8.033253 -0.57093,-2.131632 -2.33219,-7.806691 -3.91394,-12.611241 -1.58174,-4.804547 -3.36984,-10.426946 -3.97356,-12.494221 -5.20025,-17.8067819 -2.69569,-23.2067872 11.74924,-25.3322011 6.42079,-0.94474862 20.54864,-1.54760816 23.44788,-1.00056099 4.25361,0.80259979 9.04471,4.68251909 11.02983,8.93216499 1.61217,3.4512451 2.04256,5.8729751 2.03638,11.4583231 -0.0117,10.588653 -2.60656,20.444726 -8.46469,32.151735 -4.72747,9.447463 -11.67865,18.596151 -17.17991,22.611071 -2.76423,2.017386 -7.91617,4.14167 -13.10048,5.401678 -2.72751,0.662902 -5.79306,0.890173 -6.06531,0.449664 z"
         id="path14926"
         transform="translate(50.235233,335.96952)" />
      <path
         style="fill:#000000;fill-opacity:1;stroke:none;stroke-width:0.377953;stroke-miterlimit:4;stroke-dasharray:none"
         d="m 884.86565,132.44505 c -8.91719,-0.7051 -18.96194,-3.79295 -29.51862,-9.0743 -7.75561,-3.88002 -14.2131,-8.3114 -19.02632,-13.0566 -4.08214,-4.02445 -5.52691,-6.46948 -7.45229,-12.611678 -0.92152,-2.939773 -2.00375,-7.357726 -2.2341,-9.120249 l -0.19579,-1.49807 0.93643,0.187286 c 0.51503,0.103007 2.37338,0.822617 4.12966,1.599134 5.72055,2.529271 7.45659,3.035908 11.55569,3.372362 2.71891,0.223167 4.97069,0.220063 8.47941,-0.01169 5.90191,-0.389819 9.27116,-1.20709 19.19025,-4.654928 10.54279,-3.664634 15.45445,-5.159889 19.9166,-6.063203 2.4336,-0.492653 7.00517,-0.581689 8.50291,-0.165601 1.7848,0.49584 3.54562,1.849101 4.67046,3.589455 2.87375,4.446245 4.78996,15.398212 4.85225,27.732692 0.0275,5.44819 -0.0231,6.12837 -0.59058,7.93262 -2.04019,6.48692 -8.50208,10.80632 -17.55646,11.73548 -2.72802,0.27995 -3.33139,0.29139 -5.6595,0.10729 z"
         id="path15187"
         transform="translate(50.235233,335.96952)" />
    </g>
  </g>
</svg>
