<?xml version="1.0" encoding="UTF-8" standalone="no"?>
<svg
   xmlns:dc="http://purl.org/dc/elements/1.1/"
   xmlns:cc="http://creativecommons.org/ns#"
   xmlns:rdf="http://www.w3.org/1999/02/22-rdf-syntax-ns#"
   xmlns:svg="http://www.w3.org/2000/svg"
   xmlns="http://www.w3.org/2000/svg"
   xmlns:sodipodi="http://sodipodi.sourceforge.net/DTD/sodipodi-0.dtd"
   xmlns:inkscape="http://www.inkscape.org/namespaces/inkscape"
   width="300.09421mm"
   height="300.09396mm"
   viewBox="0 0 3544.4318 3544.4168"
   version="1.2"
   id="svg4933"
   sodipodi:docname="Plaque_Alu_Base.svg"
   inkscape:version="0.92.4 (5da689c313, 2019-01-14)">
  <metadata
     id="metadata4937">
    <rdf:RDF>
      <cc:Work
         rdf:about="">
        <dc:format>image/svg+xml</dc:format>
        <dc:type
           rdf:resource="http://purl.org/dc/dcmitype/StillImage" />
      </cc:Work>
    </rdf:RDF>
  </metadata>
  <sodipodi:namedview
     pagecolor="#ffffff"
     bordercolor="#666666"
     borderopacity="1"
     objecttolerance="10"
     gridtolerance="10"
     guidetolerance="10"
     inkscape:pageopacity="0"
     inkscape:pageshadow="2"
     inkscape:window-width="1920"
     inkscape:window-height="1017"
     id="namedview4935"
     showgrid="false"
     inkscape:zoom="0.21000352"
     inkscape:cx="1430.3585"
     inkscape:cy="31.443298"
     inkscape:window-x="-8"
     inkscape:window-y="-8"
     inkscape:window-maximized="1"
     inkscape:current-layer="g4931" />
  <defs
     id="defs4873" />
  <g
     id="g4931"
     style="fill:none;fill-rule:evenodd;stroke:#000000;stroke-width:1;stroke-linecap:square;stroke-linejoin:bevel"
     transform="translate(-3644.3784,-2297.8027)">
    <g
       font-size="12"
       font-weight="400"
       font-style="normal"
       id="g4879"
       style="font-style:normal;font-weight:400;font-size:12px;font-family:Arial;fill:none;stroke:#000000;stroke-width:1;stroke-linecap:square;stroke-linejoin:bevel;stroke-opacity:1" />
    <g
       stroke-miterlimit="2"
       font-size="12"
       font-weight="400"
       font-style="normal"
       id="g4881"
       style="font-style:normal;font-weight:400;font-size:12px;font-family:Arial;fill:#000000;fill-opacity:1;stroke:#000000;stroke-width:1;stroke-linecap:butt;stroke-linejoin:miter;stroke-miterlimit:2;stroke-opacity:1" />
    <g
       font-size="12"
       font-weight="400"
       font-style="normal"
       id="g4929"
       style="font-style:normal;font-weight:400;font-size:12px;font-family:Arial;fill:none;stroke:#000000;stroke-width:1;stroke-linecap:square;stroke-linejoin:bevel;stroke-opacity:1" />
    <g
       style="font-style:normal;font-weight:400;font-size:12px;font-family:Arial;fill:none;fill-opacity:1;stroke:#ff0000;stroke-width:1.18110645;stroke-linecap:round;stroke-linejoin:bevel;stroke-miterlimit:4;stroke-dasharray:none;stroke-opacity:1"
       transform="translate(2735.1814,1439.6256)"
       font-size="12"
       font-weight="400"
       font-style="normal"
       id="g4927">
      <polyline
         style="vector-effect:none;fill:none;stroke:#ff0000;stroke-width:1.18110645;stroke-miterlimit:4;stroke-dasharray:none;stroke-opacity:1"
         points="4453.03,4401.99 909.796,4401.99 "
         id="polyline4883" />
      <polyline
         style="vector-effect:none;fill:none;stroke:#ff0000;stroke-width:1.18110645;stroke-miterlimit:4;stroke-dasharray:none;stroke-opacity:1"
         points="909.796,4401.99 909.796,858.759 "
         id="polyline4885" />
      <polyline
         style="vector-effect:none;fill:none;stroke:#ff0000;stroke-width:1.18110645;stroke-miterlimit:4;stroke-dasharray:none;stroke-opacity:1"
         points="4453.03,858.759 909.796,858.759 "
         id="polyline4887" />
      <polyline
         style="vector-effect:none;fill:none;stroke:#ff0000;stroke-width:1.18110645;stroke-miterlimit:4;stroke-dasharray:none;stroke-opacity:1"
         points="4453.03,4401.99 4453.03,858.759 "
         id="polyline4889" />
      <polyline
         style="vector-effect:none;fill:none;stroke:#ff0000;stroke-width:1.18110645;stroke-miterlimit:4;stroke-dasharray:none;stroke-opacity:1"
         points="4145.95,3375.91 4145.78,3371.44 4145.27,3367 4144.43,3362.61 4143.26,3358.3 4141.77,3354.09 4139.96,3350 4137.85,3346.06 4135.44,3342.29 4132.76,3338.72 4129.82,3335.35 4126.63,3332.22 4123.21,3329.34 4119.58,3326.73 4115.77,3324.4 4111.79,3322.36 4107.67,3320.63 4103.43,3319.22 4099.1,3318.13 4094.69,3317.37 4090.24,3316.95 4085.77,3316.87 4081.31,3317.12 4076.88,3317.71 4072.51,3318.63 4068.22,3319.89 4064.03,3321.46 4059.98,3323.34 4056.08,3325.53 4052.36,3328 4048.84,3330.75 4045.53,3333.76 4042.46,3337.01 4039.65,3340.48 4037.1,3344.15 4034.84,3348.01 4032.88,3352.03 4031.23,3356.18 4029.9,3360.45 4028.89,3364.8 4028.22,3369.22 4027.88,3373.67 4027.88,3378.14 4028.22,3382.6 4028.89,3387.02 4029.9,3391.37 4031.23,3395.64 4032.88,3399.79 4034.84,3403.81 4037.1,3407.67 4039.65,3411.34 4042.46,3414.81 4045.53,3418.06 4048.84,3421.07 4052.36,3423.82 4056.08,3426.29 4059.98,3428.48 4064.03,3430.36 4068.22,3431.93 4072.51,3433.18 4076.88,3434.11 4081.31,3434.7 4085.77,3434.95 4090.24,3434.87 4094.69,3434.45 4099.1,3433.69 4103.43,3432.6 4107.67,3431.19 4111.79,3429.46 4115.77,3427.42 4119.58,3425.09 4123.21,3422.48 4126.63,3419.59 4129.82,3416.46 4132.76,3413.1 4135.44,3409.53 4137.85,3405.76 4139.96,3401.82 4141.77,3397.73 4143.26,3393.52 4144.43,3389.21 4145.27,3384.82 4145.78,3380.38 4145.95,3375.91 "
         id="polyline4891" />
      <polyline
         style="vector-effect:none;fill:none;stroke:#ff0000;stroke-width:1.18110645;stroke-miterlimit:4;stroke-dasharray:none;stroke-opacity:1"
         points="4145.95,3777.48 4145.78,3773.01 4145.27,3768.57 4144.43,3764.18 4143.26,3759.87 4141.77,3755.65 4139.96,3751.57 4137.85,3747.63 4135.44,3743.86 4132.76,3740.28 4129.82,3736.92 4126.63,3733.79 4123.21,3730.91 4119.58,3728.3 4115.77,3725.96 4111.79,3723.93 4107.67,3722.2 4103.43,3720.79 4099.1,3719.7 4094.69,3718.94 4090.24,3718.52 4085.77,3718.43 4081.31,3718.69 4076.88,3719.28 4072.51,3720.2 4068.22,3721.45 4064.03,3723.02 4059.98,3724.91 4056.08,3727.09 4052.36,3729.57 4048.84,3732.32 4045.53,3735.32 4042.46,3738.57 4039.65,3742.05 4037.1,3745.72 4034.84,3749.58 4032.88,3753.59 4031.23,3757.75 4029.9,3762.01 4028.89,3766.37 4028.22,3770.78 4027.88,3775.24 4027.88,3779.71 4028.22,3784.17 4028.89,3788.58 4029.9,3792.94 4031.23,3797.21 4032.88,3801.36 4034.84,3805.37 4037.1,3809.23 4039.65,3812.91 4042.46,3816.38 4045.53,3819.63 4048.84,3822.63 4052.36,3825.38 4056.08,3827.86 4059.98,3830.04 4064.03,3831.93 4068.22,3833.5 4072.51,3834.75 4076.88,3835.67 4081.31,3836.27 4085.77,3836.52 4090.24,3836.43 4094.69,3836.01 4099.1,3835.25 4103.43,3834.17 4107.67,3832.75 4111.79,3831.02 4115.77,3828.99 4119.58,3826.65 4123.21,3824.04 4126.63,3821.16 4129.82,3818.03 4132.76,3814.67 4135.44,3811.09 4137.85,3807.32 4139.96,3803.39 4141.77,3799.3 4143.26,3795.09 4144.43,3790.77 4145.27,3786.38 4145.78,3781.94 4145.95,3777.48 "
         id="polyline4893" />
      <polyline
         style="vector-effect:none;fill:none;stroke:#ff0000;stroke-width:1.18110645;stroke-miterlimit:4;stroke-dasharray:none;stroke-opacity:1"
         points="1334.98,3851.85 1334.81,3847.38 1334.31,3842.94 1333.47,3838.55 1332.3,3834.24 1330.8,3830.02 1329,3825.94 1326.88,3822 1324.48,3818.23 1321.8,3814.65 1318.86,3811.29 1315.67,3808.16 1312.25,3805.28 1308.62,3802.67 1304.81,3800.33 1300.83,3798.3 1296.71,3796.57 1292.47,3795.15 1288.13,3794.07 1283.73,3793.31 1279.28,3792.89 1274.81,3792.8 1270.35,3793.06 1265.92,3793.65 1261.55,3794.57 1257.26,3795.82 1253.07,3797.39 1249.02,3799.28 1245.12,3801.46 1241.4,3803.94 1237.88,3806.69 1234.57,3809.69 1231.5,3812.94 1228.69,3816.41 1226.14,3820.09 1223.88,3823.95 1221.92,3827.96 1220.27,3832.11 1218.94,3836.38 1217.93,3840.74 1217.26,3845.15 1216.92,3849.61 1216.92,3854.08 1217.26,3858.54 1217.93,3862.95 1218.94,3867.31 1220.27,3871.58 1221.92,3875.73 1223.88,3879.74 1226.14,3883.6 1228.69,3887.28 1231.5,3890.75 1234.57,3894 1237.88,3897 1241.4,3899.75 1245.12,3902.23 1249.02,3904.41 1253.07,3906.3 1257.26,3907.87 1261.55,3909.12 1265.92,3910.04 1270.35,3910.63 1274.81,3910.89 1279.28,3910.8 1283.73,3910.38 1288.13,3909.62 1292.47,3908.54 1296.71,3907.12 1300.83,3905.39 1304.81,3903.36 1308.62,3901.02 1312.25,3898.41 1315.67,3895.53 1318.86,3892.4 1321.8,3889.04 1324.48,3885.46 1326.88,3881.69 1329,3877.75 1330.8,3873.67 1332.3,3869.45 1333.47,3865.14 1334.31,3860.75 1334.81,3856.31 1334.98,3851.85 "
         id="polyline4895" />
      <polyline
         style="vector-effect:none;fill:none;stroke:#ff0000;stroke-width:1.18110645;stroke-miterlimit:4;stroke-dasharray:none;stroke-opacity:1"
         points="1334.98,3450.28 1334.81,3445.81 1334.31,3441.37 1333.47,3436.98 1332.3,3432.67 1330.8,3428.46 1329,3424.37 1326.88,3420.43 1324.48,3416.66 1321.8,3413.09 1318.86,3409.72 1315.67,3406.59 1312.25,3403.71 1308.62,3401.1 1304.81,3398.77 1300.83,3396.73 1296.71,3395 1292.47,3393.59 1288.13,3392.5 1283.73,3391.74 1279.28,3391.32 1274.81,3391.24 1270.35,3391.49 1265.92,3392.08 1261.55,3393 1257.26,3394.26 1253.07,3395.83 1249.02,3397.71 1245.12,3399.9 1241.4,3402.37 1237.88,3405.12 1234.57,3408.13 1231.5,3411.38 1228.69,3414.85 1226.14,3418.52 1223.88,3422.38 1221.92,3426.4 1220.27,3430.55 1218.94,3434.81 1217.93,3439.17 1217.26,3443.59 1216.92,3448.04 1216.92,3452.51 1217.26,3456.97 1217.93,3461.39 1218.94,3465.74 1220.27,3470.01 1221.92,3474.16 1223.88,3478.18 1226.14,3482.03 1228.69,3485.71 1231.5,3489.18 1234.57,3492.43 1237.88,3495.44 1241.4,3498.19 1245.12,3500.66 1249.02,3502.85 1253.07,3504.73 1257.26,3506.3 1261.55,3507.55 1265.92,3508.48 1270.35,3509.07 1274.81,3509.32 1279.28,3509.24 1283.73,3508.82 1288.13,3508.06 1292.47,3506.97 1296.71,3505.56 1300.83,3503.83 1304.81,3501.79 1308.62,3499.46 1312.25,3496.84 1315.67,3493.96 1318.86,3490.83 1321.8,3487.47 1324.48,3483.9 1326.88,3480.13 1329,3476.19 1330.8,3472.1 1332.3,3467.89 1333.47,3463.58 1334.31,3459.19 1334.81,3454.75 1334.98,3450.28 "
         id="polyline4897" />
      <polyline
         style="vector-effect:none;fill:none;stroke:#ff0000;stroke-width:1.18110645;stroke-miterlimit:4;stroke-dasharray:none;stroke-opacity:1"
         points="2705.03,1035.92 2704.87,1033.13 2704.37,1030.37 2703.55,1027.7 2702.43,1025.13 2701,1022.72 2699.3,1020.5 2697.35,1018.49 2695.18,1016.73 2692.81,1015.23 2690.29,1014.03 2687.64,1013.13 2684.9,1012.56 2682.11,1012.31 2679.31,1012.39 2676.55,1012.81 2673.85,1013.54 2671.25,1014.6 2668.8,1015.95 2666.53,1017.58 2664.46,1019.47 2662.63,1021.59 2661.07,1023.91 2659.79,1026.4 2658.82,1029.02 2658.16,1031.74 2657.83,1034.52 2657.83,1037.32 2658.16,1040.1 2658.82,1042.82 2659.79,1045.44 2661.07,1047.93 2662.63,1050.25 2664.46,1052.37 2666.53,1054.26 2668.8,1055.89 2671.25,1057.25 2673.85,1058.3 2676.55,1059.04 2679.31,1059.45 2682.11,1059.53 2684.9,1059.28 2687.64,1058.71 2690.29,1057.81 2692.81,1056.61 2695.18,1055.11 2697.35,1053.35 2699.3,1051.34 2701,1049.12 2702.43,1046.71 2703.55,1044.15 2704.37,1041.47 2704.87,1038.71 2705.03,1035.92 "
         id="polyline4899" />
      <polyline
         style="vector-effect:none;fill:none;stroke:#ff0000;stroke-width:1.18110645;stroke-miterlimit:4;stroke-dasharray:none;stroke-opacity:1"
         points="3000.3,1331.19 3000.14,1328.4 2999.64,1325.64 2998.82,1322.96 2997.69,1320.4 2996.27,1317.99 2994.57,1315.77 2992.62,1313.76 2990.45,1312 2988.08,1310.5 2985.56,1309.3 2982.91,1308.4 2980.17,1307.83 2977.38,1307.58 2974.58,1307.66 2971.81,1308.07 2969.11,1308.81 2966.52,1309.86 2964.07,1311.22 2961.8,1312.85 2959.73,1314.74 2957.9,1316.86 2956.34,1319.18 2955.06,1321.67 2954.09,1324.29 2953.43,1327.01 2953.1,1329.79 2953.1,1332.59 2953.43,1335.37 2954.09,1338.09 2955.06,1340.71 2956.34,1343.2 2957.9,1345.52 2959.73,1347.64 2961.8,1349.53 2964.07,1351.16 2966.52,1352.52 2969.11,1353.57 2971.81,1354.3 2974.58,1354.72 2977.38,1354.8 2980.17,1354.55 2982.91,1353.98 2985.56,1353.08 2988.08,1351.88 2990.45,1350.38 2992.62,1348.62 2994.57,1346.61 2996.27,1344.39 2997.69,1341.98 2998.82,1339.41 2999.64,1336.74 3000.14,1333.98 3000.3,1331.19 "
         id="polyline4901" />
      <polyline
         style="vector-effect:none;fill:none;stroke:#ff0000;stroke-width:1.18110645;stroke-miterlimit:4;stroke-dasharray:none;stroke-opacity:1"
         points="2705.03,1626.46 2704.87,1623.66 2704.37,1620.91 2703.55,1618.23 2702.43,1615.67 2701,1613.26 2699.3,1611.04 2697.35,1609.03 2695.18,1607.27 2692.81,1605.77 2690.29,1604.57 2687.64,1603.67 2684.9,1603.1 2682.11,1602.85 2679.31,1602.93 2676.55,1603.34 2673.85,1604.08 2671.25,1605.13 2668.8,1606.48 2666.53,1608.12 2664.46,1610.01 2662.63,1612.13 2661.07,1614.45 2659.79,1616.94 2658.82,1619.56 2658.16,1622.28 2657.83,1625.06 2657.83,1627.86 2658.16,1630.64 2658.82,1633.36 2659.79,1635.98 2661.07,1638.47 2662.63,1640.79 2664.46,1642.91 2666.53,1644.8 2668.8,1646.43 2671.25,1647.78 2673.85,1648.84 2676.55,1649.57 2679.31,1649.99 2682.11,1650.07 2684.9,1649.82 2687.64,1649.24 2690.29,1648.35 2692.81,1647.14 2695.18,1645.65 2697.35,1643.89 2699.3,1641.88 2701,1639.65 2702.43,1637.25 2703.55,1634.68 2704.37,1632.01 2704.87,1629.25 2705.03,1626.46 "
         id="polyline4903" />
      <polyline
         style="vector-effect:none;fill:none;stroke:#ff0000;stroke-width:1.18110645;stroke-miterlimit:4;stroke-dasharray:none;stroke-opacity:1"
         points="2409.76,1331.19 2409.6,1328.4 2409.1,1325.64 2408.28,1322.96 2407.16,1320.4 2405.73,1317.99 2404.04,1315.77 2402.09,1313.76 2399.91,1312 2397.55,1310.5 2395.02,1309.3 2392.37,1308.4 2389.63,1307.83 2386.84,1307.58 2384.04,1307.66 2381.28,1308.07 2378.58,1308.81 2375.98,1309.86 2373.53,1311.22 2371.26,1312.85 2369.19,1314.74 2367.37,1316.86 2365.8,1319.18 2364.52,1321.67 2363.55,1324.29 2362.89,1327.01 2362.56,1329.79 2362.56,1332.59 2362.89,1335.37 2363.55,1338.09 2364.52,1340.71 2365.8,1343.2 2367.37,1345.52 2369.19,1347.64 2371.26,1349.53 2373.53,1351.16 2375.98,1352.52 2378.58,1353.57 2381.28,1354.3 2384.04,1354.72 2386.84,1354.8 2389.63,1354.55 2392.37,1353.98 2395.02,1353.08 2397.55,1351.88 2399.91,1350.38 2402.09,1348.62 2404.04,1346.61 2405.73,1344.39 2407.16,1341.98 2408.28,1339.41 2409.1,1336.74 2409.6,1333.98 2409.76,1331.19 "
         id="polyline4905" />
      <polyline
         style="vector-effect:none;fill:none;stroke:#ff0000;stroke-width:1.18110645;stroke-miterlimit:4;stroke-dasharray:none;stroke-opacity:1"
         points="3661.7,4283.88 3661.54,4280.46 3661.04,4277.07 3660.22,4273.75 3659.09,4270.52 3657.65,4267.41 3655.91,4264.46 3653.9,4261.69 3651.63,4259.13 3649.12,4256.8 3646.4,4254.72 3643.49,4252.91 3640.42,4251.4 3637.22,4250.18 3633.92,4249.28 3630.54,4248.71 3627.13,4248.46 3623.71,4248.54 3620.31,4248.95 3616.96,4249.69 3613.71,4250.75 3610.57,4252.12 3607.58,4253.78 3604.76,4255.73 3602.14,4257.94 3599.75,4260.39 3597.61,4263.05 3595.73,4265.92 3594.14,4268.95 3592.85,4272.12 3591.87,4275.4 3591.21,4278.76 3590.88,4282.17 3590.88,4285.59 3591.21,4289 3591.87,4292.36 3592.85,4295.64 3594.14,4298.81 3595.73,4301.84 3597.61,4304.71 3599.75,4307.38 3602.14,4309.83 3604.76,4312.03 3607.58,4313.98 3610.57,4315.64 3613.71,4317.01 3616.96,4318.07 3620.31,4318.81 3623.71,4319.22 3627.13,4319.3 3630.54,4319.05 3633.92,4318.48 3637.22,4317.58 3640.42,4316.37 3643.49,4314.85 3646.4,4313.04 3649.12,4310.96 3651.63,4308.63 3653.9,4306.07 3655.91,4303.3 3657.65,4300.35 3659.09,4297.24 3660.22,4294.01 3661.04,4290.69 3661.54,4287.3 3661.7,4283.88 "
         id="polyline4907" />
      <polyline
         style="vector-effect:none;fill:none;stroke:#ff0000;stroke-width:1.18110645;stroke-miterlimit:4;stroke-dasharray:none;stroke-opacity:1"
         points="3661.7,2276.05 3661.54,2272.63 3661.04,2269.24 3660.22,2265.92 3659.09,2262.69 3657.65,2259.58 3655.91,2256.63 3653.9,2253.86 3651.63,2251.3 3649.12,2248.97 3646.4,2246.89 3643.49,2245.08 3640.42,2243.57 3637.22,2242.35 3633.92,2241.45 3630.54,2240.88 3627.13,2240.63 3623.71,2240.71 3620.31,2241.12 3616.96,2241.86 3613.71,2242.92 3610.57,2244.29 3607.58,2245.95 3604.76,2247.9 3602.14,2250.1 3599.75,2252.55 3597.61,2255.22 3595.73,2258.09 3594.14,2261.12 3592.85,2264.29 3591.87,2267.57 3591.21,2270.93 3590.88,2274.34 3590.88,2277.76 3591.21,2281.17 3591.87,2284.53 3592.85,2287.81 3594.14,2290.98 3595.73,2294.01 3597.61,2296.88 3599.75,2299.55 3602.14,2302 3604.76,2304.2 3607.58,2306.15 3610.57,2307.81 3613.71,2309.18 3616.96,2310.24 3620.31,2310.98 3623.71,2311.39 3627.13,2311.47 3630.54,2311.22 3633.92,2310.65 3637.22,2309.75 3640.42,2308.53 3643.49,2307.02 3646.4,2305.21 3649.12,2303.13 3651.63,2300.8 3653.9,2298.24 3655.91,2295.47 3657.65,2292.52 3659.09,2289.41 3660.22,2286.18 3661.04,2282.86 3661.54,2279.47 3661.7,2276.05 "
         id="polyline4909" />
      <polyline
         style="vector-effect:none;fill:none;stroke:#ff0000;stroke-width:1.18110645;stroke-miterlimit:4;stroke-dasharray:none;stroke-opacity:1"
         points="1771.98,2276.05 1771.82,2272.63 1771.32,2269.24 1770.5,2265.92 1769.37,2262.69 1767.92,2259.58 1766.19,2256.63 1764.18,2253.86 1761.9,2251.3 1759.4,2248.97 1756.68,2246.89 1753.77,2245.08 1750.7,2243.57 1747.5,2242.35 1744.2,2241.45 1740.82,2240.88 1737.41,2240.63 1733.98,2240.71 1730.58,2241.12 1727.24,2241.86 1723.98,2242.92 1720.85,2244.29 1717.85,2245.95 1715.04,2247.9 1712.42,2250.1 1710.03,2252.55 1707.88,2255.22 1706.01,2258.09 1704.42,2261.12 1703.13,2264.29 1702.15,2267.57 1701.49,2270.93 1701.16,2274.34 1701.16,2277.76 1701.49,2281.17 1702.15,2284.53 1703.13,2287.81 1704.42,2290.98 1706.01,2294.01 1707.88,2296.88 1710.03,2299.55 1712.42,2302 1715.04,2304.2 1717.85,2306.15 1720.85,2307.81 1723.98,2309.18 1727.24,2310.24 1730.58,2310.98 1733.98,2311.39 1737.41,2311.47 1740.82,2311.22 1744.2,2310.65 1747.5,2309.75 1750.7,2308.53 1753.77,2307.02 1756.68,2305.21 1759.4,2303.13 1761.9,2300.8 1764.18,2298.24 1766.19,2295.47 1767.92,2292.52 1769.37,2289.41 1770.5,2286.18 1771.32,2282.86 1771.82,2279.47 1771.98,2276.05 "
         id="polyline4911" />
      <polyline
         style="vector-effect:none;fill:none;stroke:#ff0000;stroke-width:1.18110645;stroke-miterlimit:4;stroke-dasharray:none;stroke-opacity:1"
         points="1771.98,4283.88 1771.82,4280.46 1771.32,4277.07 1770.5,4273.75 1769.37,4270.52 1767.92,4267.41 1766.19,4264.46 1764.18,4261.69 1761.9,4259.13 1759.4,4256.8 1756.68,4254.72 1753.77,4252.91 1750.7,4251.4 1747.5,4250.18 1744.2,4249.28 1740.82,4248.71 1737.41,4248.46 1733.98,4248.54 1730.58,4248.95 1727.24,4249.69 1723.98,4250.75 1720.85,4252.12 1717.85,4253.78 1715.04,4255.73 1712.42,4257.94 1710.03,4260.39 1707.88,4263.05 1706.01,4265.92 1704.42,4268.95 1703.13,4272.12 1702.15,4275.4 1701.49,4278.76 1701.16,4282.17 1701.16,4285.59 1701.49,4289 1702.15,4292.36 1703.13,4295.64 1704.42,4298.81 1706.01,4301.84 1707.88,4304.71 1710.03,4307.38 1712.42,4309.83 1715.04,4312.03 1717.85,4313.98 1720.85,4315.64 1723.98,4317.01 1727.24,4318.07 1730.58,4318.81 1733.98,4319.22 1737.41,4319.3 1740.82,4319.05 1744.2,4318.48 1747.5,4317.58 1750.7,4316.37 1753.77,4314.85 1756.68,4313.04 1759.4,4310.96 1761.9,4308.63 1764.18,4306.07 1766.19,4303.3 1767.92,4300.35 1769.37,4297.24 1770.5,4294.01 1771.32,4290.69 1771.82,4287.3 1771.98,4283.88 "
         id="polyline4913" />
      <polyline
         style="vector-effect:none;fill:none;stroke:#ff0000;stroke-width:1.18110645;stroke-miterlimit:4;stroke-dasharray:none;stroke-opacity:1"
         points="3062.31,3516.18 3062.14,3513.21 3061.64,3510.27 3060.82,3507.4 3059.68,3504.65 3058.23,3502.04 3056.51,3499.61 3054.52,3497.39 3052.3,3495.4 3049.87,3493.68 3047.26,3492.24 3044.51,3491.1 3041.65,3490.27 3038.71,3489.77 3035.73,3489.61 3032.76,3489.77 3029.82,3490.27 3026.96,3491.1 3024.2,3492.24 3021.6,3493.68 3019.16,3495.4 3016.94,3497.39 3014.96,3499.61 3013.23,3502.04 3011.79,3504.65 3010.65,3507.4 3009.83,3510.27 3009.33,3513.21 3009.16,3516.18 3009.33,3519.16 3009.83,3522.09 3010.65,3524.96 3011.79,3527.71 3013.23,3530.32 3014.96,3532.75 3016.94,3534.97 3019.16,3536.96 3021.6,3538.68 3024.2,3540.12 3026.96,3541.26 3029.82,3542.09 3032.76,3542.59 3035.73,3542.76 3038.71,3542.59 3041.65,3542.09 3044.51,3541.26 3047.26,3540.12 3049.87,3538.68 3052.3,3536.96 3054.52,3534.97 3056.51,3532.75 3058.23,3530.32 3059.68,3527.71 3060.82,3524.96 3061.64,3522.09 3062.14,3519.16 3062.31,3516.18 "
         id="polyline4915" />
      <polyline
         style="vector-effect:none;fill:none;stroke:#ff0000;stroke-width:1.18110645;stroke-miterlimit:4;stroke-dasharray:none;stroke-opacity:1"
         points="2353.66,4224.83 2353.49,4221.85 2353,4218.91 2352.17,4216.05 2351.03,4213.3 2349.59,4210.69 2347.86,4208.26 2345.88,4206.04 2343.66,4204.05 2341.23,4202.33 2338.62,4200.88 2335.86,4199.74 2333,4198.92 2330.06,4198.42 2327.09,4198.25 2324.11,4198.42 2321.17,4198.92 2318.31,4199.74 2315.56,4200.88 2312.95,4202.33 2310.52,4204.05 2308.3,4206.04 2306.31,4208.26 2304.59,4210.69 2303.15,4213.3 2302,4216.05 2301.18,4218.91 2300.68,4221.85 2300.51,4224.83 2300.68,4227.8 2301.18,4230.74 2302,4233.6 2303.15,4236.36 2304.59,4238.97 2306.31,4241.4 2308.3,4243.62 2310.52,4245.6 2312.95,4247.33 2315.56,4248.77 2318.31,4249.91 2321.17,4250.74 2324.11,4251.23 2327.09,4251.4 2330.06,4251.23 2333,4250.74 2335.86,4249.91 2338.62,4248.77 2341.23,4247.33 2343.66,4245.6 2345.88,4243.62 2347.86,4241.4 2349.59,4238.97 2351.03,4236.36 2352.17,4233.6 2353,4230.74 2353.49,4227.8 2353.66,4224.83 "
         id="polyline4917" />
      <polyline
         style="vector-effect:none;fill:none;stroke:#ff0000;stroke-width:1.18110645;stroke-miterlimit:4;stroke-dasharray:none;stroke-opacity:1"
         points="3062.31,4224.83 3062.14,4221.85 3061.64,4218.91 3060.82,4216.05 3059.68,4213.3 3058.23,4210.69 3056.51,4208.26 3054.52,4206.04 3052.3,4204.05 3049.87,4202.33 3047.26,4200.88 3044.51,4199.74 3041.65,4198.92 3038.71,4198.42 3035.73,4198.25 3032.76,4198.42 3029.82,4198.92 3026.96,4199.74 3024.2,4200.88 3021.6,4202.33 3019.16,4204.05 3016.94,4206.04 3014.96,4208.26 3013.23,4210.69 3011.79,4213.3 3010.65,4216.05 3009.83,4218.91 3009.33,4221.85 3009.16,4224.83 3009.33,4227.8 3009.83,4230.74 3010.65,4233.6 3011.79,4236.36 3013.23,4238.97 3014.96,4241.4 3016.94,4243.62 3019.16,4245.6 3021.6,4247.33 3024.2,4248.77 3026.96,4249.91 3029.82,4250.74 3032.76,4251.23 3035.73,4251.4 3038.71,4251.23 3041.65,4250.74 3044.51,4249.91 3047.26,4248.77 3049.87,4247.33 3052.3,4245.6 3054.52,4243.62 3056.51,4241.4 3058.23,4238.97 3059.68,4236.36 3060.82,4233.6 3061.64,4230.74 3062.14,4227.8 3062.31,4224.83 "
         id="polyline4919" />
      <polyline
         style="vector-effect:none;fill:none;stroke:#ff0000;stroke-width:1.18110645;stroke-miterlimit:4;stroke-dasharray:none;stroke-opacity:1"
         points="2353.66,3516.18 2353.49,3513.21 2353,3510.27 2352.17,3507.4 2351.03,3504.65 2349.59,3502.04 2347.86,3499.61 2345.88,3497.39 2343.66,3495.4 2341.23,3493.68 2338.62,3492.24 2335.86,3491.1 2333,3490.27 2330.06,3489.77 2327.09,3489.61 2324.11,3489.77 2321.17,3490.27 2318.31,3491.1 2315.56,3492.24 2312.95,3493.68 2310.52,3495.4 2308.3,3497.39 2306.31,3499.61 2304.59,3502.04 2303.15,3504.65 2302,3507.4 2301.18,3510.27 2300.68,3513.21 2300.51,3516.18 2300.68,3519.16 2301.18,3522.09 2302,3524.96 2303.15,3527.71 2304.59,3530.32 2306.31,3532.75 2308.3,3534.97 2310.52,3536.96 2312.95,3538.68 2315.56,3540.12 2318.31,3541.26 2321.17,3542.09 2324.11,3542.59 2327.09,3542.76 2330.06,3542.59 2333,3542.09 2335.86,3541.26 2338.62,3540.12 2341.23,3538.68 2343.66,3536.96 2345.88,3534.97 2347.86,3532.75 2349.59,3530.32 2351.03,3527.71 2352.17,3524.96 2353,3522.09 2353.49,3519.16 2353.66,3516.18 "
         id="polyline4921" />
      <polyline
         style="vector-effect:none;fill:none;stroke:#ff0000;stroke-width:1.18110645;stroke-miterlimit:4;stroke-dasharray:none;stroke-opacity:1"
         points="1583.01,1874.48 1582.84,1869.6 1582.33,1864.73 1581.49,1859.91 1580.32,1855.16 1578.83,1850.5 1577.01,1845.96 1574.89,1841.55 1572.47,1837.3 1569.76,1833.23 1566.78,1829.35 1563.53,1825.69 1560.05,1822.26 1556.33,1819.08 1552.4,1816.16 1548.28,1813.53 1543.99,1811.18 1539.55,1809.13 1534.97,1807.4 1530.29,1805.98 1525.52,1804.89 1520.69,1804.14 1515.81,1803.72 1510.92,1803.63 1506.04,1803.88 1501.18,1804.47 1496.38,1805.4 1491.65,1806.65 1487.02,1808.23 1482.5,1810.12 1478.13,1812.32 1473.93,1814.81 1469.9,1817.59 1466.08,1820.64 1462.47,1823.95 1459.1,1827.49 1455.99,1831.26 1453.14,1835.24 1450.57,1839.41 1448.3,1843.74 1446.33,1848.22 1444.67,1852.82 1443.34,1857.53 1442.33,1862.31 1441.66,1867.16 1441.32,1872.04 1441.32,1876.93 1441.66,1881.81 1442.33,1886.66 1443.34,1891.44 1444.67,1896.15 1446.33,1900.75 1448.3,1905.23 1450.57,1909.56 1453.14,1913.73 1455.99,1917.71 1459.1,1921.48 1462.47,1925.02 1466.08,1928.33 1469.9,1931.38 1473.93,1934.16 1478.13,1936.65 1482.5,1938.85 1487.02,1940.74 1491.65,1942.32 1496.38,1943.57 1501.18,1944.5 1506.04,1945.09 1510.92,1945.34 1515.81,1945.25 1520.69,1944.83 1525.52,1944.08 1530.29,1942.99 1534.97,1941.57 1539.55,1939.84 1543.99,1937.79 1548.28,1935.44 1552.4,1932.81 1556.33,1929.89 1560.05,1926.71 1563.53,1923.28 1566.78,1919.62 1569.76,1915.74 1572.47,1911.67 1574.89,1907.42 1577.01,1903.01 1578.83,1898.47 1580.32,1893.81 1581.49,1889.06 1582.33,1884.24 1582.84,1879.37 1583.01,1874.48 "
         id="polyline4923" />
      <polyline
         style="vector-effect:none;fill:none;stroke:#ff0000;stroke-width:1.18110645;stroke-miterlimit:4;stroke-dasharray:none;stroke-opacity:1"
         points="2433.38,1874.48 2433.22,1869.6 2432.71,1864.73 2431.87,1859.91 2430.7,1855.16 2429.2,1850.5 2427.39,1845.96 2425.27,1841.55 2422.85,1837.3 2420.14,1833.23 2417.15,1829.35 2413.91,1825.69 2410.42,1822.26 2406.7,1819.08 2402.78,1816.16 2398.66,1813.53 2394.36,1811.18 2389.92,1809.13 2385.35,1807.4 2380.66,1805.98 2375.89,1804.89 2371.06,1804.14 2366.19,1803.72 2361.3,1803.63 2356.41,1803.88 2351.56,1804.47 2346.75,1805.4 2342.02,1806.65 2337.39,1808.23 2332.88,1810.12 2328.51,1812.32 2324.3,1814.81 2320.28,1817.59 2316.45,1820.64 2312.85,1823.95 2309.48,1827.49 2306.36,1831.26 2303.51,1835.24 2300.95,1839.41 2298.67,1843.74 2296.7,1848.22 2295.05,1852.82 2293.71,1857.53 2292.71,1862.31 2292.04,1867.16 2291.7,1872.04 2291.7,1876.93 2292.04,1881.81 2292.71,1886.66 2293.71,1891.44 2295.05,1896.15 2296.7,1900.75 2298.67,1905.23 2300.95,1909.56 2303.51,1913.73 2306.36,1917.71 2309.48,1921.48 2312.85,1925.02 2316.45,1928.33 2320.28,1931.38 2324.3,1934.16 2328.51,1936.65 2332.88,1938.85 2337.39,1940.74 2342.02,1942.32 2346.75,1943.57 2351.56,1944.5 2356.41,1945.09 2361.3,1945.34 2366.19,1945.25 2371.06,1944.83 2375.89,1944.08 2380.66,1942.99 2385.35,1941.57 2389.92,1939.84 2394.36,1937.79 2398.66,1935.44 2402.78,1932.81 2406.7,1929.89 2410.42,1926.71 2413.91,1923.28 2417.15,1919.62 2420.14,1915.74 2422.85,1911.67 2425.27,1907.42 2427.39,1903.01 2429.2,1898.47 2430.7,1893.81 2431.87,1889.06 2432.71,1884.24 2433.22,1879.37 2433.38,1874.48 "
         id="polyline4925" />
    </g>
  </g>
</svg>
