<?xml version="1.0" encoding="UTF-8" standalone="no"?>
<svg
   xmlns:dc="http://purl.org/dc/elements/1.1/"
   xmlns:cc="http://creativecommons.org/ns#"
   xmlns:rdf="http://www.w3.org/1999/02/22-rdf-syntax-ns#"
   xmlns:svg="http://www.w3.org/2000/svg"
   xmlns="http://www.w3.org/2000/svg"
   xmlns:sodipodi="http://sodipodi.sourceforge.net/DTD/sodipodi-0.dtd"
   xmlns:inkscape="http://www.inkscape.org/namespaces/inkscape"
   width="290.09979mm"
   height="300.09958mm"
   viewBox="0 0 3426.3756 3544.4833"
   version="1.2"
   id="svg74"
   sodipodi:docname="Plaque_Base_Ez_Wheel.svg"
   inkscape:version="0.92.4 (5da689c313, 2019-01-14)">
  <metadata
     id="metadata78">
    <rdf:RDF>
      <cc:Work
         rdf:about="">
        <dc:format>image/svg+xml</dc:format>
        <dc:type
           rdf:resource="http://purl.org/dc/dcmitype/StillImage" />
      </cc:Work>
    </rdf:RDF>
  </metadata>
  <sodipodi:namedview
     pagecolor="#ffffff"
     bordercolor="#666666"
     borderopacity="1"
     objecttolerance="10"
     gridtolerance="10"
     guidetolerance="10"
     inkscape:pageopacity="0"
     inkscape:pageshadow="2"
     inkscape:window-width="1920"
     inkscape:window-height="1017"
     id="namedview76"
     showgrid="false"
     inkscape:zoom="0.57843139"
     inkscape:cx="555.13931"
     inkscape:cy="479.59061"
     inkscape:window-x="-8"
     inkscape:window-y="-8"
     inkscape:window-maximized="1"
     inkscape:current-layer="g72" />
  <defs
     id="defs2" />
  <g
     id="g72"
     transform="translate(-485.09563,-375.46346)"
     style="fill:none;fill-rule:evenodd;stroke:#000000;stroke-width:1;stroke-linecap:square;stroke-linejoin:bevel">
    <g
       font-size="12"
       font-weight="400"
       font-style="normal"
       id="g8"
       style="font-style:normal;font-weight:400;font-size:12px;font-family:Arial;fill:none;stroke:#000000;stroke-width:1;stroke-linecap:square;stroke-linejoin:bevel;stroke-opacity:1" />
    <g
       stroke-miterlimit="2"
       font-size="12"
       font-weight="400"
       font-style="normal"
       id="g10"
       style="font-style:normal;font-weight:400;font-size:12px;font-family:Arial;fill:#000000;fill-opacity:1;stroke:#000000;stroke-width:1;stroke-linecap:butt;stroke-linejoin:miter;stroke-miterlimit:2;stroke-opacity:1" />
    <g
       font-size="12"
       font-weight="400"
       font-style="normal"
       id="g68"
       style="font-style:normal;font-weight:400;font-size:12px;font-family:Arial;fill:none;fill-opacity:1;stroke:#ff0000;stroke-width:1.1811024;stroke-linecap:round;stroke-linejoin:bevel;stroke-miterlimit:4;stroke-dasharray:none;stroke-opacity:1"
       transform="translate(7.6403485,-84.043833)">
      <polyline
         points="1068.6,2869.55 1074.39,2869.62 1080.19,2869.83 1085.97,2870.19 1091.75,2870.68 1097.51,2871.32 1103.26,2872.1 1108.98,2873.02 1114.68,2874.09 1120.35,2875.29 1125.99,2876.63 1131.6,2878.1 1137.17,2879.72 1142.69,2881.47 1148.18,2883.35 1153.61,2885.37 1158.99,2887.53 1164.32,2889.81 1169.59,2892.23 1174.8,2894.77 1179.95,2897.44 1185.03,2900.23 1190.04,2903.15 1194.97,2906.2 1199.83,2909.36 1204.61,2912.64 1209.31,2916.03 1213.93,2919.54 1218.45,2923.17 1222.89,2926.9 1227.23,2930.74 1231.48,2934.68 1235.63,2938.73 1239.68,2942.88 1243.62,2947.13 1247.47,2951.47 1251.2,2955.91 1254.82,2960.44 1258.33,2965.05 1261.73,2969.75 1265.01,2974.53 1268.17,2979.39 1271.21,2984.33 1274.13,2989.33 1276.92,2994.41 1279.59,2999.56 1282.14,3004.77 1284.55,3010.04 1286.84,3015.37 1288.99,3020.75 1291.01,3026.19 1292.89,3031.67 1294.65,3037.2 1296.26,3042.76 1297.74,3048.37 1299.08,3054.01 1300.28,3059.68 1301.34,3065.38 1302.26,3071.11 1303.04,3076.85 1303.68,3082.61 1304.18,3088.39 1304.53,3094.18 1304.75,3099.97 1304.82,3105.77 "
         id="polyline12"
         style="vector-effect:none;fill:none;stroke:#ff0000;stroke-width:1.1811024;stroke-miterlimit:4;stroke-dasharray:none;stroke-opacity:1" />
      <polyline
         points="478.046,2810.49 478.064,2811.94 478.117,2813.39 478.206,2814.84 478.33,2816.28 478.49,2817.72 478.685,2819.16 478.915,2820.59 479.18,2822.01 479.481,2823.43 479.816,2824.84 480.185,2826.24 480.589,2827.63 481.026,2829.02 481.498,2830.39 482.003,2831.74 482.541,2833.09 483.112,2834.42 483.716,2835.74 484.351,2837.04 485.019,2838.33 485.718,2839.6 486.448,2840.85 487.208,2842.09 487.998,2843.3 488.818,2844.5 489.667,2845.67 490.545,2846.82 491.451,2847.96 492.384,2849.06 493.344,2850.15 494.33,2851.21 495.343,2852.25 496.38,2853.26 497.442,2854.25 498.528,2855.21 499.637,2856.14 500.768,2857.05 501.922,2857.92 503.096,2858.77 504.292,2859.59 505.507,2860.38 506.74,2861.14 507.993,2861.87 509.262,2862.57 510.549,2863.24 511.852,2863.88 513.169,2864.48 514.501,2865.05 515.847,2865.59 517.206,2866.09 518.576,2866.57 519.958,2867 521.35,2867.41 522.752,2867.78 524.162,2868.11 525.58,2868.41 527.005,2868.68 528.436,2868.91 529.872,2869.1 531.312,2869.26 532.757,2869.39 534.203,2869.48 535.652,2869.53 537.101,2869.55 "
         id="polyline14"
         style="vector-effect:none;fill:none;stroke:#ff0000;stroke-width:1.1811024;stroke-miterlimit:4;stroke-dasharray:none;stroke-opacity:1" />
      <polyline
         points="537.101,460.098 535.674,460.115 534.248,460.167 532.823,460.253 531.401,460.373 529.983,460.528 528.568,460.717 527.159,460.941 525.755,461.198 524.358,461.489 522.968,461.814 521.587,462.172 520.214,462.563 518.852,462.988 517.5,463.445 516.16,463.935 514.832,464.457 513.516,465.011 512.215,465.597 510.928,466.214 509.657,466.862 508.401,467.54 507.162,468.249 505.941,468.987 504.738,469.755 503.554,470.551 502.389,471.376 501.245,472.229 500.121,473.109 499.02,474.016 497.94,474.949 496.883,475.909 495.85,476.893 494.841,477.902 493.857,478.935 492.897,479.992 491.964,481.071 491.057,482.173 490.177,483.297 489.324,484.441 488.499,485.606 487.703,486.79 486.935,487.993 486.197,489.214 485.489,490.453 484.81,491.708 484.162,492.98 483.545,494.267 482.96,495.568 482.406,496.883 481.883,498.211 481.393,499.552 480.936,500.904 480.512,502.266 480.12,503.639 479.762,505.02 479.437,506.41 479.146,507.807 478.889,509.21 478.665,510.62 478.476,512.034 478.321,513.453 478.201,514.875 478.115,516.3 478.063,517.726 478.046,519.153 "
         id="polyline16"
         style="vector-effect:none;fill:none;stroke:#ff0000;stroke-width:1.1811024;stroke-miterlimit:4;stroke-dasharray:none;stroke-opacity:1" />
      <polyline
         points="3903.24,519.153 3903.22,517.703 3903.17,516.255 3903.08,514.808 3902.96,513.364 3902.8,511.924 3902.6,510.488 3902.37,509.057 3902.11,507.632 3901.81,506.214 3901.47,504.803 3901.1,503.402 3900.7,502.01 3900.26,500.628 3899.79,499.258 3899.29,497.899 3898.75,496.553 3898.18,495.221 3897.57,493.903 3896.94,492.601 3896.27,491.314 3895.57,490.045 3894.84,488.792 3894.08,487.558 3893.29,486.343 3892.47,485.148 3891.62,483.974 3890.74,482.82 3889.84,481.689 3888.9,480.58 3887.94,479.494 3886.96,478.432 3885.95,477.394 3884.91,476.382 3883.85,475.396 3882.76,474.436 3881.65,473.502 3880.52,472.597 3879.37,471.719 3878.19,470.87 3877,470.05 3875.78,469.26 3874.55,468.499 3873.3,467.77 3872.03,467.071 3870.74,466.403 3869.44,465.768 3868.12,465.164 3866.79,464.593 3865.44,464.055 3864.08,463.55 3862.71,463.078 3861.33,462.64 3859.94,462.237 3858.54,461.867 3857.13,461.533 3855.71,461.232 3854.28,460.967 3852.85,460.737 3851.42,460.542 3849.98,460.382 3848.53,460.258 3847.09,460.169 3845.64,460.115 3844.19,460.098 "
         id="polyline18"
         style="vector-effect:none;fill:none;stroke:#ff0000;stroke-width:1.1811024;stroke-miterlimit:4;stroke-dasharray:none;stroke-opacity:1" />
      <polyline
         points="3844.19,2869.55 3845.64,2869.53 3847.09,2869.48 3848.53,2869.39 3849.98,2869.26 3851.42,2869.1 3852.85,2868.91 3854.28,2868.68 3855.71,2868.41 3857.13,2868.11 3858.54,2867.78 3859.94,2867.41 3861.33,2867 3862.71,2866.57 3864.08,2866.09 3865.44,2865.59 3866.79,2865.05 3868.12,2864.48 3869.44,2863.88 3870.74,2863.24 3872.03,2862.57 3873.3,2861.87 3874.55,2861.14 3875.78,2860.38 3877,2859.59 3878.19,2858.77 3879.37,2857.92 3880.52,2857.05 3881.65,2856.14 3882.76,2855.21 3883.85,2854.25 3884.91,2853.26 3885.95,2852.25 3886.96,2851.21 3887.94,2850.15 3888.9,2849.06 3889.84,2847.96 3890.74,2846.82 3891.62,2845.67 3892.47,2844.5 3893.29,2843.3 3894.08,2842.09 3894.84,2840.85 3895.57,2839.6 3896.27,2838.33 3896.94,2837.04 3897.57,2835.74 3898.18,2834.42 3898.75,2833.09 3899.29,2831.74 3899.79,2830.39 3900.26,2829.02 3900.7,2827.63 3901.1,2826.24 3901.47,2824.84 3901.81,2823.43 3902.11,2822.01 3902.37,2820.59 3902.6,2819.16 3902.8,2817.72 3902.96,2816.28 3903.08,2814.84 3903.17,2813.39 3903.22,2811.94 3903.24,2810.49 "
         id="polyline20"
         style="vector-effect:none;fill:none;stroke:#ff0000;stroke-width:1.1811024;stroke-miterlimit:4;stroke-dasharray:none;stroke-opacity:1" />
      <polyline
         points="3076.47,3105.77 3076.54,3099.97 3076.76,3094.18 3077.11,3088.39 3077.61,3082.61 3078.25,3076.85 3079.03,3071.11 3079.95,3065.38 3081.01,3059.68 3082.21,3054.01 3083.55,3048.37 3085.03,3042.76 3086.64,3037.2 3088.39,3031.67 3090.28,3026.19 3092.3,3020.75 3094.45,3015.37 3096.74,3010.04 3099.15,3004.77 3101.69,2999.56 3104.36,2994.41 3107.16,2989.33 3110.08,2984.33 3113.12,2979.39 3116.28,2974.53 3119.56,2969.75 3122.96,2965.05 3126.47,2960.44 3130.09,2955.91 3133.82,2951.47 3137.66,2947.13 3141.61,2942.88 3145.66,2938.73 3149.81,2934.68 3154.06,2930.74 3158.4,2926.9 3162.83,2923.17 3167.36,2919.54 3171.98,2916.03 3176.67,2912.64 3181.45,2909.36 3186.31,2906.2 3191.25,2903.15 3196.26,2900.23 3201.34,2897.44 3206.48,2894.77 3211.69,2892.23 3216.97,2889.81 3222.29,2887.53 3227.68,2885.37 3233.11,2883.35 3238.59,2881.47 3244.12,2879.72 3249.69,2878.1 3255.29,2876.63 3260.94,2875.29 3266.61,2874.09 3272.31,2873.02 3278.03,2872.1 3283.78,2871.32 3289.54,2870.68 3295.31,2870.19 3301.1,2869.83 3306.89,2869.62 3312.69,2869.55 "
         id="polyline22"
         style="vector-effect:none;fill:none;stroke:#ff0000;stroke-width:1.1811024;stroke-miterlimit:4;stroke-dasharray:none;stroke-opacity:1" />
      <polyline
         points="3076.47,3105.77 3076.47,3944.35 "
         id="polyline24"
         style="vector-effect:none;fill:none;stroke:#ff0000;stroke-width:1.1811024;stroke-miterlimit:4;stroke-dasharray:none;stroke-opacity:1" />
      <polyline
         points="3017.42,4003.4 3018.87,4003.39 3020.31,4003.33 3021.76,4003.24 3023.2,4003.12 3024.64,4002.96 3026.08,4002.77 3027.51,4002.54 3028.94,4002.27 3030.35,4001.97 3031.77,4001.63 3033.17,4001.27 3034.56,4000.86 3035.94,4000.42 3037.31,3999.95 3038.67,3999.45 3040.02,3998.91 3041.35,3998.34 3042.67,3997.73 3043.97,3997.1 3045.25,3996.43 3046.52,3995.73 3047.78,3995 3049.01,3994.24 3050.23,3993.45 3051.42,3992.63 3052.59,3991.78 3053.75,3990.91 3054.88,3990 3055.99,3989.07 3057.07,3988.11 3058.14,3987.12 3059.17,3986.11 3060.19,3985.07 3061.17,3984.01 3062.13,3982.92 3063.07,3981.81 3063.97,3980.68 3064.85,3979.53 3065.7,3978.35 3066.52,3977.16 3067.31,3975.94 3068.07,3974.71 3068.8,3973.46 3069.5,3972.19 3070.17,3970.9 3070.8,3969.6 3071.4,3968.28 3071.98,3966.95 3072.51,3965.6 3073.02,3964.24 3073.49,3962.87 3073.93,3961.49 3074.33,3960.1 3074.7,3958.7 3075.04,3957.29 3075.34,3955.87 3075.6,3954.45 3075.83,3953.01 3076.03,3951.58 3076.19,3950.14 3076.31,3948.69 3076.4,3947.25 3076.45,3945.8 3076.47,3944.35 "
         id="polyline26"
         style="vector-effect:none;fill:none;stroke:#ff0000;stroke-width:1.1811024;stroke-miterlimit:4;stroke-dasharray:none;stroke-opacity:1" />
      <polyline
         points="3017.42,4003.4 1363.87,4003.4 "
         id="polyline28"
         style="vector-effect:none;fill:none;stroke:#ff0000;stroke-width:1.1811024;stroke-miterlimit:4;stroke-dasharray:none;stroke-opacity:1" />
      <polyline
         points="1304.82,3944.35 1304.84,3945.8 1304.89,3947.25 1304.98,3948.69 1305.1,3950.14 1305.26,3951.58 1305.46,3953.01 1305.69,3954.45 1305.95,3955.87 1306.25,3957.29 1306.59,3958.7 1306.96,3960.1 1307.36,3961.49 1307.8,3962.87 1308.27,3964.24 1308.77,3965.6 1309.31,3966.95 1309.88,3968.28 1310.49,3969.6 1311.12,3970.9 1311.79,3972.19 1312.49,3973.46 1313.22,3974.71 1313.98,3975.94 1314.77,3977.16 1315.59,3978.35 1316.44,3979.53 1317.32,3980.68 1318.22,3981.81 1319.16,3982.92 1320.12,3984.01 1321.1,3985.07 1322.11,3986.11 1323.15,3987.12 1324.21,3988.11 1325.3,3989.07 1326.41,3990 1327.54,3990.91 1328.69,3991.78 1329.87,3992.63 1331.06,3993.45 1332.28,3994.24 1333.51,3995 1334.76,3995.73 1336.03,3996.43 1337.32,3997.1 1338.62,3997.73 1339.94,3998.34 1341.27,3998.91 1342.62,3999.45 1343.98,3999.95 1345.35,4000.42 1346.73,4000.86 1348.12,4001.27 1349.52,4001.63 1350.93,4001.97 1352.35,4002.27 1353.78,4002.54 1355.21,4002.77 1356.64,4002.96 1358.08,4003.12 1359.53,4003.24 1360.97,4003.33 1362.42,4003.39 1363.87,4003.4 "
         id="polyline30"
         style="vector-effect:none;fill:none;stroke:#ff0000;stroke-width:1.1811024;stroke-miterlimit:4;stroke-dasharray:none;stroke-opacity:1" />
      <polyline
         points="1304.82,3105.77 1304.82,3944.35 "
         id="polyline32"
         style="vector-effect:none;fill:none;stroke:#ff0000;stroke-width:1.1811024;stroke-miterlimit:4;stroke-dasharray:none;stroke-opacity:1" />
      <polyline
         points="646.353,554.586 646.338,553.354 646.292,552.123 646.217,550.893 646.111,549.666 645.975,548.441 645.81,547.22 645.614,546.004 645.388,544.793 645.133,543.588 644.849,542.389 644.535,541.198 644.191,540.014 643.819,538.84 643.419,537.675 642.989,536.52 642.532,535.376 642.046,534.244 641.533,533.124 640.993,532.017 640.426,530.923 639.832,529.844 639.211,528.779 638.565,527.731 637.893,526.698 637.196,525.682 636.474,524.684 635.729,523.703 634.959,522.741 634.165,521.799 633.349,520.876 632.511,519.973 631.651,519.091 630.769,518.231 629.866,517.392 628.943,516.576 628.001,515.783 627.039,515.013 626.058,514.267 625.06,513.546 624.044,512.849 623.011,512.177 621.962,511.531 620.898,510.91 619.819,510.316 618.725,509.749 617.618,509.208 616.498,508.695 615.366,508.21 614.222,507.752 613.067,507.323 611.902,506.922 610.727,506.55 609.544,506.207 608.353,505.893 607.154,505.609 605.949,505.353 604.738,505.128 603.521,504.932 602.301,504.766 601.076,504.631 599.849,504.525 598.619,504.449 597.388,504.404 596.156,504.389 594.924,504.404 593.693,504.449 592.463,504.525 591.236,504.631 590.011,504.766 588.791,504.932 587.574,505.128 586.363,505.353 585.158,505.609 583.959,505.893 582.768,506.207 581.585,506.55 580.41,506.922 579.245,507.323 578.09,507.752 576.946,508.21 575.814,508.695 574.694,509.208 573.587,509.749 572.493,510.316 571.414,510.91 570.35,511.531 569.301,512.177 568.268,512.849 567.252,513.546 566.254,514.267 565.273,515.013 564.311,515.783 563.369,516.576 562.446,517.392 561.543,518.231 560.661,519.091 559.801,519.973 558.963,520.876 558.147,521.799 557.353,522.741 556.583,523.703 555.838,524.684 555.116,525.682 554.419,526.698 553.747,527.731 553.101,528.779 552.48,529.844 551.886,530.923 551.319,532.017 550.779,533.124 550.266,534.244 549.78,535.376 549.323,536.52 548.893,537.675 548.493,538.84 548.121,540.014 547.777,541.198 547.463,542.389 547.179,543.588 546.924,544.793 546.698,546.004 546.502,547.22 546.337,548.441 546.201,549.666 546.095,550.893 546.02,552.123 545.974,553.354 545.959,554.586 545.974,555.818 546.02,557.049 546.095,558.279 546.201,559.506 546.337,560.73 546.502,561.951 546.698,563.168 546.924,564.379 547.179,565.584 547.463,566.783 547.777,567.974 548.121,569.157 548.493,570.332 548.893,571.497 549.323,572.651 549.78,573.795 550.266,574.928 550.779,576.048 551.319,577.155 551.886,578.248 552.48,579.328 553.101,580.392 553.747,581.441 554.419,582.474 555.116,583.49 555.838,584.488 556.583,585.468 557.353,586.43 558.147,587.373 558.963,588.296 559.801,589.199 560.661,590.08 561.543,590.941 562.446,591.779 563.369,592.595 564.311,593.388 565.273,594.158 566.254,594.904 567.252,595.626 568.268,596.323 569.301,596.995 570.35,597.641 571.414,598.261 572.493,598.855 573.587,599.423 574.694,599.963 575.814,600.476 576.946,600.962 578.09,601.419 579.245,601.848 580.41,602.249 581.585,602.621 582.768,602.964 583.959,603.278 585.158,603.563 586.363,603.818 587.574,604.044 588.791,604.239 590.011,604.405 591.236,604.541 592.463,604.647 593.693,604.722 594.924,604.768 596.156,604.783 597.388,604.768 598.619,604.722 599.849,604.647 601.076,604.541 602.301,604.405 603.521,604.239 604.738,604.044 605.949,603.818 607.154,603.563 608.353,603.278 609.544,602.964 610.727,602.621 611.902,602.249 613.067,601.848 614.222,601.419 615.366,600.962 616.498,600.476 617.618,599.963 618.725,599.423 619.819,598.855 620.898,598.261 621.962,597.641 623.011,596.995 624.044,596.323 625.06,595.626 626.058,594.904 627.039,594.158 628.001,593.388 628.943,592.595 629.866,591.779 630.769,590.941 631.651,590.08 632.511,589.199 633.349,588.296 634.165,587.373 634.959,586.43 635.729,585.468 636.474,584.488 637.196,583.49 637.893,582.474 638.565,581.441 639.211,580.392 639.832,579.328 640.426,578.248 640.993,577.155 641.533,576.048 642.046,574.928 642.532,573.795 642.989,572.651 643.419,571.497 643.819,570.332 644.191,569.157 644.535,567.974 644.849,566.783 645.133,565.584 645.388,564.379 645.614,563.168 645.81,561.951 645.975,560.73 646.111,559.506 646.217,558.279 646.292,557.049 646.338,555.818 646.353,554.586 "
         id="polyline34"
         style="vector-effect:none;fill:none;stroke:#ff0000;stroke-width:1.1811024;stroke-miterlimit:4;stroke-dasharray:none;stroke-opacity:1" />
      <polyline
         points="3835.33,554.586 3835.31,553.354 3835.27,552.123 3835.19,550.893 3835.09,549.666 3834.95,548.441 3834.79,547.22 3834.59,546.004 3834.36,544.793 3834.11,543.588 3833.82,542.389 3833.51,541.198 3833.17,540.014 3832.8,538.84 3832.39,537.675 3831.97,536.52 3831.51,535.376 3831.02,534.244 3830.51,533.124 3829.97,532.017 3829.4,530.923 3828.81,529.844 3828.19,528.779 3827.54,527.731 3826.87,526.698 3826.17,525.682 3825.45,524.684 3824.7,523.703 3823.94,522.741 3823.14,521.799 3822.33,520.876 3821.49,519.973 3820.63,519.091 3819.75,518.231 3818.84,517.392 3817.92,516.576 3816.98,515.783 3816.02,515.013 3815.03,514.267 3814.04,513.546 3813.02,512.849 3811.99,512.177 3810.94,511.531 3809.87,510.91 3808.8,510.316 3807.7,509.749 3806.59,509.208 3805.47,508.695 3804.34,508.21 3803.2,507.752 3802.04,507.323 3800.88,506.922 3799.7,506.55 3798.52,506.207 3797.33,505.893 3796.13,505.609 3794.93,505.353 3793.71,505.128 3792.5,504.932 3791.28,504.766 3790.05,504.631 3788.83,504.525 3787.6,504.449 3786.36,504.404 3785.13,504.389 3783.9,504.404 3782.67,504.449 3781.44,504.525 3780.21,504.631 3778.99,504.766 3777.77,504.932 3776.55,505.128 3775.34,505.353 3774.13,505.609 3772.94,505.893 3771.74,506.207 3770.56,506.55 3769.39,506.922 3768.22,507.323 3767.07,507.752 3765.92,508.21 3764.79,508.695 3763.67,509.208 3762.56,509.749 3761.47,510.316 3760.39,510.91 3759.33,511.531 3758.28,512.177 3757.24,512.849 3756.23,513.546 3755.23,514.267 3754.25,515.013 3753.29,515.783 3752.35,516.576 3751.42,517.392 3750.52,518.231 3749.64,519.091 3748.78,519.973 3747.94,520.876 3747.12,521.799 3746.33,522.741 3745.56,523.703 3744.81,524.684 3744.09,525.682 3743.4,526.698 3742.72,527.731 3742.08,528.779 3741.46,529.844 3740.86,530.923 3740.3,532.017 3739.75,533.124 3739.24,534.244 3738.76,535.376 3738.3,536.52 3737.87,537.675 3737.47,538.84 3737.1,540.014 3736.75,541.198 3736.44,542.389 3736.16,543.588 3735.9,544.793 3735.67,546.004 3735.48,547.22 3735.31,548.441 3735.18,549.666 3735.07,550.893 3735,552.123 3734.95,553.354 3734.94,554.586 3734.95,555.818 3735,557.049 3735.07,558.279 3735.18,559.506 3735.31,560.73 3735.48,561.951 3735.67,563.168 3735.9,564.379 3736.16,565.584 3736.44,566.783 3736.75,567.974 3737.1,569.157 3737.47,570.332 3737.87,571.497 3738.3,572.651 3738.76,573.795 3739.24,574.928 3739.75,576.048 3740.3,577.155 3740.86,578.248 3741.46,579.328 3742.08,580.392 3742.72,581.441 3743.4,582.474 3744.09,583.49 3744.81,584.488 3745.56,585.468 3746.33,586.43 3747.12,587.373 3747.94,588.296 3748.78,589.199 3749.64,590.08 3750.52,590.941 3751.42,591.779 3752.35,592.595 3753.29,593.388 3754.25,594.158 3755.23,594.904 3756.23,595.626 3757.24,596.323 3758.28,596.995 3759.33,597.641 3760.39,598.261 3761.47,598.855 3762.56,599.423 3763.67,599.963 3764.79,600.476 3765.92,600.962 3767.07,601.419 3768.22,601.848 3769.39,602.249 3770.56,602.621 3771.74,602.964 3772.94,603.278 3774.13,603.563 3775.34,603.818 3776.55,604.044 3777.77,604.239 3778.99,604.405 3780.21,604.541 3781.44,604.647 3782.67,604.722 3783.9,604.768 3785.13,604.783 3786.36,604.768 3787.6,604.722 3788.83,604.647 3790.05,604.541 3791.28,604.405 3792.5,604.239 3793.71,604.044 3794.93,603.818 3796.13,603.563 3797.33,603.278 3798.52,602.964 3799.7,602.621 3800.88,602.249 3802.04,601.848 3803.2,601.419 3804.34,600.962 3805.47,600.476 3806.59,599.963 3807.7,599.423 3808.8,598.855 3809.87,598.261 3810.94,597.641 3811.99,596.995 3813.02,596.323 3814.04,595.626 3815.03,594.904 3816.02,594.158 3816.98,593.388 3817.92,592.595 3818.84,591.779 3819.75,590.941 3820.63,590.08 3821.49,589.199 3822.33,588.296 3823.14,587.373 3823.94,586.43 3824.7,585.468 3825.45,584.488 3826.17,583.49 3826.87,582.474 3827.54,581.441 3828.19,580.392 3828.81,579.328 3829.4,578.248 3829.97,577.155 3830.51,576.048 3831.02,574.928 3831.51,573.795 3831.97,572.651 3832.39,571.497 3832.8,570.332 3833.17,569.157 3833.51,567.974 3833.82,566.783 3834.11,565.584 3834.36,564.379 3834.59,563.168 3834.79,561.951 3834.95,560.73 3835.09,559.506 3835.19,558.279 3835.27,557.049 3835.31,555.818 3835.33,554.586 "
         id="polyline36"
         style="vector-effect:none;fill:none;stroke:#ff0000;stroke-width:1.1811024;stroke-miterlimit:4;stroke-dasharray:none;stroke-opacity:1" />
      <polyline
         points="3835.33,2775.06 3835.31,2773.83 3835.27,2772.6 3835.19,2771.37 3835.09,2770.14 3834.95,2768.91 3834.79,2767.69 3834.59,2766.48 3834.36,2765.27 3834.11,2764.06 3833.82,2762.86 3833.51,2761.67 3833.17,2760.49 3832.8,2759.31 3832.39,2758.15 3831.97,2756.99 3831.51,2755.85 3831.02,2754.72 3830.51,2753.6 3829.97,2752.49 3829.4,2751.4 3828.81,2750.32 3828.19,2749.25 3827.54,2748.2 3826.87,2747.17 3826.17,2746.15 3825.45,2745.16 3824.7,2744.18 3823.94,2743.21 3823.14,2742.27 3822.33,2741.35 3821.49,2740.45 3820.63,2739.56 3819.75,2738.7 3818.84,2737.86 3817.92,2737.05 3816.98,2736.26 3816.02,2735.49 3815.03,2734.74 3814.04,2734.02 3813.02,2733.32 3811.99,2732.65 3810.94,2732 3809.87,2731.38 3808.8,2730.79 3807.7,2730.22 3806.59,2729.68 3805.47,2729.17 3804.34,2728.68 3803.2,2728.22 3802.04,2727.8 3800.88,2727.39 3799.7,2727.02 3798.52,2726.68 3797.33,2726.37 3796.13,2726.08 3794.93,2725.83 3793.71,2725.6 3792.5,2725.4 3791.28,2725.24 3790.05,2725.1 3788.83,2725 3787.6,2724.92 3786.36,2724.88 3785.13,2724.86 3783.9,2724.88 3782.67,2724.92 3781.44,2725 3780.21,2725.1 3778.99,2725.24 3777.77,2725.4 3776.55,2725.6 3775.34,2725.83 3774.13,2726.08 3772.94,2726.37 3771.74,2726.68 3770.56,2727.02 3769.39,2727.39 3768.22,2727.8 3767.07,2728.22 3765.92,2728.68 3764.79,2729.17 3763.67,2729.68 3762.56,2730.22 3761.47,2730.79 3760.39,2731.38 3759.33,2732 3758.28,2732.65 3757.24,2733.32 3756.23,2734.02 3755.23,2734.74 3754.25,2735.49 3753.29,2736.26 3752.35,2737.05 3751.42,2737.86 3750.52,2738.7 3749.64,2739.56 3748.78,2740.45 3747.94,2741.35 3747.12,2742.27 3746.33,2743.21 3745.56,2744.18 3744.81,2745.16 3744.09,2746.15 3743.4,2747.17 3742.72,2748.2 3742.08,2749.25 3741.46,2750.32 3740.86,2751.4 3740.3,2752.49 3739.75,2753.6 3739.24,2754.72 3738.76,2755.85 3738.3,2756.99 3737.87,2758.15 3737.47,2759.31 3737.1,2760.49 3736.75,2761.67 3736.44,2762.86 3736.16,2764.06 3735.9,2765.27 3735.67,2766.48 3735.48,2767.69 3735.31,2768.91 3735.18,2770.14 3735.07,2771.37 3735,2772.6 3734.95,2773.83 3734.94,2775.06 3734.95,2776.29 3735,2777.52 3735.07,2778.75 3735.18,2779.98 3735.31,2781.2 3735.48,2782.42 3735.67,2783.64 3735.9,2784.85 3736.16,2786.06 3736.44,2787.26 3736.75,2788.45 3737.1,2789.63 3737.47,2790.8 3737.87,2791.97 3738.3,2793.12 3738.76,2794.27 3739.24,2795.4 3739.75,2796.52 3740.3,2797.63 3740.86,2798.72 3741.46,2799.8 3742.08,2800.86 3742.72,2801.91 3743.4,2802.95 3744.09,2803.96 3744.81,2804.96 3745.56,2805.94 3746.33,2806.9 3747.12,2807.85 3747.94,2808.77 3748.78,2809.67 3749.64,2810.55 3750.52,2811.41 3751.42,2812.25 3752.35,2813.07 3753.29,2813.86 3754.25,2814.63 3755.23,2815.38 3756.23,2816.1 3757.24,2816.8 3758.28,2817.47 3759.33,2818.11 3760.39,2818.73 3761.47,2819.33 3762.56,2819.9 3763.67,2820.44 3764.79,2820.95 3765.92,2821.43 3767.07,2821.89 3768.22,2822.32 3769.39,2822.72 3770.56,2823.09 3771.74,2823.44 3772.94,2823.75 3774.13,2824.04 3775.34,2824.29 3776.55,2824.52 3777.77,2824.71 3778.99,2824.88 3780.21,2825.01 3781.44,2825.12 3782.67,2825.19 3783.9,2825.24 3785.13,2825.26 3786.36,2825.24 3787.6,2825.19 3788.83,2825.12 3790.05,2825.01 3791.28,2824.88 3792.5,2824.71 3793.71,2824.52 3794.93,2824.29 3796.13,2824.04 3797.33,2823.75 3798.52,2823.44 3799.7,2823.09 3800.88,2822.72 3802.04,2822.32 3803.2,2821.89 3804.34,2821.43 3805.47,2820.95 3806.59,2820.44 3807.7,2819.9 3808.8,2819.33 3809.87,2818.73 3810.94,2818.11 3811.99,2817.47 3813.02,2816.8 3814.04,2816.1 3815.03,2815.38 3816.02,2814.63 3816.98,2813.86 3817.92,2813.07 3818.84,2812.25 3819.75,2811.41 3820.63,2810.55 3821.49,2809.67 3822.33,2808.77 3823.14,2807.85 3823.94,2806.9 3824.7,2805.94 3825.45,2804.96 3826.17,2803.96 3826.87,2802.95 3827.54,2801.91 3828.19,2800.86 3828.81,2799.8 3829.4,2798.72 3829.97,2797.63 3830.51,2796.52 3831.02,2795.4 3831.51,2794.27 3831.97,2793.12 3832.39,2791.97 3832.8,2790.8 3833.17,2789.63 3833.51,2788.45 3833.82,2787.26 3834.11,2786.06 3834.36,2784.85 3834.59,2783.64 3834.79,2782.42 3834.95,2781.2 3835.09,2779.98 3835.19,2778.75 3835.27,2777.52 3835.31,2776.29 3835.33,2775.06 "
         id="polyline38"
         style="vector-effect:none;fill:none;stroke:#ff0000;stroke-width:1.1811024;stroke-miterlimit:4;stroke-dasharray:none;stroke-opacity:1" />
      <polyline
         points="646.353,2775.06 646.338,2773.83 646.292,2772.6 646.217,2771.37 646.111,2770.14 645.975,2768.91 645.81,2767.69 645.614,2766.48 645.388,2765.27 645.133,2764.06 644.849,2762.86 644.535,2761.67 644.191,2760.49 643.819,2759.31 643.419,2758.15 642.989,2756.99 642.532,2755.85 642.046,2754.72 641.533,2753.6 640.993,2752.49 640.426,2751.4 639.832,2750.32 639.211,2749.25 638.565,2748.2 637.893,2747.17 637.196,2746.15 636.474,2745.16 635.729,2744.18 634.959,2743.21 634.165,2742.27 633.349,2741.35 632.511,2740.45 631.651,2739.56 630.769,2738.7 629.866,2737.86 628.943,2737.05 628.001,2736.26 627.039,2735.49 626.058,2734.74 625.06,2734.02 624.044,2733.32 623.011,2732.65 621.962,2732 620.898,2731.38 619.819,2730.79 618.725,2730.22 617.618,2729.68 616.498,2729.17 615.366,2728.68 614.222,2728.22 613.067,2727.8 611.902,2727.39 610.727,2727.02 609.544,2726.68 608.353,2726.37 607.154,2726.08 605.949,2725.83 604.738,2725.6 603.521,2725.4 602.301,2725.24 601.076,2725.1 599.849,2725 598.619,2724.92 597.388,2724.88 596.156,2724.86 594.924,2724.88 593.693,2724.92 592.463,2725 591.236,2725.1 590.011,2725.24 588.791,2725.4 587.574,2725.6 586.363,2725.83 585.158,2726.08 583.959,2726.37 582.768,2726.68 581.585,2727.02 580.41,2727.39 579.245,2727.8 578.09,2728.22 576.946,2728.68 575.814,2729.17 574.694,2729.68 573.587,2730.22 572.493,2730.79 571.414,2731.38 570.35,2732 569.301,2732.65 568.268,2733.32 567.252,2734.02 566.254,2734.74 565.273,2735.49 564.311,2736.26 563.369,2737.05 562.446,2737.86 561.543,2738.7 560.661,2739.56 559.801,2740.45 558.963,2741.35 558.147,2742.27 557.353,2743.21 556.583,2744.18 555.838,2745.16 555.116,2746.15 554.419,2747.17 553.747,2748.2 553.101,2749.25 552.48,2750.32 551.886,2751.4 551.319,2752.49 550.779,2753.6 550.266,2754.72 549.78,2755.85 549.323,2756.99 548.893,2758.15 548.493,2759.31 548.121,2760.49 547.777,2761.67 547.463,2762.86 547.179,2764.06 546.924,2765.27 546.698,2766.48 546.502,2767.69 546.337,2768.91 546.201,2770.14 546.095,2771.37 546.02,2772.6 545.974,2773.83 545.959,2775.06 545.974,2776.29 546.02,2777.52 546.095,2778.75 546.201,2779.98 546.337,2781.2 546.502,2782.42 546.698,2783.64 546.924,2784.85 547.179,2786.06 547.463,2787.26 547.777,2788.45 548.121,2789.63 548.493,2790.8 548.893,2791.97 549.323,2793.12 549.78,2794.27 550.266,2795.4 550.779,2796.52 551.319,2797.63 551.886,2798.72 552.48,2799.8 553.101,2800.86 553.747,2801.91 554.419,2802.95 555.116,2803.96 555.838,2804.96 556.583,2805.94 557.353,2806.9 558.147,2807.85 558.963,2808.77 559.801,2809.67 560.661,2810.55 561.543,2811.41 562.446,2812.25 563.369,2813.07 564.311,2813.86 565.273,2814.63 566.254,2815.38 567.252,2816.1 568.268,2816.8 569.301,2817.47 570.35,2818.11 571.414,2818.73 572.493,2819.33 573.587,2819.9 574.694,2820.44 575.814,2820.95 576.946,2821.43 578.09,2821.89 579.245,2822.32 580.41,2822.72 581.585,2823.09 582.768,2823.44 583.959,2823.75 585.158,2824.04 586.363,2824.29 587.574,2824.52 588.791,2824.71 590.011,2824.88 591.236,2825.01 592.463,2825.12 593.693,2825.19 594.924,2825.24 596.156,2825.26 597.388,2825.24 598.619,2825.19 599.849,2825.12 601.076,2825.01 602.301,2824.88 603.521,2824.71 604.738,2824.52 605.949,2824.29 607.154,2824.04 608.353,2823.75 609.544,2823.44 610.727,2823.09 611.902,2822.72 613.067,2822.32 614.222,2821.89 615.366,2821.43 616.498,2820.95 617.618,2820.44 618.725,2819.9 619.819,2819.33 620.898,2818.73 621.962,2818.11 623.011,2817.47 624.044,2816.8 625.06,2816.1 626.058,2815.38 627.039,2814.63 628.001,2813.86 628.943,2813.07 629.866,2812.25 630.769,2811.41 631.651,2810.55 632.511,2809.67 633.349,2808.77 634.165,2807.85 634.959,2806.9 635.729,2805.94 636.474,2804.96 637.196,2803.96 637.893,2802.95 638.565,2801.91 639.211,2800.86 639.832,2799.8 640.426,2798.72 640.993,2797.63 641.533,2796.52 642.046,2795.4 642.532,2794.27 642.989,2793.12 643.419,2791.97 643.819,2790.8 644.191,2789.63 644.535,2788.45 644.849,2787.26 645.133,2786.06 645.388,2784.85 645.614,2783.64 645.81,2782.42 645.975,2781.2 646.111,2779.98 646.217,2778.75 646.292,2777.52 646.338,2776.29 646.353,2775.06 "
         id="polyline40"
         style="vector-effect:none;fill:none;stroke:#ff0000;stroke-width:1.1811024;stroke-miterlimit:4;stroke-dasharray:none;stroke-opacity:1" />
      <polyline
         points="1092.22,554.586 1092.2,552.847 1092.13,551.109 1092.03,549.373 1091.88,547.64 1091.69,545.911 1091.45,544.188 1091.18,542.47 1090.86,540.76 1090.5,539.059 1090.1,537.367 1089.65,535.685 1089.17,534.014 1088.64,532.356 1088.08,530.712 1087.47,529.081 1086.82,527.466 1086.14,525.868 1085.42,524.287 1084.65,522.724 1083.85,521.18 1083.01,519.656 1082.14,518.153 1081.22,516.673 1080.28,515.215 1079.29,513.78 1078.27,512.371 1077.22,510.987 1076.13,509.629 1075.01,508.298 1073.86,506.995 1072.68,505.721 1071.46,504.476 1070.22,503.261 1068.94,502.077 1067.64,500.925 1066.31,499.806 1064.95,498.719 1063.57,497.666 1062.16,496.647 1060.72,495.663 1059.27,494.714 1057.79,493.802 1056.28,492.926 1054.76,492.087 1053.22,491.286 1051.65,490.524 1050.07,489.799 1048.47,489.114 1046.86,488.468 1045.23,487.862 1043.58,487.296 1041.92,486.771 1040.25,486.287 1038.57,485.843 1036.88,485.442 1035.18,485.081 1033.47,484.763 1031.75,484.487 1030.03,484.253 1028.3,484.061 1026.57,483.912 1024.83,483.805 1023.09,483.741 1021.35,483.72 1019.61,483.741 1017.88,483.805 1016.14,483.912 1014.41,484.061 1012.68,484.253 1010.95,484.487 1009.24,484.763 1007.53,485.081 1005.83,485.442 1004.13,485.843 1002.45,486.287 1000.78,486.771 999.123,487.296 997.479,487.862 995.848,488.468 994.234,489.114 992.635,489.799 991.054,490.524 989.491,491.286 987.947,492.087 986.423,492.926 984.92,493.802 983.44,494.714 981.982,495.663 980.548,496.647 979.138,497.666 977.754,498.719 976.396,499.806 975.065,500.925 973.762,502.077 972.488,503.261 971.243,504.476 970.028,505.721 968.845,506.995 967.692,508.298 966.573,509.629 965.486,510.987 964.433,512.371 963.414,513.78 962.43,515.215 961.481,516.673 960.569,518.153 959.693,519.656 958.854,521.18 958.053,522.724 957.291,524.287 956.566,525.868 955.881,527.466 955.235,529.081 954.629,530.712 954.063,532.356 953.538,534.014 953.054,535.685 952.61,537.367 952.209,539.059 951.848,540.76 951.53,542.47 951.254,544.188 951.02,545.911 950.828,547.64 950.679,549.373 950.572,551.109 950.508,552.847 950.487,554.586 950.508,556.325 950.572,558.063 950.679,559.799 950.828,561.532 951.02,563.261 951.254,564.984 951.53,566.701 951.848,568.411 952.209,570.113 952.61,571.805 953.054,573.487 953.538,575.157 954.063,576.815 954.629,578.46 955.235,580.09 955.881,581.705 956.566,583.304 957.291,584.885 958.053,586.448 958.854,587.992 959.693,589.516 960.569,591.018 961.481,592.499 962.43,593.957 963.414,595.391 964.433,596.801 965.486,598.185 966.573,599.543 967.692,600.874 968.845,602.177 970.028,603.451 971.243,604.696 972.488,605.91 973.762,607.094 975.065,608.246 976.396,609.366 977.754,610.453 979.138,611.506 980.548,612.525 981.982,613.509 983.44,614.457 984.92,615.37 986.423,616.246 987.947,617.084 989.491,617.885 991.054,618.648 992.635,619.372 994.234,620.058 995.848,620.703 997.479,621.309 999.123,621.875 1000.78,622.4 1002.45,622.885 1004.13,623.328 1005.83,623.73 1007.53,624.09 1009.24,624.409 1010.95,624.685 1012.68,624.919 1014.41,625.111 1016.14,625.26 1017.88,625.367 1019.61,625.431 1021.35,625.452 1023.09,625.431 1024.83,625.367 1026.57,625.26 1028.3,625.111 1030.03,624.919 1031.75,624.685 1033.47,624.409 1035.18,624.09 1036.88,623.73 1038.57,623.328 1040.25,622.885 1041.92,622.4 1043.58,621.875 1045.23,621.309 1046.86,620.703 1048.47,620.058 1050.07,619.372 1051.65,618.648 1053.22,617.885 1054.76,617.084 1056.28,616.246 1057.79,615.37 1059.27,614.457 1060.72,613.509 1062.16,612.525 1063.57,611.506 1064.95,610.453 1066.31,609.366 1067.64,608.246 1068.94,607.094 1070.22,605.91 1071.46,604.696 1072.68,603.451 1073.86,602.177 1075.01,600.874 1076.13,599.543 1077.22,598.185 1078.27,596.801 1079.29,595.391 1080.28,593.957 1081.22,592.499 1082.14,591.018 1083.01,589.516 1083.85,587.992 1084.65,586.448 1085.42,584.885 1086.14,583.304 1086.82,581.705 1087.47,580.09 1088.08,578.46 1088.64,576.815 1089.17,575.157 1089.65,573.487 1090.1,571.805 1090.5,570.113 1090.86,568.411 1091.18,566.701 1091.45,564.984 1091.69,563.261 1091.88,561.532 1092.03,559.799 1092.13,558.063 1092.2,556.325 1092.22,554.586 "
         id="polyline42"
         style="vector-effect:none;fill:none;stroke:#ff0000;stroke-width:1.1811024;stroke-miterlimit:4;stroke-dasharray:none;stroke-opacity:1" />
      <polyline
         points="1942.61,2420.73 1942.59,2418.99 1942.53,2417.25 1942.42,2415.51 1942.27,2413.78 1942.08,2412.05 1941.85,2410.33 1941.57,2408.61 1941.25,2406.9 1940.89,2405.2 1940.49,2403.51 1940.05,2401.83 1939.56,2400.16 1939.04,2398.5 1938.47,2396.85 1937.86,2395.22 1937.22,2393.61 1936.53,2392.01 1935.81,2390.43 1935.05,2388.87 1934.24,2387.32 1933.41,2385.8 1932.53,2384.3 1931.62,2382.81 1930.67,2381.36 1929.69,2379.92 1928.67,2378.51 1927.61,2377.13 1926.53,2375.77 1925.41,2374.44 1924.25,2373.14 1923.07,2371.86 1921.86,2370.62 1920.61,2369.4 1919.34,2368.22 1918.03,2367.07 1916.7,2365.95 1915.35,2364.86 1913.96,2363.81 1912.55,2362.79 1911.12,2361.8 1909.66,2360.86 1908.18,2359.94 1906.68,2359.07 1905.15,2358.23 1903.61,2357.43 1902.05,2356.67 1900.46,2355.94 1898.87,2355.26 1897.25,2354.61 1895.62,2354 1893.98,2353.44 1892.32,2352.91 1890.65,2352.43 1888.97,2351.99 1887.27,2351.58 1885.57,2351.22 1883.86,2350.9 1882.14,2350.63 1880.42,2350.39 1878.69,2350.2 1876.96,2350.05 1875.22,2349.95 1873.49,2349.88 1871.75,2349.86 1870.01,2349.88 1868.27,2349.95 1866.53,2350.05 1864.8,2350.2 1863.07,2350.39 1861.35,2350.63 1859.63,2350.9 1857.92,2351.22 1856.22,2351.58 1854.53,2351.99 1852.85,2352.43 1851.18,2352.91 1849.52,2353.44 1847.87,2354 1846.24,2354.61 1844.63,2355.26 1843.03,2355.94 1841.45,2356.67 1839.88,2357.43 1838.34,2358.23 1836.82,2359.07 1835.31,2359.94 1833.83,2360.86 1832.38,2361.8 1830.94,2362.79 1829.53,2363.81 1828.15,2364.86 1826.79,2365.95 1825.46,2367.07 1824.16,2368.22 1822.88,2369.4 1821.64,2370.62 1820.42,2371.86 1819.24,2373.14 1818.09,2374.44 1816.97,2375.77 1815.88,2377.13 1814.83,2378.51 1813.81,2379.92 1812.82,2381.36 1811.88,2382.81 1810.96,2384.3 1810.09,2385.8 1809.25,2387.32 1808.45,2388.87 1807.68,2390.43 1806.96,2392.01 1806.27,2393.61 1805.63,2395.22 1805.02,2396.85 1804.46,2398.5 1803.93,2400.16 1803.45,2401.83 1803,2403.51 1802.6,2405.2 1802.24,2406.9 1801.92,2408.61 1801.65,2410.33 1801.41,2412.05 1801.22,2413.78 1801.07,2415.51 1800.97,2417.25 1800.9,2418.99 1800.88,2420.73 1800.9,2422.47 1800.97,2424.2 1801.07,2425.94 1801.22,2427.67 1801.41,2429.4 1801.65,2431.13 1801.92,2432.84 1802.24,2434.55 1802.6,2436.25 1803,2437.95 1803.45,2439.63 1803.93,2441.3 1804.46,2442.96 1805.02,2444.6 1805.63,2446.23 1806.27,2447.85 1806.96,2449.45 1807.68,2451.03 1808.45,2452.59 1809.25,2454.13 1810.09,2455.66 1810.96,2457.16 1811.88,2458.64 1812.82,2460.1 1813.81,2461.53 1814.83,2462.94 1815.88,2464.33 1816.97,2465.68 1818.09,2467.02 1819.24,2468.32 1820.42,2469.59 1821.64,2470.84 1822.88,2472.05 1824.16,2473.24 1825.46,2474.39 1826.79,2475.51 1828.15,2476.59 1829.53,2477.65 1830.94,2478.67 1832.38,2479.65 1833.83,2480.6 1835.31,2481.51 1836.82,2482.39 1838.34,2483.23 1839.88,2484.03 1841.45,2484.79 1843.03,2485.51 1844.63,2486.2 1846.24,2486.85 1847.87,2487.45 1849.52,2488.02 1851.18,2488.54 1852.85,2489.03 1854.53,2489.47 1856.22,2489.87 1857.92,2490.23 1859.63,2490.55 1861.35,2490.83 1863.07,2491.06 1864.8,2491.25 1866.53,2491.4 1868.27,2491.51 1870.01,2491.57 1871.75,2491.59 1873.49,2491.57 1875.22,2491.51 1876.96,2491.4 1878.69,2491.25 1880.42,2491.06 1882.14,2490.83 1883.86,2490.55 1885.57,2490.23 1887.27,2489.87 1888.97,2489.47 1890.65,2489.03 1892.32,2488.54 1893.98,2488.02 1895.62,2487.45 1897.25,2486.85 1898.87,2486.2 1900.46,2485.51 1902.05,2484.79 1903.61,2484.03 1905.15,2483.23 1906.68,2482.39 1908.18,2481.51 1909.66,2480.6 1911.12,2479.65 1912.55,2478.67 1913.96,2477.65 1915.35,2476.59 1916.7,2475.51 1918.03,2474.39 1919.34,2473.24 1920.61,2472.05 1921.86,2470.84 1923.07,2469.59 1924.25,2468.32 1925.41,2467.02 1926.53,2465.68 1927.61,2464.33 1928.67,2462.94 1929.69,2461.53 1930.67,2460.1 1931.62,2458.64 1932.53,2457.16 1933.41,2455.66 1934.24,2454.13 1935.05,2452.59 1935.81,2451.03 1936.53,2449.45 1937.22,2447.85 1937.86,2446.23 1938.47,2444.6 1939.04,2442.96 1939.56,2441.3 1940.05,2439.63 1940.49,2437.95 1940.89,2436.25 1941.25,2434.55 1941.57,2432.84 1941.85,2431.13 1942.08,2429.4 1942.27,2427.67 1942.42,2425.94 1942.53,2424.2 1942.59,2422.47 1942.61,2420.73 "
         id="polyline44"
         style="vector-effect:none;fill:none;stroke:#ff0000;stroke-width:1.1811024;stroke-miterlimit:4;stroke-dasharray:none;stroke-opacity:1" />
      <polyline
         points="1092.22,2420.73 1092.2,2418.99 1092.13,2417.25 1092.03,2415.51 1091.88,2413.78 1091.69,2412.05 1091.45,2410.33 1091.18,2408.61 1090.86,2406.9 1090.5,2405.2 1090.1,2403.51 1089.65,2401.83 1089.17,2400.16 1088.64,2398.5 1088.08,2396.85 1087.47,2395.22 1086.82,2393.61 1086.14,2392.01 1085.42,2390.43 1084.65,2388.87 1083.85,2387.32 1083.01,2385.8 1082.14,2384.3 1081.22,2382.81 1080.28,2381.36 1079.29,2379.92 1078.27,2378.51 1077.22,2377.13 1076.13,2375.77 1075.01,2374.44 1073.86,2373.14 1072.68,2371.86 1071.46,2370.62 1070.22,2369.4 1068.94,2368.22 1067.64,2367.07 1066.31,2365.95 1064.95,2364.86 1063.57,2363.81 1062.16,2362.79 1060.72,2361.8 1059.27,2360.86 1057.79,2359.94 1056.28,2359.07 1054.76,2358.23 1053.22,2357.43 1051.65,2356.67 1050.07,2355.94 1048.47,2355.26 1046.86,2354.61 1045.23,2354 1043.58,2353.44 1041.92,2352.91 1040.25,2352.43 1038.57,2351.99 1036.88,2351.58 1035.18,2351.22 1033.47,2350.9 1031.75,2350.63 1030.03,2350.39 1028.3,2350.2 1026.57,2350.05 1024.83,2349.95 1023.09,2349.88 1021.35,2349.86 1019.61,2349.88 1017.88,2349.95 1016.14,2350.05 1014.41,2350.2 1012.68,2350.39 1010.95,2350.63 1009.24,2350.9 1007.53,2351.22 1005.83,2351.58 1004.13,2351.99 1002.45,2352.43 1000.78,2352.91 999.123,2353.44 997.479,2354 995.848,2354.61 994.234,2355.26 992.635,2355.94 991.054,2356.67 989.491,2357.43 987.947,2358.23 986.423,2359.07 984.92,2359.94 983.44,2360.86 981.982,2361.8 980.548,2362.79 979.138,2363.81 977.754,2364.86 976.396,2365.95 975.065,2367.07 973.762,2368.22 972.488,2369.4 971.243,2370.62 970.028,2371.86 968.845,2373.14 967.692,2374.44 966.573,2375.77 965.486,2377.13 964.433,2378.51 963.414,2379.92 962.43,2381.36 961.481,2382.81 960.569,2384.3 959.693,2385.8 958.854,2387.32 958.053,2388.87 957.291,2390.43 956.566,2392.01 955.881,2393.61 955.235,2395.22 954.629,2396.85 954.063,2398.5 953.538,2400.16 953.054,2401.83 952.61,2403.51 952.209,2405.2 951.848,2406.9 951.53,2408.61 951.254,2410.33 951.02,2412.05 950.828,2413.78 950.679,2415.51 950.572,2417.25 950.508,2418.99 950.487,2420.73 950.508,2422.47 950.572,2424.2 950.679,2425.94 950.828,2427.67 951.02,2429.4 951.254,2431.13 951.53,2432.84 951.848,2434.55 952.209,2436.25 952.61,2437.95 953.054,2439.63 953.538,2441.3 954.063,2442.96 954.629,2444.6 955.235,2446.23 955.881,2447.85 956.566,2449.45 957.291,2451.03 958.053,2452.59 958.854,2454.13 959.693,2455.66 960.569,2457.16 961.481,2458.64 962.43,2460.1 963.414,2461.53 964.433,2462.94 965.486,2464.33 966.573,2465.68 967.692,2467.02 968.845,2468.32 970.028,2469.59 971.243,2470.84 972.488,2472.05 973.762,2473.24 975.065,2474.39 976.396,2475.51 977.754,2476.59 979.138,2477.65 980.548,2478.67 981.982,2479.65 983.44,2480.6 984.92,2481.51 986.423,2482.39 987.947,2483.23 989.491,2484.03 991.054,2484.79 992.635,2485.51 994.234,2486.2 995.848,2486.85 997.479,2487.45 999.123,2488.02 1000.78,2488.54 1002.45,2489.03 1004.13,2489.47 1005.83,2489.87 1007.53,2490.23 1009.24,2490.55 1010.95,2490.83 1012.68,2491.06 1014.41,2491.25 1016.14,2491.4 1017.88,2491.51 1019.61,2491.57 1021.35,2491.59 1023.09,2491.57 1024.83,2491.51 1026.57,2491.4 1028.3,2491.25 1030.03,2491.06 1031.75,2490.83 1033.47,2490.55 1035.18,2490.23 1036.88,2489.87 1038.57,2489.47 1040.25,2489.03 1041.92,2488.54 1043.58,2488.02 1045.23,2487.45 1046.86,2486.85 1048.47,2486.2 1050.07,2485.51 1051.65,2484.79 1053.22,2484.03 1054.76,2483.23 1056.28,2482.39 1057.79,2481.51 1059.27,2480.6 1060.72,2479.65 1062.16,2478.67 1063.57,2477.65 1064.95,2476.59 1066.31,2475.51 1067.64,2474.39 1068.94,2473.24 1070.22,2472.05 1071.46,2470.84 1072.68,2469.59 1073.86,2468.32 1075.01,2467.02 1076.13,2465.68 1077.22,2464.33 1078.27,2462.94 1079.29,2461.53 1080.28,2460.1 1081.22,2458.64 1082.14,2457.16 1083.01,2455.66 1083.85,2454.13 1084.65,2452.59 1085.42,2451.03 1086.14,2449.45 1086.82,2447.85 1087.47,2446.23 1088.08,2444.6 1088.64,2442.96 1089.17,2441.3 1089.65,2439.63 1090.1,2437.95 1090.5,2436.25 1090.86,2434.55 1091.18,2432.84 1091.45,2431.13 1091.69,2429.4 1091.88,2427.67 1092.03,2425.94 1092.13,2424.2 1092.2,2422.47 1092.22,2420.73 "
         id="polyline46"
         style="vector-effect:none;fill:none;stroke:#ff0000;stroke-width:1.1811024;stroke-miterlimit:4;stroke-dasharray:none;stroke-opacity:1" />
      <polyline
         points="1942.61,554.586 1942.59,552.847 1942.53,551.109 1942.42,549.373 1942.27,547.64 1942.08,545.911 1941.85,544.188 1941.57,542.47 1941.25,540.76 1940.89,539.059 1940.49,537.367 1940.05,535.685 1939.56,534.014 1939.04,532.356 1938.47,530.712 1937.86,529.081 1937.22,527.466 1936.53,525.868 1935.81,524.287 1935.05,522.724 1934.24,521.18 1933.41,519.656 1932.53,518.153 1931.62,516.673 1930.67,515.215 1929.69,513.78 1928.67,512.371 1927.61,510.987 1926.53,509.629 1925.41,508.298 1924.25,506.995 1923.07,505.721 1921.86,504.476 1920.61,503.261 1919.34,502.077 1918.03,500.925 1916.7,499.806 1915.35,498.719 1913.96,497.666 1912.55,496.647 1911.12,495.663 1909.66,494.714 1908.18,493.802 1906.68,492.926 1905.15,492.087 1903.61,491.286 1902.05,490.524 1900.46,489.799 1898.87,489.114 1897.25,488.468 1895.62,487.862 1893.98,487.296 1892.32,486.771 1890.65,486.287 1888.97,485.843 1887.27,485.442 1885.57,485.081 1883.86,484.763 1882.14,484.487 1880.42,484.253 1878.69,484.061 1876.96,483.912 1875.22,483.805 1873.49,483.741 1871.75,483.72 1870.01,483.741 1868.27,483.805 1866.53,483.912 1864.8,484.061 1863.07,484.253 1861.35,484.487 1859.63,484.763 1857.92,485.081 1856.22,485.442 1854.53,485.843 1852.85,486.287 1851.18,486.771 1849.52,487.296 1847.87,487.862 1846.24,488.468 1844.63,489.114 1843.03,489.799 1841.45,490.524 1839.88,491.286 1838.34,492.087 1836.82,492.926 1835.31,493.802 1833.83,494.714 1832.38,495.663 1830.94,496.647 1829.53,497.666 1828.15,498.719 1826.79,499.806 1825.46,500.925 1824.16,502.077 1822.88,503.261 1821.64,504.476 1820.42,505.721 1819.24,506.995 1818.09,508.298 1816.97,509.629 1815.88,510.987 1814.83,512.371 1813.81,513.78 1812.82,515.215 1811.88,516.673 1810.96,518.153 1810.09,519.656 1809.25,521.18 1808.45,522.724 1807.68,524.287 1806.96,525.868 1806.27,527.466 1805.63,529.081 1805.02,530.712 1804.46,532.356 1803.93,534.014 1803.45,535.685 1803,537.367 1802.6,539.059 1802.24,540.76 1801.92,542.47 1801.65,544.188 1801.41,545.911 1801.22,547.64 1801.07,549.373 1800.97,551.109 1800.9,552.847 1800.88,554.586 1800.9,556.325 1800.97,558.063 1801.07,559.799 1801.22,561.532 1801.41,563.261 1801.65,564.984 1801.92,566.701 1802.24,568.411 1802.6,570.113 1803,571.805 1803.45,573.487 1803.93,575.157 1804.46,576.815 1805.02,578.46 1805.63,580.09 1806.27,581.705 1806.96,583.304 1807.68,584.885 1808.45,586.448 1809.25,587.992 1810.09,589.516 1810.96,591.018 1811.88,592.499 1812.82,593.957 1813.81,595.391 1814.83,596.801 1815.88,598.185 1816.97,599.543 1818.09,600.874 1819.24,602.177 1820.42,603.451 1821.64,604.696 1822.88,605.91 1824.16,607.094 1825.46,608.246 1826.79,609.366 1828.15,610.453 1829.53,611.506 1830.94,612.525 1832.38,613.509 1833.83,614.457 1835.31,615.37 1836.82,616.246 1838.34,617.084 1839.88,617.885 1841.45,618.648 1843.03,619.372 1844.63,620.058 1846.24,620.703 1847.87,621.309 1849.52,621.875 1851.18,622.4 1852.85,622.885 1854.53,623.328 1856.22,623.73 1857.92,624.09 1859.63,624.409 1861.35,624.685 1863.07,624.919 1864.8,625.111 1866.53,625.26 1868.27,625.367 1870.01,625.431 1871.75,625.452 1873.49,625.431 1875.22,625.367 1876.96,625.26 1878.69,625.111 1880.42,624.919 1882.14,624.685 1883.86,624.409 1885.57,624.09 1887.27,623.73 1888.97,623.328 1890.65,622.885 1892.32,622.4 1893.98,621.875 1895.62,621.309 1897.25,620.703 1898.87,620.058 1900.46,619.372 1902.05,618.648 1903.61,617.885 1905.15,617.084 1906.68,616.246 1908.18,615.37 1909.66,614.457 1911.12,613.509 1912.55,612.525 1913.96,611.506 1915.35,610.453 1916.7,609.366 1918.03,608.246 1919.34,607.094 1920.61,605.91 1921.86,604.696 1923.07,603.451 1924.25,602.177 1925.41,600.874 1926.53,599.543 1927.61,598.185 1928.67,596.801 1929.69,595.391 1930.67,593.957 1931.62,592.499 1932.53,591.018 1933.41,589.516 1934.24,587.992 1935.05,586.448 1935.81,584.885 1936.53,583.304 1937.22,581.705 1937.86,580.09 1938.47,578.46 1939.04,576.815 1939.56,575.157 1940.05,573.487 1940.49,571.805 1940.89,570.113 1941.25,568.411 1941.57,566.701 1941.85,564.984 1942.08,563.261 1942.27,561.532 1942.42,559.799 1942.53,558.063 1942.59,556.325 1942.61,554.586 "
         id="polyline48"
         style="vector-effect:none;fill:none;stroke:#ff0000;stroke-width:1.1811024;stroke-miterlimit:4;stroke-dasharray:none;stroke-opacity:1" />
      <polyline
         points="1859.94,2947.95 1859.92,2946.79 1859.88,2945.63 1859.81,2944.47 1859.71,2943.32 1859.58,2942.17 1859.42,2941.02 1859.24,2939.87 1859.03,2938.73 1858.79,2937.6 1858.52,2936.47 1858.22,2935.35 1857.9,2934.23 1857.55,2933.13 1857.17,2932.03 1856.77,2930.95 1856.34,2929.87 1855.88,2928.8 1855.4,2927.75 1854.89,2926.71 1854.36,2925.68 1853.8,2924.66 1853.21,2923.66 1852.61,2922.67 1851.97,2921.7 1851.32,2920.75 1850.64,2919.81 1849.94,2918.88 1849.21,2917.98 1848.47,2917.09 1847.7,2916.22 1846.91,2915.37 1846.1,2914.54 1845.27,2913.73 1844.42,2912.94 1843.55,2912.18 1842.66,2911.43 1841.76,2910.7 1840.83,2910 1839.89,2909.32 1838.94,2908.67 1837.97,2908.03 1836.98,2907.43 1835.98,2906.84 1834.96,2906.28 1833.93,2905.75 1832.89,2905.24 1831.84,2904.76 1830.77,2904.3 1829.69,2903.87 1828.61,2903.47 1827.51,2903.09 1826.41,2902.74 1825.29,2902.42 1824.17,2902.12 1823.04,2901.85 1821.91,2901.61 1820.77,2901.4 1819.62,2901.22 1818.47,2901.06 1817.32,2900.93 1816.17,2900.83 1815.01,2900.76 1813.85,2900.72 1812.69,2900.71 1811.53,2900.72 1810.37,2900.76 1809.22,2900.83 1808.06,2900.93 1806.91,2901.06 1805.76,2901.22 1804.61,2901.4 1803.47,2901.61 1802.34,2901.85 1801.21,2902.12 1800.09,2902.42 1798.98,2902.74 1797.87,2903.09 1796.78,2903.47 1795.69,2903.87 1794.61,2904.3 1793.55,2904.76 1792.49,2905.24 1791.45,2905.75 1790.42,2906.28 1789.4,2906.84 1788.4,2907.43 1787.42,2908.03 1786.44,2908.67 1785.49,2909.32 1784.55,2910 1783.63,2910.7 1782.72,2911.43 1781.83,2912.18 1780.96,2912.94 1780.11,2913.73 1779.28,2914.54 1778.48,2915.37 1777.69,2916.22 1776.92,2917.09 1776.17,2917.98 1775.45,2918.88 1774.74,2919.81 1774.07,2920.75 1773.41,2921.7 1772.78,2922.67 1772.17,2923.66 1771.58,2924.66 1771.03,2925.68 1770.49,2926.71 1769.98,2927.75 1769.5,2928.8 1769.04,2929.87 1768.61,2930.95 1768.21,2932.03 1767.83,2933.13 1767.48,2934.23 1767.16,2935.35 1766.86,2936.47 1766.6,2937.6 1766.36,2938.73 1766.14,2939.87 1765.96,2941.02 1765.8,2942.17 1765.67,2943.32 1765.58,2944.47 1765.5,2945.63 1765.46,2946.79 1765.45,2947.95 1765.46,2949.11 1765.5,2950.27 1765.58,2951.42 1765.67,2952.58 1765.8,2953.73 1765.96,2954.88 1766.14,2956.03 1766.36,2957.17 1766.6,2958.3 1766.86,2959.43 1767.16,2960.55 1767.48,2961.66 1767.83,2962.77 1768.21,2963.87 1768.61,2964.95 1769.04,2966.03 1769.5,2967.09 1769.98,2968.15 1770.49,2969.19 1771.03,2970.22 1771.58,2971.24 1772.17,2972.24 1772.78,2973.22 1773.41,2974.2 1774.07,2975.15 1774.74,2976.09 1775.45,2977.02 1776.17,2977.92 1776.92,2978.81 1777.69,2979.68 1778.48,2980.53 1779.28,2981.36 1780.11,2982.17 1780.96,2982.95 1781.83,2983.72 1782.72,2984.47 1783.63,2985.19 1784.55,2985.9 1785.49,2986.58 1786.44,2987.23 1787.42,2987.86 1788.4,2988.47 1789.4,2989.06 1790.42,2989.61 1791.45,2990.15 1792.49,2990.66 1793.55,2991.14 1794.61,2991.6 1795.69,2992.03 1796.78,2992.43 1797.87,2992.81 1798.98,2993.16 1800.09,2993.48 1801.21,2993.78 1802.34,2994.05 1803.47,2994.29 1804.61,2994.5 1805.76,2994.68 1806.91,2994.84 1808.06,2994.97 1809.22,2995.07 1810.37,2995.14 1811.53,2995.18 1812.69,2995.19 1813.85,2995.18 1815.01,2995.14 1816.17,2995.07 1817.32,2994.97 1818.47,2994.84 1819.62,2994.68 1820.77,2994.5 1821.91,2994.29 1823.04,2994.05 1824.17,2993.78 1825.29,2993.48 1826.41,2993.16 1827.51,2992.81 1828.61,2992.43 1829.69,2992.03 1830.77,2991.6 1831.84,2991.14 1832.89,2990.66 1833.93,2990.15 1834.96,2989.61 1835.98,2989.06 1836.98,2988.47 1837.97,2987.86 1838.94,2987.23 1839.89,2986.58 1840.83,2985.9 1841.76,2985.19 1842.66,2984.47 1843.55,2983.72 1844.42,2982.95 1845.27,2982.17 1846.1,2981.36 1846.91,2980.53 1847.7,2979.68 1848.47,2978.81 1849.21,2977.92 1849.94,2977.02 1850.64,2976.09 1851.32,2975.15 1851.97,2974.2 1852.61,2973.22 1853.21,2972.24 1853.8,2971.24 1854.36,2970.22 1854.89,2969.19 1855.4,2968.15 1855.88,2967.09 1856.34,2966.03 1856.77,2964.95 1857.17,2963.87 1857.55,2962.77 1857.9,2961.66 1858.22,2960.55 1858.52,2959.43 1858.79,2958.3 1859.03,2957.17 1859.24,2956.03 1859.42,2954.88 1859.58,2953.73 1859.71,2952.58 1859.81,2951.42 1859.88,2950.27 1859.92,2949.11 1859.94,2947.95 "
         id="polyline50"
         style="vector-effect:none;fill:none;stroke:#ff0000;stroke-width:1.1811024;stroke-miterlimit:4;stroke-dasharray:none;stroke-opacity:1" />
      <polyline
         points="2615.84,3885.29 2615.83,3884.14 2615.78,3882.98 2615.71,3881.82 2615.61,3880.66 2615.49,3879.51 2615.33,3878.36 2615.15,3877.22 2614.93,3876.08 2614.69,3874.94 2614.43,3873.82 2614.13,3872.69 2613.81,3871.58 2613.46,3870.47 2613.08,3869.38 2612.68,3868.29 2612.24,3867.21 2611.79,3866.15 2611.31,3865.1 2610.8,3864.05 2610.26,3863.02 2609.7,3862.01 2609.12,3861.01 2608.51,3860.02 2607.88,3859.05 2607.22,3858.09 2606.54,3857.15 2605.84,3856.23 2605.12,3855.32 2604.37,3854.44 2603.6,3853.57 2602.81,3852.72 2602,3851.89 2601.17,3851.08 2600.32,3850.29 2599.46,3849.52 2598.57,3848.77 2597.66,3848.05 2596.74,3847.35 2595.8,3846.67 2594.84,3846.01 2593.87,3845.38 2592.89,3844.77 2591.88,3844.19 2590.87,3843.63 2589.84,3843.09 2588.8,3842.59 2587.74,3842.1 2586.68,3841.65 2585.6,3841.22 2584.51,3840.81 2583.42,3840.43 2582.31,3840.08 2581.2,3839.76 2580.08,3839.47 2578.95,3839.2 2577.81,3838.96 2576.67,3838.75 2575.53,3838.56 2574.38,3838.41 2573.23,3838.28 2572.07,3838.18 2570.92,3838.11 2569.76,3838.06 2568.6,3838.05 2567.44,3838.06 2566.28,3838.11 2565.12,3838.18 2563.97,3838.28 2562.81,3838.41 2561.66,3838.56 2560.52,3838.75 2559.38,3838.96 2558.25,3839.2 2557.12,3839.47 2556,3839.76 2554.88,3840.08 2553.78,3840.43 2552.68,3840.81 2551.59,3841.22 2550.52,3841.65 2549.45,3842.1 2548.4,3842.59 2547.36,3843.09 2546.33,3843.63 2545.31,3844.19 2544.31,3844.77 2543.32,3845.38 2542.35,3846.01 2541.39,3846.67 2540.45,3847.35 2539.53,3848.05 2538.63,3848.77 2537.74,3849.52 2536.87,3850.29 2536.02,3851.08 2535.19,3851.89 2534.38,3852.72 2533.59,3853.57 2532.82,3854.44 2532.08,3855.32 2531.35,3856.23 2530.65,3857.15 2529.97,3858.09 2529.31,3859.05 2528.68,3860.02 2528.07,3861.01 2527.49,3862.01 2526.93,3863.02 2526.4,3864.05 2525.89,3865.1 2525.41,3866.15 2524.95,3867.21 2524.52,3868.29 2524.11,3869.38 2523.74,3870.47 2523.39,3871.58 2523.06,3872.69 2522.77,3873.82 2522.5,3874.94 2522.26,3876.08 2522.05,3877.22 2521.86,3878.36 2521.71,3879.51 2521.58,3880.66 2521.48,3881.82 2521.41,3882.98 2521.37,3884.14 2521.35,3885.29 2521.37,3886.45 2521.41,3887.61 2521.48,3888.77 2521.58,3889.93 2521.71,3891.08 2521.86,3892.23 2522.05,3893.37 2522.26,3894.51 2522.5,3895.65 2522.77,3896.77 2523.06,3897.9 2523.39,3899.01 2523.74,3900.11 2524.11,3901.21 2524.52,3902.3 2524.95,3903.37 2525.41,3904.44 2525.89,3905.49 2526.4,3906.54 2526.93,3907.57 2527.49,3908.58 2528.07,3909.58 2528.68,3910.57 2529.31,3911.54 2529.97,3912.5 2530.65,3913.44 2531.35,3914.36 2532.08,3915.27 2532.82,3916.15 2533.59,3917.02 2534.38,3917.87 2535.19,3918.7 2536.02,3919.51 2536.87,3920.3 2537.74,3921.07 2538.63,3921.81 2539.53,3922.54 2540.45,3923.24 2541.39,3923.92 2542.35,3924.58 2543.32,3925.21 2544.31,3925.82 2545.31,3926.4 2546.33,3926.96 2547.36,3927.49 2548.4,3928 2549.45,3928.49 2550.52,3928.94 2551.59,3929.37 2552.68,3929.78 2553.78,3930.15 2554.88,3930.5 2556,3930.83 2557.12,3931.12 2558.25,3931.39 2559.38,3931.63 2560.52,3931.84 2561.66,3932.03 2562.81,3932.18 2563.97,3932.31 2565.12,3932.41 2566.28,3932.48 2567.44,3932.52 2568.6,3932.54 2569.76,3932.52 2570.92,3932.48 2572.07,3932.41 2573.23,3932.31 2574.38,3932.18 2575.53,3932.03 2576.67,3931.84 2577.81,3931.63 2578.95,3931.39 2580.08,3931.12 2581.2,3930.83 2582.31,3930.5 2583.42,3930.15 2584.51,3929.78 2585.6,3929.37 2586.68,3928.94 2587.74,3928.49 2588.8,3928 2589.84,3927.49 2590.87,3926.96 2591.88,3926.4 2592.89,3925.82 2593.87,3925.21 2594.84,3924.58 2595.8,3923.92 2596.74,3923.24 2597.66,3922.54 2598.57,3921.81 2599.46,3921.07 2600.32,3920.3 2601.17,3919.51 2602,3918.7 2602.81,3917.87 2603.6,3917.02 2604.37,3916.15 2605.12,3915.27 2605.84,3914.36 2606.54,3913.44 2607.22,3912.5 2607.88,3911.54 2608.51,3910.57 2609.12,3909.58 2609.7,3908.58 2610.26,3907.57 2610.8,3906.54 2611.31,3905.49 2611.79,3904.44 2612.24,3903.37 2612.68,3902.3 2613.08,3901.21 2613.46,3900.11 2613.81,3899.01 2614.13,3897.9 2614.43,3896.77 2614.69,3895.65 2614.93,3894.51 2615.15,3893.37 2615.33,3892.23 2615.49,3891.08 2615.61,3889.93 2615.71,3888.77 2615.78,3887.61 2615.83,3886.45 2615.84,3885.29 "
         id="polyline52"
         style="vector-effect:none;fill:none;stroke:#ff0000;stroke-width:1.1811024;stroke-miterlimit:4;stroke-dasharray:none;stroke-opacity:1" />
      <polyline
         points="1859.94,3885.29 1859.92,3884.14 1859.88,3882.98 1859.81,3881.82 1859.71,3880.66 1859.58,3879.51 1859.42,3878.36 1859.24,3877.22 1859.03,3876.08 1858.79,3874.94 1858.52,3873.82 1858.22,3872.69 1857.9,3871.58 1857.55,3870.47 1857.17,3869.38 1856.77,3868.29 1856.34,3867.21 1855.88,3866.15 1855.4,3865.1 1854.89,3864.05 1854.36,3863.02 1853.8,3862.01 1853.21,3861.01 1852.61,3860.02 1851.97,3859.05 1851.32,3858.09 1850.64,3857.15 1849.94,3856.23 1849.21,3855.32 1848.47,3854.44 1847.7,3853.57 1846.91,3852.72 1846.1,3851.89 1845.27,3851.08 1844.42,3850.29 1843.55,3849.52 1842.66,3848.77 1841.76,3848.05 1840.83,3847.35 1839.89,3846.67 1838.94,3846.01 1837.97,3845.38 1836.98,3844.77 1835.98,3844.19 1834.96,3843.63 1833.93,3843.09 1832.89,3842.59 1831.84,3842.1 1830.77,3841.65 1829.69,3841.22 1828.61,3840.81 1827.51,3840.43 1826.41,3840.08 1825.29,3839.76 1824.17,3839.47 1823.04,3839.2 1821.91,3838.96 1820.77,3838.75 1819.62,3838.56 1818.47,3838.41 1817.32,3838.28 1816.17,3838.18 1815.01,3838.11 1813.85,3838.06 1812.69,3838.05 1811.53,3838.06 1810.37,3838.11 1809.22,3838.18 1808.06,3838.28 1806.91,3838.41 1805.76,3838.56 1804.61,3838.75 1803.47,3838.96 1802.34,3839.2 1801.21,3839.47 1800.09,3839.76 1798.98,3840.08 1797.87,3840.43 1796.78,3840.81 1795.69,3841.22 1794.61,3841.65 1793.55,3842.1 1792.49,3842.59 1791.45,3843.09 1790.42,3843.63 1789.4,3844.19 1788.4,3844.77 1787.42,3845.38 1786.44,3846.01 1785.49,3846.67 1784.55,3847.35 1783.63,3848.05 1782.72,3848.77 1781.83,3849.52 1780.96,3850.29 1780.11,3851.08 1779.28,3851.89 1778.48,3852.72 1777.69,3853.57 1776.92,3854.44 1776.17,3855.32 1775.45,3856.23 1774.74,3857.15 1774.07,3858.09 1773.41,3859.05 1772.78,3860.02 1772.17,3861.01 1771.58,3862.01 1771.03,3863.02 1770.49,3864.05 1769.98,3865.1 1769.5,3866.15 1769.04,3867.21 1768.61,3868.29 1768.21,3869.38 1767.83,3870.47 1767.48,3871.58 1767.16,3872.69 1766.86,3873.82 1766.6,3874.94 1766.36,3876.08 1766.14,3877.22 1765.96,3878.36 1765.8,3879.51 1765.67,3880.66 1765.58,3881.82 1765.5,3882.98 1765.46,3884.14 1765.45,3885.29 1765.46,3886.45 1765.5,3887.61 1765.58,3888.77 1765.67,3889.93 1765.8,3891.08 1765.96,3892.23 1766.14,3893.37 1766.36,3894.51 1766.6,3895.65 1766.86,3896.77 1767.16,3897.9 1767.48,3899.01 1767.83,3900.11 1768.21,3901.21 1768.61,3902.3 1769.04,3903.37 1769.5,3904.44 1769.98,3905.49 1770.49,3906.54 1771.03,3907.57 1771.58,3908.58 1772.17,3909.58 1772.78,3910.57 1773.41,3911.54 1774.07,3912.5 1774.74,3913.44 1775.45,3914.36 1776.17,3915.27 1776.92,3916.15 1777.69,3917.02 1778.48,3917.87 1779.28,3918.7 1780.11,3919.51 1780.96,3920.3 1781.83,3921.07 1782.72,3921.81 1783.63,3922.54 1784.55,3923.24 1785.49,3923.92 1786.44,3924.58 1787.42,3925.21 1788.4,3925.82 1789.4,3926.4 1790.42,3926.96 1791.45,3927.49 1792.49,3928 1793.55,3928.49 1794.61,3928.94 1795.69,3929.37 1796.78,3929.78 1797.87,3930.15 1798.98,3930.5 1800.09,3930.83 1801.21,3931.12 1802.34,3931.39 1803.47,3931.63 1804.61,3931.84 1805.76,3932.03 1806.91,3932.18 1808.06,3932.31 1809.22,3932.41 1810.37,3932.48 1811.53,3932.52 1812.69,3932.54 1813.85,3932.52 1815.01,3932.48 1816.17,3932.41 1817.32,3932.31 1818.47,3932.18 1819.62,3932.03 1820.77,3931.84 1821.91,3931.63 1823.04,3931.39 1824.17,3931.12 1825.29,3930.83 1826.41,3930.5 1827.51,3930.15 1828.61,3929.78 1829.69,3929.37 1830.77,3928.94 1831.84,3928.49 1832.89,3928 1833.93,3927.49 1834.96,3926.96 1835.98,3926.4 1836.98,3925.82 1837.97,3925.21 1838.94,3924.58 1839.89,3923.92 1840.83,3923.24 1841.76,3922.54 1842.66,3921.81 1843.55,3921.07 1844.42,3920.3 1845.27,3919.51 1846.1,3918.7 1846.91,3917.87 1847.7,3917.02 1848.47,3916.15 1849.21,3915.27 1849.94,3914.36 1850.64,3913.44 1851.32,3912.5 1851.97,3911.54 1852.61,3910.57 1853.21,3909.58 1853.8,3908.58 1854.36,3907.57 1854.89,3906.54 1855.4,3905.49 1855.88,3904.44 1856.34,3903.37 1856.77,3902.3 1857.17,3901.21 1857.55,3900.11 1857.9,3899.01 1858.22,3897.9 1858.52,3896.77 1858.79,3895.65 1859.03,3894.51 1859.24,3893.37 1859.42,3892.23 1859.58,3891.08 1859.71,3889.93 1859.81,3888.77 1859.88,3887.61 1859.92,3886.45 1859.94,3885.29 "
         id="polyline54"
         style="vector-effect:none;fill:none;stroke:#ff0000;stroke-width:1.1811024;stroke-miterlimit:4;stroke-dasharray:none;stroke-opacity:1" />
      <polyline
         points="2615.84,2947.95 2615.83,2946.79 2615.78,2945.63 2615.71,2944.47 2615.61,2943.32 2615.49,2942.17 2615.33,2941.02 2615.15,2939.87 2614.93,2938.73 2614.69,2937.6 2614.43,2936.47 2614.13,2935.35 2613.81,2934.23 2613.46,2933.13 2613.08,2932.03 2612.68,2930.95 2612.24,2929.87 2611.79,2928.8 2611.31,2927.75 2610.8,2926.71 2610.26,2925.68 2609.7,2924.66 2609.12,2923.66 2608.51,2922.67 2607.88,2921.7 2607.22,2920.75 2606.54,2919.81 2605.84,2918.88 2605.12,2917.98 2604.37,2917.09 2603.6,2916.22 2602.81,2915.37 2602,2914.54 2601.17,2913.73 2600.32,2912.94 2599.46,2912.18 2598.57,2911.43 2597.66,2910.7 2596.74,2910 2595.8,2909.32 2594.84,2908.67 2593.87,2908.03 2592.89,2907.43 2591.88,2906.84 2590.87,2906.28 2589.84,2905.75 2588.8,2905.24 2587.74,2904.76 2586.68,2904.3 2585.6,2903.87 2584.51,2903.47 2583.42,2903.09 2582.31,2902.74 2581.2,2902.42 2580.08,2902.12 2578.95,2901.85 2577.81,2901.61 2576.67,2901.4 2575.53,2901.22 2574.38,2901.06 2573.23,2900.93 2572.07,2900.83 2570.92,2900.76 2569.76,2900.72 2568.6,2900.71 2567.44,2900.72 2566.28,2900.76 2565.12,2900.83 2563.97,2900.93 2562.81,2901.06 2561.66,2901.22 2560.52,2901.4 2559.38,2901.61 2558.25,2901.85 2557.12,2902.12 2556,2902.42 2554.88,2902.74 2553.78,2903.09 2552.68,2903.47 2551.59,2903.87 2550.52,2904.3 2549.45,2904.76 2548.4,2905.24 2547.36,2905.75 2546.33,2906.28 2545.31,2906.84 2544.31,2907.43 2543.32,2908.03 2542.35,2908.67 2541.39,2909.32 2540.45,2910 2539.53,2910.7 2538.63,2911.43 2537.74,2912.18 2536.87,2912.94 2536.02,2913.73 2535.19,2914.54 2534.38,2915.37 2533.59,2916.22 2532.82,2917.09 2532.08,2917.98 2531.35,2918.88 2530.65,2919.81 2529.97,2920.75 2529.31,2921.7 2528.68,2922.67 2528.07,2923.66 2527.49,2924.66 2526.93,2925.68 2526.4,2926.71 2525.89,2927.75 2525.41,2928.8 2524.95,2929.87 2524.52,2930.95 2524.11,2932.03 2523.74,2933.13 2523.39,2934.23 2523.06,2935.35 2522.77,2936.47 2522.5,2937.6 2522.26,2938.73 2522.05,2939.87 2521.86,2941.02 2521.71,2942.17 2521.58,2943.32 2521.48,2944.47 2521.41,2945.63 2521.37,2946.79 2521.35,2947.95 2521.37,2949.11 2521.41,2950.27 2521.48,2951.42 2521.58,2952.58 2521.71,2953.73 2521.86,2954.88 2522.05,2956.03 2522.26,2957.17 2522.5,2958.3 2522.77,2959.43 2523.06,2960.55 2523.39,2961.66 2523.74,2962.77 2524.11,2963.87 2524.52,2964.95 2524.95,2966.03 2525.41,2967.09 2525.89,2968.15 2526.4,2969.19 2526.93,2970.22 2527.49,2971.24 2528.07,2972.24 2528.68,2973.22 2529.31,2974.2 2529.97,2975.15 2530.65,2976.09 2531.35,2977.02 2532.08,2977.92 2532.82,2978.81 2533.59,2979.68 2534.38,2980.53 2535.19,2981.36 2536.02,2982.17 2536.87,2982.95 2537.74,2983.72 2538.63,2984.47 2539.53,2985.19 2540.45,2985.9 2541.39,2986.58 2542.35,2987.23 2543.32,2987.86 2544.31,2988.47 2545.31,2989.06 2546.33,2989.61 2547.36,2990.15 2548.4,2990.66 2549.45,2991.14 2550.52,2991.6 2551.59,2992.03 2552.68,2992.43 2553.78,2992.81 2554.88,2993.16 2556,2993.48 2557.12,2993.78 2558.25,2994.05 2559.38,2994.29 2560.52,2994.5 2561.66,2994.68 2562.81,2994.84 2563.97,2994.97 2565.12,2995.07 2566.28,2995.14 2567.44,2995.18 2568.6,2995.19 2569.76,2995.18 2570.92,2995.14 2572.07,2995.07 2573.23,2994.97 2574.38,2994.84 2575.53,2994.68 2576.67,2994.5 2577.81,2994.29 2578.95,2994.05 2580.08,2993.78 2581.2,2993.48 2582.31,2993.16 2583.42,2992.81 2584.51,2992.43 2585.6,2992.03 2586.68,2991.6 2587.74,2991.14 2588.8,2990.66 2589.84,2990.15 2590.87,2989.61 2591.88,2989.06 2592.89,2988.47 2593.87,2987.86 2594.84,2987.23 2595.8,2986.58 2596.74,2985.9 2597.66,2985.19 2598.57,2984.47 2599.46,2983.72 2600.32,2982.95 2601.17,2982.17 2602,2981.36 2602.81,2980.53 2603.6,2979.68 2604.37,2978.81 2605.12,2977.92 2605.84,2977.02 2606.54,2976.09 2607.22,2975.15 2607.88,2974.2 2608.51,2973.22 2609.12,2972.24 2609.7,2971.24 2610.26,2970.22 2610.8,2969.19 2611.31,2968.15 2611.79,2967.09 2612.24,2966.03 2612.68,2964.95 2613.08,2963.87 2613.46,2962.77 2613.81,2961.66 2614.13,2960.55 2614.43,2959.43 2614.69,2958.3 2614.93,2957.17 2615.15,2956.03 2615.33,2954.88 2615.49,2953.73 2615.61,2952.58 2615.71,2951.42 2615.78,2950.27 2615.83,2949.11 2615.84,2947.95 "
         id="polyline56"
         style="vector-effect:none;fill:none;stroke:#ff0000;stroke-width:1.1811024;stroke-miterlimit:4;stroke-dasharray:none;stroke-opacity:1" />
      <polyline
         points="3903.24,519.153 3903.24,2810.49 "
         id="polyline58"
         style="vector-effect:none;fill:none;stroke:#ff0000;stroke-width:1.1811024;stroke-miterlimit:4;stroke-dasharray:none;stroke-opacity:1" />
      <polyline
         points="537.101,2869.55 1068.6,2869.55 "
         id="polyline60"
         style="vector-effect:none;fill:none;stroke:#ff0000;stroke-width:1.1811024;stroke-miterlimit:4;stroke-dasharray:none;stroke-opacity:1" />
      <polyline
         points="478.046,519.153 478.046,2810.49 "
         id="polyline62"
         style="vector-effect:none;fill:none;stroke:#ff0000;stroke-width:1.1811024;stroke-miterlimit:4;stroke-dasharray:none;stroke-opacity:1" />
      <polyline
         points="537.101,460.098 3844.19,460.098 "
         id="polyline64"
         style="vector-effect:none;fill:none;stroke:#ff0000;stroke-width:1.1811024;stroke-miterlimit:4;stroke-dasharray:none;stroke-opacity:1" />
      <polyline
         points="3312.69,2869.55 3844.19,2869.55 "
         id="polyline66"
         style="vector-effect:none;fill:none;stroke:#ff0000;stroke-width:1.1811024;stroke-miterlimit:4;stroke-dasharray:none;stroke-opacity:1" />
    </g>
    <g
       font-size="12"
       font-weight="400"
       font-style="normal"
       id="g70"
       style="font-style:normal;font-weight:400;font-size:12px;font-family:Arial;fill:none;stroke:#000000;stroke-width:1;stroke-linecap:square;stroke-linejoin:bevel;stroke-opacity:1" />
  </g>
</svg>
