<?xml version="1.0" encoding="UTF-8" standalone="no"?>
<svg
   xmlns:dc="http://purl.org/dc/elements/1.1/"
   xmlns:cc="http://creativecommons.org/ns#"
   xmlns:rdf="http://www.w3.org/1999/02/22-rdf-syntax-ns#"
   xmlns:svg="http://www.w3.org/2000/svg"
   xmlns="http://www.w3.org/2000/svg"
   xmlns:sodipodi="http://sodipodi.sourceforge.net/DTD/sodipodi-0.dtd"
   xmlns:inkscape="http://www.inkscape.org/namespaces/inkscape"
   width="180.10017mm"
   height="380.09985mm"
   viewBox="0 0 2127.1675 4489.3685"
   version="1.2"
   id="svg54"
   sodipodi:docname="Plaque_Base_Ez_Wheel.svg"
   inkscape:version="0.92.4 (5da689c313, 2019-01-14)">
  <metadata
     id="metadata58">
    <rdf:RDF>
      <cc:Work
         rdf:about="">
        <dc:format>image/svg+xml</dc:format>
        <dc:type
           rdf:resource="http://purl.org/dc/dcmitype/StillImage" />
      </cc:Work>
    </rdf:RDF>
  </metadata>
  <sodipodi:namedview
     pagecolor="#ffffff"
     bordercolor="#666666"
     borderopacity="1"
     objecttolerance="10"
     gridtolerance="10"
     guidetolerance="10"
     inkscape:pageopacity="0"
     inkscape:pageshadow="2"
     inkscape:window-width="1920"
     inkscape:window-height="1017"
     id="namedview56"
     showgrid="false"
     inkscape:zoom="1.1568628"
     inkscape:cx="366.69445"
     inkscape:cy="155.81777"
     inkscape:window-x="-8"
     inkscape:window-y="-8"
     inkscape:window-maximized="1"
     inkscape:current-layer="g48" />
  <defs
     id="defs2" />
  <g
     id="g52"
     style="fill:none;fill-rule:evenodd;stroke:#000000;stroke-width:1;stroke-linecap:square;stroke-linejoin:bevel"
     transform="translate(-215.86387,-133.69321)">
    <g
       font-size="12"
       font-weight="400"
       font-style="normal"
       id="g8"
       style="font-style:normal;font-weight:400;font-size:12px;font-family:Arial;fill:none;stroke:#000000;stroke-width:1;stroke-linecap:square;stroke-linejoin:bevel;stroke-opacity:1" />
    <g
       stroke-miterlimit="2"
       font-size="12"
       font-weight="400"
       font-style="normal"
       id="g10"
       style="font-style:normal;font-weight:400;font-size:12px;font-family:Arial;fill:#000000;fill-opacity:1;stroke:#000000;stroke-width:1;stroke-linecap:butt;stroke-linejoin:miter;stroke-miterlimit:2;stroke-opacity:1" />
    <g
       transform="translate(-206.28941,-198.64907)"
       font-size="12"
       font-weight="400"
       font-style="normal"
       id="g48"
       style="font-style:normal;font-weight:400;font-size:12px;font-family:Arial;fill:none;fill-opacity:1;stroke:#ff0000;stroke-width:1.1811024;stroke-linecap:round;stroke-linejoin:bevel;stroke-miterlimit:4;stroke-dasharray:none;stroke-opacity:1">
      <polyline
         points="481.799,332.933 480.372,332.951 478.946,333.002 477.522,333.089 476.1,333.209 474.681,333.364 473.267,333.553 471.857,333.776 470.453,334.034 469.056,334.325 467.667,334.649 466.285,335.008 464.913,335.399 463.55,335.824 462.199,336.281 460.858,336.771 459.53,337.293 458.215,337.847 456.913,338.433 455.627,339.05 454.355,339.698 453.1,340.376 451.861,341.085 450.64,341.823 449.436,342.591 448.252,343.387 447.088,344.212 445.943,345.065 444.82,345.945 443.718,346.852 442.639,347.785 441.582,348.744 440.549,349.729 439.54,350.738 438.555,351.771 437.596,352.828 436.663,353.907 435.756,355.009 434.876,356.133 434.023,357.277 433.198,358.441 432.402,359.626 431.634,360.829 430.896,362.05 430.187,363.289 429.509,364.544 428.861,365.816 428.244,367.103 427.658,368.404 427.104,369.719 426.582,371.047 426.092,372.388 425.635,373.74 425.21,375.102 424.819,376.474 424.46,377.856 424.136,379.245 423.844,380.643 423.587,382.046 423.364,383.456 423.175,384.87 423.02,386.289 422.899,387.711 422.813,389.135 422.762,390.562 422.744,391.989 "
         id="polyline12"
         style="vector-effect:none;fill:none;stroke:#ff0000;stroke-width:1.1811024;stroke-miterlimit:4;stroke-dasharray:none;stroke-opacity:1" />
      <polyline
         points="2548.73,391.989 2548.71,390.539 2548.66,389.091 2548.57,387.644 2548.44,386.2 2548.28,384.76 2548.09,383.323 2547.86,381.892 2547.59,380.467 2547.29,379.05 2546.96,377.639 2546.59,376.238 2546.19,374.846 2545.75,373.464 2545.28,372.094 2544.77,370.735 2544.23,369.389 2543.66,368.057 2543.06,366.739 2542.42,365.437 2541.76,364.15 2541.06,362.88 2540.33,361.628 2539.57,360.394 2538.78,359.179 2537.96,357.984 2537.11,356.809 2536.23,355.656 2535.32,354.524 2534.39,353.415 2533.43,352.33 2532.44,351.268 2531.43,350.23 2530.39,349.218 2529.33,348.232 2528.25,347.272 2527.14,346.338 2526.01,345.433 2524.85,344.555 2523.68,343.706 2522.48,342.886 2521.27,342.096 2520.03,341.335 2518.78,340.605 2517.51,339.907 2516.23,339.239 2514.92,338.603 2513.6,338 2512.27,337.429 2510.93,336.891 2509.57,336.386 2508.2,335.914 2506.82,335.476 2505.42,335.073 2504.02,334.703 2502.61,334.368 2501.19,334.068 2499.77,333.803 2498.34,333.573 2496.9,333.378 2495.46,333.218 2494.02,333.093 2492.57,333.005 2491.12,332.951 2489.67,332.933 "
         id="polyline14"
         style="vector-effect:none;fill:none;stroke:#ff0000;stroke-width:1.1811024;stroke-miterlimit:4;stroke-dasharray:none;stroke-opacity:1" />
      <polyline
         points="2489.67,4821.12 2491.12,4821.1 2492.57,4821.05 2494.02,4820.96 2495.46,4820.84 2496.9,4820.68 2498.34,4820.48 2499.77,4820.25 2501.19,4819.99 2502.61,4819.69 2504.02,4819.35 2505.42,4818.98 2506.82,4818.58 2508.2,4818.14 2509.57,4817.67 2510.93,4817.17 2512.27,4816.63 2513.6,4816.06 2514.92,4815.45 2516.23,4814.82 2517.51,4814.15 2518.78,4813.45 2520.03,4812.72 2521.27,4811.96 2522.48,4811.17 2523.68,4810.35 2524.85,4809.5 2526.01,4808.62 2527.14,4807.72 2528.25,4806.78 2529.33,4805.82 2530.39,4804.84 2531.43,4803.83 2532.44,4802.79 2533.43,4801.73 2534.39,4800.64 2535.32,4799.53 2536.23,4798.4 2537.11,4797.25 2537.96,4796.07 2538.78,4794.88 2539.57,4793.66 2540.33,4792.43 2541.06,4791.18 2541.76,4789.91 2542.42,4788.62 2543.06,4787.32 2543.66,4786 2544.23,4784.67 2544.77,4783.32 2545.28,4781.96 2545.75,4780.59 2546.19,4779.21 2546.59,4777.82 2546.96,4776.42 2547.29,4775.01 2547.59,4773.59 2547.86,4772.16 2548.09,4770.73 2548.28,4769.3 2548.44,4767.86 2548.57,4766.41 2548.66,4764.97 2548.71,4763.52 2548.73,4762.07 "
         id="polyline16"
         style="vector-effect:none;fill:none;stroke:#ff0000;stroke-width:1.1811024;stroke-miterlimit:4;stroke-dasharray:none;stroke-opacity:1" />
      <polyline
         points="2489.67,4821.12 481.799,4821.12 "
         id="polyline18"
         style="vector-effect:none;fill:none;stroke:#ff0000;stroke-width:1.1811024;stroke-miterlimit:4;stroke-dasharray:none;stroke-opacity:1" />
      <polyline
         points="422.744,4762.07 422.762,4763.49 422.813,4764.92 422.899,4766.34 423.02,4767.77 423.175,4769.19 423.364,4770.6 423.587,4772.01 423.844,4773.41 424.136,4774.81 424.46,4776.2 424.819,4777.58 425.21,4778.95 425.635,4780.32 426.092,4781.67 426.582,4783.01 427.104,4784.34 427.658,4785.65 428.244,4786.95 428.861,4788.24 429.509,4789.51 430.187,4790.77 430.896,4792.01 431.634,4793.23 432.402,4794.43 433.198,4795.61 434.023,4796.78 434.876,4797.92 435.756,4799.05 436.663,4800.15 437.596,4801.23 438.555,4802.28 439.54,4803.32 440.549,4804.33 441.582,4805.31 442.639,4806.27 443.718,4807.2 444.82,4808.11 445.943,4808.99 447.088,4809.84 448.252,4810.67 449.436,4811.47 450.64,4812.23 451.861,4812.97 453.1,4813.68 454.355,4814.36 455.627,4815.01 456.913,4815.62 458.215,4816.21 459.53,4816.76 460.858,4817.28 462.199,4817.77 463.55,4818.23 464.913,4818.66 466.285,4819.05 467.667,4819.41 469.056,4819.73 470.453,4820.02 471.857,4820.28 473.267,4820.5 474.681,4820.69 476.1,4820.85 477.522,4820.97 478.946,4821.05 480.372,4821.11 481.799,4821.12 "
         id="polyline20"
         style="vector-effect:none;fill:none;stroke:#ff0000;stroke-width:1.1811024;stroke-miterlimit:4;stroke-dasharray:none;stroke-opacity:1" />
      <polyline
         points="1237.7,2293.56 1237.68,2291.82 1237.62,2290.09 1237.51,2288.35 1237.36,2286.62 1237.17,2284.89 1236.94,2283.17 1236.66,2281.45 1236.34,2279.74 1235.98,2278.04 1235.58,2276.34 1235.14,2274.66 1234.65,2272.99 1234.13,2271.33 1233.56,2269.69 1232.96,2268.06 1232.31,2266.44 1231.63,2264.85 1230.9,2263.26 1230.14,2261.7 1229.34,2260.16 1228.5,2258.63 1227.62,2257.13 1226.71,2255.65 1225.76,2254.19 1224.78,2252.76 1223.76,2251.35 1222.71,2249.96 1221.62,2248.61 1220.5,2247.28 1219.35,2245.97 1218.16,2244.7 1216.95,2243.45 1215.7,2242.24 1214.43,2241.06 1213.13,2239.9 1211.8,2238.78 1210.44,2237.7 1209.05,2236.64 1207.64,2235.62 1206.21,2234.64 1204.75,2233.69 1203.27,2232.78 1201.77,2231.9 1200.24,2231.07 1198.7,2230.26 1197.14,2229.5 1195.56,2228.78 1193.96,2228.09 1192.34,2227.45 1190.71,2226.84 1189.07,2226.27 1187.41,2225.75 1185.74,2225.26 1184.06,2224.82 1182.37,2224.42 1180.66,2224.06 1178.95,2223.74 1177.24,2223.46 1175.51,2223.23 1173.78,2223.04 1172.05,2222.89 1170.32,2222.78 1168.58,2222.72 1166.84,2222.7 1165.1,2222.72 1163.36,2222.78 1161.63,2222.89 1159.89,2223.04 1158.16,2223.23 1156.44,2223.46 1154.72,2223.74 1153.01,2224.06 1151.31,2224.42 1149.62,2224.82 1147.94,2225.26 1146.27,2225.75 1144.61,2226.27 1142.96,2226.84 1141.33,2227.45 1139.72,2228.09 1138.12,2228.78 1136.54,2229.5 1134.98,2230.26 1133.43,2231.07 1131.91,2231.9 1130.41,2232.78 1128.93,2233.69 1127.47,2234.64 1126.03,2235.62 1124.62,2236.64 1123.24,2237.7 1121.88,2238.78 1120.55,2239.9 1119.25,2241.06 1117.97,2242.24 1116.73,2243.45 1115.51,2244.7 1114.33,2245.97 1113.18,2247.28 1112.06,2248.61 1110.97,2249.96 1109.92,2251.35 1108.9,2252.76 1107.92,2254.19 1106.97,2255.65 1106.05,2257.13 1105.18,2258.63 1104.34,2260.16 1103.54,2261.7 1102.78,2263.26 1102.05,2264.85 1101.37,2266.44 1100.72,2268.06 1100.12,2269.69 1099.55,2271.33 1099.02,2272.99 1098.54,2274.66 1098.1,2276.34 1097.69,2278.04 1097.33,2279.74 1097.02,2281.45 1096.74,2283.17 1096.51,2284.89 1096.31,2286.62 1096.16,2288.35 1096.06,2290.09 1095.99,2291.82 1095.97,2293.56 1095.99,2295.3 1096.06,2297.04 1096.16,2298.78 1096.31,2300.51 1096.51,2302.24 1096.74,2303.96 1097.02,2305.68 1097.33,2307.39 1097.69,2309.09 1098.1,2310.78 1098.54,2312.46 1099.02,2314.13 1099.55,2315.79 1100.12,2317.44 1100.72,2319.07 1101.37,2320.68 1102.05,2322.28 1102.78,2323.86 1103.54,2325.43 1104.34,2326.97 1105.18,2328.49 1106.05,2330 1106.97,2331.48 1107.92,2332.93 1108.9,2334.37 1109.92,2335.78 1110.97,2337.16 1112.06,2338.52 1113.18,2339.85 1114.33,2341.15 1115.51,2342.43 1116.73,2343.67 1117.97,2344.89 1119.25,2346.07 1120.55,2347.22 1121.88,2348.34 1123.24,2349.43 1124.62,2350.48 1126.03,2351.5 1127.47,2352.49 1128.93,2353.43 1130.41,2354.35 1131.91,2355.22 1133.43,2356.06 1134.98,2356.86 1136.54,2357.63 1138.12,2358.35 1139.72,2359.04 1141.33,2359.68 1142.96,2360.29 1144.61,2360.85 1146.27,2361.38 1147.94,2361.86 1149.62,2362.31 1151.31,2362.71 1153.01,2363.07 1154.72,2363.39 1156.44,2363.66 1158.16,2363.9 1159.89,2364.09 1161.63,2364.24 1163.36,2364.34 1165.1,2364.41 1166.84,2364.43 1168.58,2364.41 1170.32,2364.34 1172.05,2364.24 1173.78,2364.09 1175.51,2363.9 1177.24,2363.66 1178.95,2363.39 1180.66,2363.07 1182.37,2362.71 1184.06,2362.31 1185.74,2361.86 1187.41,2361.38 1189.07,2360.85 1190.71,2360.29 1192.34,2359.68 1193.96,2359.04 1195.56,2358.35 1197.14,2357.63 1198.7,2356.86 1200.24,2356.06 1201.77,2355.22 1203.27,2354.35 1204.75,2353.43 1206.21,2352.49 1207.64,2351.5 1209.05,2350.48 1210.44,2349.43 1211.8,2348.34 1213.13,2347.22 1214.43,2346.07 1215.7,2344.89 1216.95,2343.67 1218.16,2342.43 1219.35,2341.15 1220.5,2339.85 1221.62,2338.52 1222.71,2337.16 1223.76,2335.78 1224.78,2334.37 1225.76,2332.93 1226.71,2331.48 1227.62,2330 1228.5,2328.49 1229.34,2326.97 1230.14,2325.43 1230.9,2323.86 1231.63,2322.28 1232.31,2320.68 1232.96,2319.07 1233.56,2317.44 1234.13,2315.79 1234.65,2314.13 1235.14,2312.46 1235.58,2310.78 1235.98,2309.09 1236.34,2307.39 1236.66,2305.68 1236.94,2303.96 1237.17,2302.24 1237.36,2300.51 1237.51,2298.78 1237.62,2297.04 1237.68,2295.3 1237.7,2293.56 "
         id="polyline22"
         style="vector-effect:none;fill:none;stroke:#ff0000;stroke-width:1.1811024;stroke-miterlimit:4;stroke-dasharray:none;stroke-opacity:1" />
      <polyline
         points="1237.7,427.422 1237.68,425.683 1237.62,423.944 1237.51,422.208 1237.36,420.476 1237.17,418.747 1236.94,417.023 1236.66,415.306 1236.34,413.596 1235.98,411.895 1235.58,410.203 1235.14,408.521 1234.65,406.85 1234.13,405.192 1233.56,403.548 1232.96,401.917 1232.31,400.302 1231.63,398.704 1230.9,397.122 1230.14,395.559 1229.34,394.016 1228.5,392.492 1227.62,390.989 1226.71,389.508 1225.76,388.051 1224.78,386.616 1223.76,385.207 1222.71,383.823 1221.62,382.465 1220.5,381.134 1219.35,379.831 1218.16,378.557 1216.95,377.312 1215.7,376.097 1214.43,374.913 1213.13,373.761 1211.8,372.641 1210.44,371.555 1209.05,370.501 1207.64,369.483 1206.21,368.499 1204.75,367.55 1203.27,366.638 1201.77,365.762 1200.24,364.923 1198.7,364.122 1197.14,363.359 1195.56,362.635 1193.96,361.95 1192.34,361.304 1190.71,360.698 1189.07,360.132 1187.41,359.607 1185.74,359.123 1184.06,358.679 1182.37,358.277 1180.66,357.917 1178.95,357.599 1177.24,357.323 1175.51,357.088 1173.78,356.897 1172.05,356.748 1170.32,356.641 1168.58,356.577 1166.84,356.556 1165.1,356.577 1163.36,356.641 1161.63,356.748 1159.89,356.897 1158.16,357.088 1156.44,357.323 1154.72,357.599 1153.01,357.917 1151.31,358.277 1149.62,358.679 1147.94,359.123 1146.27,359.607 1144.61,360.132 1142.96,360.698 1141.33,361.304 1139.72,361.95 1138.12,362.635 1136.54,363.359 1134.98,364.122 1133.43,364.923 1131.91,365.762 1130.41,366.638 1128.93,367.55 1127.47,368.499 1126.03,369.483 1124.62,370.501 1123.24,371.555 1121.88,372.641 1120.55,373.761 1119.25,374.913 1117.97,376.097 1116.73,377.312 1115.51,378.557 1114.33,379.831 1113.18,381.134 1112.06,382.465 1110.97,383.823 1109.92,385.207 1108.9,386.616 1107.92,388.051 1106.97,389.508 1106.05,390.989 1105.18,392.492 1104.34,394.016 1103.54,395.559 1102.78,397.122 1102.05,398.704 1101.37,400.302 1100.72,401.917 1100.12,403.548 1099.55,405.192 1099.02,406.85 1098.54,408.521 1098.1,410.203 1097.69,411.895 1097.33,413.596 1097.02,415.306 1096.74,417.023 1096.51,418.747 1096.31,420.476 1096.16,422.208 1096.06,423.944 1095.99,425.683 1095.97,427.422 1095.99,429.161 1096.06,430.899 1096.16,432.635 1096.31,434.368 1096.51,436.096 1096.74,437.82 1097.02,439.537 1097.33,441.247 1097.69,442.949 1098.1,444.641 1098.54,446.323 1099.02,447.993 1099.55,449.651 1100.12,451.296 1100.72,452.926 1101.37,454.541 1102.05,456.14 1102.78,457.721 1103.54,459.284 1104.34,460.828 1105.18,462.351 1106.05,463.854 1106.97,465.335 1107.92,466.793 1108.9,468.227 1109.92,469.637 1110.97,471.021 1112.06,472.379 1113.18,473.709 1114.33,475.012 1115.51,476.287 1116.73,477.532 1117.97,478.746 1119.25,479.93 1120.55,481.082 1121.88,482.202 1123.24,483.289 1124.62,484.342 1126.03,485.361 1127.47,486.345 1128.93,487.293 1130.41,488.206 1131.91,489.081 1133.43,489.92 1134.98,490.721 1136.54,491.484 1138.12,492.208 1139.72,492.893 1141.33,493.539 1142.96,494.145 1144.61,494.711 1146.27,495.236 1147.94,495.721 1149.62,496.164 1151.31,496.566 1153.01,496.926 1154.72,497.244 1156.44,497.521 1158.16,497.755 1159.89,497.947 1161.63,498.096 1163.36,498.202 1165.1,498.266 1166.84,498.288 1168.58,498.266 1170.32,498.202 1172.05,498.096 1173.78,497.947 1175.51,497.755 1177.24,497.521 1178.95,497.244 1180.66,496.926 1182.37,496.566 1184.06,496.164 1185.74,495.721 1187.41,495.236 1189.07,494.711 1190.71,494.145 1192.34,493.539 1193.96,492.893 1195.56,492.208 1197.14,491.484 1198.7,490.721 1200.24,489.92 1201.77,489.081 1203.27,488.206 1204.75,487.293 1206.21,486.345 1207.64,485.361 1209.05,484.342 1210.44,483.289 1211.8,482.202 1213.13,481.082 1214.43,479.93 1215.7,478.746 1216.95,477.532 1218.16,476.287 1219.35,475.012 1220.5,473.709 1221.62,472.379 1222.71,471.021 1223.76,469.637 1224.78,468.227 1225.76,466.793 1226.71,465.335 1227.62,463.854 1228.5,462.351 1229.34,460.828 1230.14,459.284 1230.9,457.721 1231.63,456.14 1232.31,454.541 1232.96,452.926 1233.56,451.296 1234.13,449.651 1234.65,447.993 1235.14,446.323 1235.58,444.641 1235.98,442.949 1236.34,441.247 1236.66,439.537 1236.94,437.82 1237.17,436.096 1237.36,434.368 1237.51,432.635 1237.62,430.899 1237.68,429.161 1237.7,427.422 "
         id="polyline24"
         style="vector-effect:none;fill:none;stroke:#ff0000;stroke-width:1.1811024;stroke-miterlimit:4;stroke-dasharray:none;stroke-opacity:1" />
      <polyline
         points="1157.98,3935.3 1157.97,3934.64 1157.95,3933.99 1157.91,3933.34 1157.85,3932.69 1157.78,3932.04 1157.69,3931.4 1157.59,3930.75 1157.47,3930.11 1157.33,3929.47 1157.18,3928.84 1157.02,3928.21 1156.84,3927.58 1156.64,3926.96 1156.43,3926.34 1156.2,3925.73 1155.96,3925.13 1155.7,3924.53 1155.43,3923.93 1155.14,3923.35 1154.84,3922.77 1154.53,3922.2 1154.2,3921.63 1153.86,3921.08 1153.5,3920.53 1153.13,3919.99 1152.75,3919.47 1152.36,3918.95 1151.95,3918.44 1151.53,3917.94 1151.1,3917.45 1150.65,3916.97 1150.2,3916.5 1149.73,3916.05 1149.25,3915.61 1148.76,3915.17 1148.26,3914.75 1147.76,3914.35 1147.24,3913.95 1146.71,3913.57 1146.17,3913.2 1145.62,3912.84 1145.07,3912.5 1144.5,3912.17 1143.93,3911.86 1143.35,3911.56 1142.77,3911.27 1142.17,3911 1141.58,3910.74 1140.97,3910.5 1140.36,3910.27 1139.74,3910.06 1139.12,3909.87 1138.49,3909.68 1137.86,3909.52 1137.23,3909.37 1136.59,3909.23 1135.95,3909.11 1135.31,3909.01 1134.66,3908.92 1134.01,3908.85 1133.36,3908.79 1132.71,3908.75 1132.06,3908.73 1131.41,3908.72 1130.75,3908.73 1130.1,3908.75 1129.45,3908.79 1128.8,3908.85 1128.15,3908.92 1127.51,3909.01 1126.86,3909.11 1126.22,3909.23 1125.58,3909.37 1124.95,3909.52 1124.32,3909.68 1123.69,3909.87 1123.07,3910.06 1122.45,3910.27 1121.84,3910.5 1121.24,3910.74 1120.64,3911 1120.04,3911.27 1119.46,3911.56 1118.88,3911.86 1118.31,3912.17 1117.74,3912.5 1117.19,3912.84 1116.64,3913.2 1116.1,3913.57 1115.58,3913.95 1115.06,3914.35 1114.55,3914.75 1114.05,3915.17 1113.56,3915.61 1113.08,3916.05 1112.61,3916.5 1112.16,3916.97 1111.72,3917.45 1111.28,3917.94 1110.86,3918.44 1110.46,3918.95 1110.06,3919.47 1109.68,3919.99 1109.31,3920.53 1108.95,3921.08 1108.61,3921.63 1108.28,3922.2 1107.97,3922.77 1107.67,3923.35 1107.38,3923.93 1107.11,3924.53 1106.85,3925.13 1106.61,3925.73 1106.38,3926.34 1106.17,3926.96 1105.98,3927.58 1105.79,3928.21 1105.63,3928.84 1105.48,3929.47 1105.34,3930.11 1105.22,3930.75 1105.12,3931.4 1105.03,3932.04 1104.96,3932.69 1104.9,3933.34 1104.86,3933.99 1104.84,3934.64 1104.83,3935.3 1104.84,3935.95 1104.86,3936.6 1104.9,3937.25 1104.96,3937.9 1105.03,3938.55 1105.12,3939.2 1105.22,3939.84 1105.34,3940.48 1105.48,3941.12 1105.63,3941.75 1105.79,3942.38 1105.98,3943.01 1106.17,3943.63 1106.38,3944.25 1106.61,3944.86 1106.85,3945.47 1107.11,3946.06 1107.38,3946.66 1107.67,3947.24 1107.97,3947.82 1108.28,3948.39 1108.61,3948.96 1108.95,3949.51 1109.31,3950.06 1109.68,3950.6 1110.06,3951.13 1110.46,3951.65 1110.86,3952.15 1111.28,3952.65 1111.72,3953.14 1112.16,3953.62 1112.61,3954.09 1113.08,3954.54 1113.56,3954.99 1114.05,3955.42 1114.55,3955.84 1115.06,3956.25 1115.58,3956.64 1116.1,3957.02 1116.64,3957.39 1117.19,3957.75 1117.74,3958.09 1118.31,3958.42 1118.88,3958.73 1119.46,3959.03 1120.04,3959.32 1120.64,3959.59 1121.24,3959.85 1121.84,3960.09 1122.45,3960.32 1123.07,3960.53 1123.69,3960.73 1124.32,3960.91 1124.95,3961.07 1125.58,3961.22 1126.22,3961.36 1126.86,3961.48 1127.51,3961.58 1128.15,3961.67 1128.8,3961.74 1129.45,3961.8 1130.1,3961.84 1130.75,3961.86 1131.41,3961.87 1132.06,3961.86 1132.71,3961.84 1133.36,3961.8 1134.01,3961.74 1134.66,3961.67 1135.31,3961.58 1135.95,3961.48 1136.59,3961.36 1137.23,3961.22 1137.86,3961.07 1138.49,3960.91 1139.12,3960.73 1139.74,3960.53 1140.36,3960.32 1140.97,3960.09 1141.58,3959.85 1142.17,3959.59 1142.77,3959.32 1143.35,3959.03 1143.93,3958.73 1144.5,3958.42 1145.07,3958.09 1145.62,3957.75 1146.17,3957.39 1146.71,3957.02 1147.24,3956.64 1147.76,3956.25 1148.26,3955.84 1148.76,3955.42 1149.25,3954.99 1149.73,3954.54 1150.2,3954.09 1150.65,3953.62 1151.1,3953.14 1151.53,3952.65 1151.95,3952.15 1152.36,3951.65 1152.75,3951.13 1153.13,3950.6 1153.5,3950.06 1153.86,3949.51 1154.2,3948.96 1154.53,3948.39 1154.84,3947.82 1155.14,3947.24 1155.43,3946.66 1155.7,3946.06 1155.96,3945.47 1156.2,3944.86 1156.43,3944.25 1156.64,3943.63 1156.84,3943.01 1157.02,3942.38 1157.18,3941.75 1157.33,3941.12 1157.47,3940.48 1157.59,3939.84 1157.69,3939.2 1157.78,3938.55 1157.85,3937.9 1157.91,3937.25 1157.95,3936.6 1157.97,3935.95 1157.98,3935.3 "
         id="polyline26"
         style="vector-effect:none;fill:none;stroke:#ff0000;stroke-width:1.1811024;stroke-miterlimit:4;stroke-dasharray:none;stroke-opacity:1"
         transform="matrix(1.2499515,0,0,1.2500075,-282.79529,-983.8511)" />
      <polyline
         points="1866.64,4643.96 1866.63,4643.3 1866.61,4642.65 1866.57,4642 1866.51,4641.35 1866.44,4640.7 1866.35,4640.06 1866.25,4639.41 1866.13,4638.77 1866,4638.13 1865.85,4637.5 1865.68,4636.87 1865.5,4636.24 1865.3,4635.62 1865.09,4635 1864.86,4634.39 1864.62,4633.79 1864.36,4633.19 1864.09,4632.59 1863.8,4632.01 1863.5,4631.43 1863.19,4630.86 1862.86,4630.29 1862.52,4629.74 1862.16,4629.19 1861.79,4628.66 1861.41,4628.13 1861.02,4627.61 1860.61,4627.1 1860.19,4626.6 1859.76,4626.11 1859.31,4625.63 1858.86,4625.17 1858.39,4624.71 1857.91,4624.27 1857.43,4623.83 1856.93,4623.41 1856.42,4623.01 1855.9,4622.61 1855.37,4622.23 1854.83,4621.86 1854.28,4621.51 1853.73,4621.16 1853.17,4620.83 1852.59,4620.52 1852.02,4620.22 1851.43,4619.93 1850.84,4619.66 1850.24,4619.41 1849.63,4619.16 1849.02,4618.94 1848.4,4618.72 1847.78,4618.53 1847.15,4618.34 1846.52,4618.18 1845.89,4618.03 1845.25,4617.89 1844.61,4617.77 1843.97,4617.67 1843.32,4617.58 1842.67,4617.51 1842.02,4617.45 1841.37,4617.41 1840.72,4617.39 1840.07,4617.38 1839.41,4617.39 1838.76,4617.41 1838.11,4617.45 1837.46,4617.51 1836.81,4617.58 1836.17,4617.67 1835.52,4617.77 1834.88,4617.89 1834.24,4618.03 1833.61,4618.18 1832.98,4618.34 1832.35,4618.53 1831.73,4618.72 1831.11,4618.94 1830.5,4619.16 1829.9,4619.41 1829.3,4619.66 1828.7,4619.93 1828.12,4620.22 1827.54,4620.52 1826.97,4620.83 1826.4,4621.16 1825.85,4621.51 1825.3,4621.86 1824.77,4622.23 1824.24,4622.61 1823.72,4623.01 1823.21,4623.41 1822.71,4623.83 1822.22,4624.27 1821.74,4624.71 1821.28,4625.17 1820.82,4625.63 1820.38,4626.11 1819.94,4626.6 1819.52,4627.1 1819.12,4627.61 1818.72,4628.13 1818.34,4628.66 1817.97,4629.19 1817.62,4629.74 1817.27,4630.29 1816.94,4630.86 1816.63,4631.43 1816.33,4632.01 1816.04,4632.59 1815.77,4633.19 1815.52,4633.79 1815.27,4634.39 1815.05,4635 1814.83,4635.62 1814.64,4636.24 1814.45,4636.87 1814.29,4637.5 1814.14,4638.13 1814,4638.77 1813.88,4639.41 1813.78,4640.06 1813.69,4640.7 1813.62,4641.35 1813.56,4642 1813.52,4642.65 1813.5,4643.3 1813.49,4643.96 1813.5,4644.61 1813.52,4645.26 1813.56,4645.91 1813.62,4646.56 1813.69,4647.21 1813.78,4647.86 1813.88,4648.5 1814,4649.14 1814.14,4649.78 1814.29,4650.41 1814.45,4651.04 1814.64,4651.67 1814.83,4652.29 1815.05,4652.91 1815.27,4653.52 1815.52,4654.13 1815.77,4654.73 1816.04,4655.32 1816.33,4655.91 1816.63,4656.48 1816.94,4657.06 1817.27,4657.62 1817.62,4658.17 1817.97,4658.72 1818.34,4659.26 1818.72,4659.79 1819.12,4660.31 1819.52,4660.82 1819.94,4661.32 1820.38,4661.8 1820.82,4662.28 1821.28,4662.75 1821.74,4663.2 1822.22,4663.65 1822.71,4664.08 1823.21,4664.5 1823.72,4664.91 1824.24,4665.3 1824.77,4665.68 1825.3,4666.05 1825.85,4666.41 1826.4,4666.75 1826.97,4667.08 1827.54,4667.39 1828.12,4667.69 1828.7,4667.98 1829.3,4668.25 1829.9,4668.51 1830.5,4668.75 1831.11,4668.98 1831.73,4669.19 1832.35,4669.39 1832.98,4669.57 1833.61,4669.74 1834.24,4669.89 1834.88,4670.02 1835.52,4670.14 1836.17,4670.24 1836.81,4670.33 1837.46,4670.4 1838.11,4670.46 1838.76,4670.5 1839.41,4670.52 1840.07,4670.53 1840.72,4670.52 1841.37,4670.5 1842.02,4670.46 1842.67,4670.4 1843.32,4670.33 1843.97,4670.24 1844.61,4670.14 1845.25,4670.02 1845.89,4669.89 1846.52,4669.74 1847.15,4669.57 1847.78,4669.39 1848.4,4669.19 1849.02,4668.98 1849.63,4668.75 1850.24,4668.51 1850.84,4668.25 1851.43,4667.98 1852.02,4667.69 1852.59,4667.39 1853.17,4667.08 1853.73,4666.75 1854.28,4666.41 1854.83,4666.05 1855.37,4665.68 1855.9,4665.3 1856.42,4664.91 1856.93,4664.5 1857.43,4664.08 1857.91,4663.65 1858.39,4663.2 1858.86,4662.75 1859.31,4662.28 1859.76,4661.8 1860.19,4661.32 1860.61,4660.82 1861.02,4660.31 1861.41,4659.79 1861.79,4659.26 1862.16,4658.72 1862.52,4658.17 1862.86,4657.62 1863.19,4657.06 1863.5,4656.48 1863.8,4655.91 1864.09,4655.32 1864.36,4654.73 1864.62,4654.13 1864.86,4653.52 1865.09,4652.91 1865.3,4652.29 1865.5,4651.67 1865.68,4651.04 1865.85,4650.41 1866,4649.78 1866.13,4649.14 1866.25,4648.5 1866.35,4647.86 1866.44,4647.21 1866.51,4646.56 1866.57,4645.91 1866.61,4645.26 1866.63,4644.61 1866.64,4643.96 "
         id="polyline28"
         style="vector-effect:none;fill:none;stroke:#ff0000;stroke-width:1.1811024;stroke-miterlimit:4;stroke-dasharray:none;stroke-opacity:1"
         transform="matrix(1.25,0,0,1.25,-460.01628,-1160.9888)" />
      <polyline
         points="1157.98,4643.96 1157.97,4643.3 1157.95,4642.65 1157.91,4642 1157.85,4641.35 1157.78,4640.7 1157.69,4640.06 1157.59,4639.41 1157.47,4638.77 1157.33,4638.13 1157.18,4637.5 1157.02,4636.87 1156.84,4636.24 1156.64,4635.62 1156.43,4635 1156.2,4634.39 1155.96,4633.79 1155.7,4633.19 1155.43,4632.59 1155.14,4632.01 1154.84,4631.43 1154.53,4630.86 1154.2,4630.29 1153.86,4629.74 1153.5,4629.19 1153.13,4628.66 1152.75,4628.13 1152.36,4627.61 1151.95,4627.1 1151.53,4626.6 1151.1,4626.11 1150.65,4625.63 1150.2,4625.17 1149.73,4624.71 1149.25,4624.27 1148.76,4623.83 1148.26,4623.41 1147.76,4623.01 1147.24,4622.61 1146.71,4622.23 1146.17,4621.86 1145.62,4621.51 1145.07,4621.16 1144.5,4620.83 1143.93,4620.52 1143.35,4620.22 1142.77,4619.93 1142.17,4619.66 1141.58,4619.41 1140.97,4619.16 1140.36,4618.94 1139.74,4618.72 1139.12,4618.53 1138.49,4618.34 1137.86,4618.18 1137.23,4618.03 1136.59,4617.89 1135.95,4617.77 1135.31,4617.67 1134.66,4617.58 1134.01,4617.51 1133.36,4617.45 1132.71,4617.41 1132.06,4617.39 1131.41,4617.38 1130.75,4617.39 1130.1,4617.41 1129.45,4617.45 1128.8,4617.51 1128.15,4617.58 1127.51,4617.67 1126.86,4617.77 1126.22,4617.89 1125.58,4618.03 1124.95,4618.18 1124.32,4618.34 1123.69,4618.53 1123.07,4618.72 1122.45,4618.94 1121.84,4619.16 1121.24,4619.41 1120.64,4619.66 1120.04,4619.93 1119.46,4620.22 1118.88,4620.52 1118.31,4620.83 1117.74,4621.16 1117.19,4621.51 1116.64,4621.86 1116.1,4622.23 1115.58,4622.61 1115.06,4623.01 1114.55,4623.41 1114.05,4623.83 1113.56,4624.27 1113.08,4624.71 1112.61,4625.17 1112.16,4625.63 1111.72,4626.11 1111.28,4626.6 1110.86,4627.1 1110.46,4627.61 1110.06,4628.13 1109.68,4628.66 1109.31,4629.19 1108.95,4629.74 1108.61,4630.29 1108.28,4630.86 1107.97,4631.43 1107.67,4632.01 1107.38,4632.59 1107.11,4633.19 1106.85,4633.79 1106.61,4634.39 1106.38,4635 1106.17,4635.62 1105.98,4636.24 1105.79,4636.87 1105.63,4637.5 1105.48,4638.13 1105.34,4638.77 1105.22,4639.41 1105.12,4640.06 1105.03,4640.7 1104.96,4641.35 1104.9,4642 1104.86,4642.65 1104.84,4643.3 1104.83,4643.96 1104.84,4644.61 1104.86,4645.26 1104.9,4645.91 1104.96,4646.56 1105.03,4647.21 1105.12,4647.86 1105.22,4648.5 1105.34,4649.14 1105.48,4649.78 1105.63,4650.41 1105.79,4651.04 1105.98,4651.67 1106.17,4652.29 1106.38,4652.91 1106.61,4653.52 1106.85,4654.13 1107.11,4654.73 1107.38,4655.32 1107.67,4655.91 1107.97,4656.48 1108.28,4657.06 1108.61,4657.62 1108.95,4658.17 1109.31,4658.72 1109.68,4659.26 1110.06,4659.79 1110.46,4660.31 1110.86,4660.82 1111.28,4661.32 1111.72,4661.8 1112.16,4662.28 1112.61,4662.75 1113.08,4663.2 1113.56,4663.65 1114.05,4664.08 1114.55,4664.5 1115.06,4664.91 1115.58,4665.3 1116.1,4665.68 1116.64,4666.05 1117.19,4666.41 1117.74,4666.75 1118.31,4667.08 1118.88,4667.39 1119.46,4667.69 1120.04,4667.98 1120.64,4668.25 1121.24,4668.51 1121.84,4668.75 1122.45,4668.98 1123.07,4669.19 1123.69,4669.39 1124.32,4669.57 1124.95,4669.74 1125.58,4669.89 1126.22,4670.02 1126.86,4670.14 1127.51,4670.24 1128.15,4670.33 1128.8,4670.4 1129.45,4670.46 1130.1,4670.5 1130.75,4670.52 1131.41,4670.53 1132.06,4670.52 1132.71,4670.5 1133.36,4670.46 1134.01,4670.4 1134.66,4670.33 1135.31,4670.24 1135.95,4670.14 1136.59,4670.02 1137.23,4669.89 1137.86,4669.74 1138.49,4669.57 1139.12,4669.39 1139.74,4669.19 1140.36,4668.98 1140.97,4668.75 1141.58,4668.51 1142.17,4668.25 1142.77,4667.98 1143.35,4667.69 1143.93,4667.39 1144.5,4667.08 1145.07,4666.75 1145.62,4666.41 1146.17,4666.05 1146.71,4665.68 1147.24,4665.3 1147.76,4664.91 1148.26,4664.5 1148.76,4664.08 1149.25,4663.65 1149.73,4663.2 1150.2,4662.75 1150.65,4662.28 1151.1,4661.8 1151.53,4661.32 1151.95,4660.82 1152.36,4660.31 1152.75,4659.79 1153.13,4659.26 1153.5,4658.72 1153.86,4658.17 1154.2,4657.62 1154.53,4657.06 1154.84,4656.48 1155.14,4655.91 1155.43,4655.32 1155.7,4654.73 1155.96,4654.13 1156.2,4653.52 1156.43,4652.91 1156.64,4652.29 1156.84,4651.67 1157.02,4651.04 1157.18,4650.41 1157.33,4649.78 1157.47,4649.14 1157.59,4648.5 1157.69,4647.86 1157.78,4647.21 1157.85,4646.56 1157.91,4645.91 1157.95,4645.26 1157.97,4644.61 1157.98,4643.96 "
         id="polyline30"
         style="vector-effect:none;fill:none;stroke:#ff0000;stroke-width:1.1811024;stroke-miterlimit:4;stroke-dasharray:none;stroke-opacity:1"
         transform="matrix(1.25,0,0,1.25,-282.85128,-1160.9888)" />
      <polyline
         points="1866.64,3935.3 1866.63,3934.64 1866.61,3933.99 1866.57,3933.34 1866.51,3932.69 1866.44,3932.04 1866.35,3931.4 1866.25,3930.75 1866.13,3930.11 1866,3929.47 1865.85,3928.84 1865.68,3928.21 1865.5,3927.58 1865.3,3926.96 1865.09,3926.34 1864.86,3925.73 1864.62,3925.13 1864.36,3924.53 1864.09,3923.93 1863.8,3923.35 1863.5,3922.77 1863.19,3922.2 1862.86,3921.63 1862.52,3921.08 1862.16,3920.53 1861.79,3919.99 1861.41,3919.47 1861.02,3918.95 1860.61,3918.44 1860.19,3917.94 1859.76,3917.45 1859.31,3916.97 1858.86,3916.5 1858.39,3916.05 1857.91,3915.61 1857.43,3915.17 1856.93,3914.75 1856.42,3914.35 1855.9,3913.95 1855.37,3913.57 1854.83,3913.2 1854.28,3912.84 1853.73,3912.5 1853.17,3912.17 1852.59,3911.86 1852.02,3911.56 1851.43,3911.27 1850.84,3911 1850.24,3910.74 1849.63,3910.5 1849.02,3910.27 1848.4,3910.06 1847.78,3909.87 1847.15,3909.68 1846.52,3909.52 1845.89,3909.37 1845.25,3909.23 1844.61,3909.11 1843.97,3909.01 1843.32,3908.92 1842.67,3908.85 1842.02,3908.79 1841.37,3908.75 1840.72,3908.73 1840.07,3908.72 1839.41,3908.73 1838.76,3908.75 1838.11,3908.79 1837.46,3908.85 1836.81,3908.92 1836.17,3909.01 1835.52,3909.11 1834.88,3909.23 1834.24,3909.37 1833.61,3909.52 1832.98,3909.68 1832.35,3909.87 1831.73,3910.06 1831.11,3910.27 1830.5,3910.5 1829.9,3910.74 1829.3,3911 1828.7,3911.27 1828.12,3911.56 1827.54,3911.86 1826.97,3912.17 1826.4,3912.5 1825.85,3912.84 1825.3,3913.2 1824.77,3913.57 1824.24,3913.95 1823.72,3914.35 1823.21,3914.75 1822.71,3915.17 1822.22,3915.61 1821.74,3916.05 1821.28,3916.5 1820.82,3916.97 1820.38,3917.45 1819.94,3917.94 1819.52,3918.44 1819.12,3918.95 1818.72,3919.47 1818.34,3919.99 1817.97,3920.53 1817.62,3921.08 1817.27,3921.63 1816.94,3922.2 1816.63,3922.77 1816.33,3923.35 1816.04,3923.93 1815.77,3924.53 1815.52,3925.13 1815.27,3925.73 1815.05,3926.34 1814.83,3926.96 1814.64,3927.58 1814.45,3928.21 1814.29,3928.84 1814.14,3929.47 1814,3930.11 1813.88,3930.75 1813.78,3931.4 1813.69,3932.04 1813.62,3932.69 1813.56,3933.34 1813.52,3933.99 1813.5,3934.64 1813.49,3935.3 1813.5,3935.95 1813.52,3936.6 1813.56,3937.25 1813.62,3937.9 1813.69,3938.55 1813.78,3939.2 1813.88,3939.84 1814,3940.48 1814.14,3941.12 1814.29,3941.75 1814.45,3942.38 1814.64,3943.01 1814.83,3943.63 1815.05,3944.25 1815.27,3944.86 1815.52,3945.47 1815.77,3946.06 1816.04,3946.66 1816.33,3947.24 1816.63,3947.82 1816.94,3948.39 1817.27,3948.96 1817.62,3949.51 1817.97,3950.06 1818.34,3950.6 1818.72,3951.13 1819.12,3951.65 1819.52,3952.15 1819.94,3952.65 1820.38,3953.14 1820.82,3953.62 1821.28,3954.09 1821.74,3954.54 1822.22,3954.99 1822.71,3955.42 1823.21,3955.84 1823.72,3956.25 1824.24,3956.64 1824.77,3957.02 1825.3,3957.39 1825.85,3957.75 1826.4,3958.09 1826.97,3958.42 1827.54,3958.73 1828.12,3959.03 1828.7,3959.32 1829.3,3959.59 1829.9,3959.85 1830.5,3960.09 1831.11,3960.32 1831.73,3960.53 1832.35,3960.73 1832.98,3960.91 1833.61,3961.07 1834.24,3961.22 1834.88,3961.36 1835.52,3961.48 1836.17,3961.58 1836.81,3961.67 1837.46,3961.74 1838.11,3961.8 1838.76,3961.84 1839.41,3961.86 1840.07,3961.87 1840.72,3961.86 1841.37,3961.84 1842.02,3961.8 1842.67,3961.74 1843.32,3961.67 1843.97,3961.58 1844.61,3961.48 1845.25,3961.36 1845.89,3961.22 1846.52,3961.07 1847.15,3960.91 1847.78,3960.73 1848.4,3960.53 1849.02,3960.32 1849.63,3960.09 1850.24,3959.85 1850.84,3959.59 1851.43,3959.32 1852.02,3959.03 1852.59,3958.73 1853.17,3958.42 1853.73,3958.09 1854.28,3957.75 1854.83,3957.39 1855.37,3957.02 1855.9,3956.64 1856.42,3956.25 1856.93,3955.84 1857.43,3955.42 1857.91,3954.99 1858.39,3954.54 1858.86,3954.09 1859.31,3953.62 1859.76,3953.14 1860.19,3952.65 1860.61,3952.15 1861.02,3951.65 1861.41,3951.13 1861.79,3950.6 1862.16,3950.06 1862.52,3949.51 1862.86,3948.96 1863.19,3948.39 1863.5,3947.82 1863.8,3947.24 1864.09,3946.66 1864.36,3946.06 1864.62,3945.47 1864.86,3944.86 1865.09,3944.25 1865.3,3943.63 1865.5,3943.01 1865.68,3942.38 1865.85,3941.75 1866,3941.12 1866.13,3940.48 1866.25,3939.84 1866.35,3939.2 1866.44,3938.55 1866.51,3937.9 1866.57,3937.25 1866.61,3936.6 1866.63,3935.95 1866.64,3935.3 "
         id="polyline32"
         style="vector-effect:none;fill:none;stroke:#ff0000;stroke-width:1.1811024;stroke-miterlimit:4;stroke-dasharray:none;stroke-opacity:1"
         transform="matrix(1.25,0,0,1.25,-460.01628,-983.82377)" />
      <polyline
         points="576.288,4703.01 576.277,4702.14 576.245,4701.27 576.192,4700.41 576.117,4699.54 576.021,4698.67 575.904,4697.81 575.766,4696.95 575.607,4696.1 575.427,4695.25 575.226,4694.4 575.004,4693.56 574.762,4692.73 574.499,4691.9 574.216,4691.08 573.913,4690.26 573.59,4689.45 573.248,4688.65 572.886,4687.86 572.504,4687.08 572.104,4686.31 571.684,4685.55 571.246,4684.8 570.79,4684.06 570.316,4683.33 569.824,4682.61 569.315,4681.9 568.788,4681.21 568.245,4680.53 567.685,4679.87 567.109,4679.22 566.517,4678.58 565.909,4677.96 565.287,4677.35 564.65,4676.76 563.998,4676.18 563.333,4675.62 562.654,4675.08 561.962,4674.55 561.257,4674.04 560.54,4673.55 559.811,4673.08 559.071,4672.62 558.319,4672.18 557.558,4671.76 556.786,4671.36 556.004,4670.98 555.213,4670.62 554.414,4670.28 553.607,4669.95 552.792,4669.65 551.969,4669.37 551.14,4669.1 550.305,4668.86 549.464,4668.64 548.618,4668.44 547.767,4668.26 546.912,4668.1 546.054,4667.96 545.192,4667.85 544.328,4667.75 543.461,4667.68 542.593,4667.62 541.724,4667.59 540.855,4667.58 539.985,4667.59 539.116,4667.62 538.248,4667.68 537.381,4667.75 536.517,4667.85 535.655,4667.96 534.797,4668.1 533.942,4668.26 533.091,4668.44 532.245,4668.64 531.404,4668.86 530.569,4669.1 529.74,4669.37 528.917,4669.65 528.102,4669.95 527.295,4670.28 526.496,4670.62 525.705,4670.98 524.923,4671.36 524.151,4671.76 523.39,4672.18 522.638,4672.62 521.898,4673.08 521.169,4673.55 520.452,4674.04 519.747,4674.55 519.055,4675.08 518.376,4675.62 517.711,4676.18 517.059,4676.76 516.422,4677.35 515.8,4677.96 515.192,4678.58 514.6,4679.22 514.024,4679.87 513.464,4680.53 512.921,4681.21 512.394,4681.9 511.885,4682.61 511.393,4683.33 510.919,4684.06 510.463,4684.8 510.025,4685.55 509.605,4686.31 509.205,4687.08 508.823,4687.86 508.461,4688.65 508.119,4689.45 507.796,4690.26 507.493,4691.08 507.21,4691.9 506.947,4692.73 506.705,4693.56 506.483,4694.4 506.282,4695.25 506.102,4696.1 505.943,4696.95 505.805,4697.81 505.688,4698.67 505.592,4699.54 505.517,4700.41 505.464,4701.27 505.432,4702.14 505.421,4703.01 505.432,4703.88 505.464,4704.75 505.517,4705.62 505.592,4706.49 505.688,4707.35 505.805,4708.21 505.943,4709.07 506.102,4709.92 506.282,4710.78 506.483,4711.62 506.705,4712.46 506.947,4713.3 507.21,4714.13 507.493,4714.95 507.796,4715.76 508.119,4716.57 508.461,4717.37 508.823,4718.16 509.205,4718.94 509.605,4719.72 510.025,4720.48 510.463,4721.23 510.919,4721.97 511.393,4722.7 511.885,4723.41 512.394,4724.12 512.921,4724.81 513.464,4725.49 514.024,4726.16 514.6,4726.81 515.192,4727.44 515.8,4728.07 516.422,4728.67 517.059,4729.27 517.711,4729.84 518.376,4730.4 519.055,4730.95 519.747,4731.47 520.452,4731.98 521.169,4732.47 521.898,4732.95 522.638,4733.4 523.39,4733.84 524.151,4734.26 524.923,4734.66 525.705,4735.04 526.496,4735.41 527.295,4735.75 528.102,4736.07 528.917,4736.37 529.74,4736.66 530.569,4736.92 531.404,4737.16 532.245,4737.38 533.091,4737.58 533.942,4737.76 534.797,4737.92 535.655,4738.06 536.517,4738.18 537.381,4738.27 538.248,4738.35 539.116,4738.4 539.985,4738.43 540.855,4738.45 541.724,4738.43 542.593,4738.4 543.461,4738.35 544.328,4738.27 545.192,4738.18 546.054,4738.06 546.912,4737.92 547.767,4737.76 548.618,4737.58 549.464,4737.38 550.305,4737.16 551.14,4736.92 551.969,4736.66 552.792,4736.37 553.607,4736.07 554.414,4735.75 555.213,4735.41 556.004,4735.04 556.786,4734.66 557.558,4734.26 558.319,4733.84 559.071,4733.4 559.811,4732.95 560.54,4732.47 561.257,4731.98 561.962,4731.47 562.654,4730.95 563.333,4730.4 563.998,4729.84 564.65,4729.27 565.287,4728.67 565.909,4728.07 566.517,4727.44 567.109,4726.81 567.685,4726.16 568.245,4725.49 568.788,4724.81 569.315,4724.12 569.824,4723.41 570.316,4722.7 570.79,4721.97 571.246,4721.23 571.684,4720.48 572.104,4719.72 572.504,4718.94 572.886,4718.16 573.248,4717.37 573.59,4716.57 573.913,4715.76 574.216,4714.95 574.499,4714.13 574.762,4713.3 575.004,4712.46 575.226,4711.62 575.427,4710.78 575.607,4709.92 575.766,4709.07 575.904,4708.21 576.021,4707.35 576.117,4706.49 576.192,4705.62 576.245,4704.75 576.277,4703.88 576.288,4703.01 "
         id="polyline34"
         style="vector-effect:none;fill:none;stroke:#ff0000;stroke-width:1.1811024;stroke-miterlimit:4;stroke-dasharray:none;stroke-opacity:1" />
      <polyline
         points="576.288,2695.14 576.277,2694.27 576.245,2693.4 576.192,2692.53 576.117,2691.67 576.021,2690.8 575.904,2689.94 575.766,2689.08 575.607,2688.23 575.427,2687.37 575.226,2686.53 575.004,2685.69 574.762,2684.85 574.499,2684.02 574.216,2683.2 573.913,2682.39 573.59,2681.58 573.248,2680.78 572.886,2679.99 572.504,2679.21 572.104,2678.44 571.684,2677.67 571.246,2676.92 570.79,2676.18 570.316,2675.45 569.824,2674.74 569.315,2674.03 568.788,2673.34 568.245,2672.66 567.685,2671.99 567.109,2671.34 566.517,2670.71 565.909,2670.08 565.287,2669.48 564.65,2668.88 563.998,2668.31 563.333,2667.75 562.654,2667.2 561.962,2666.68 561.257,2666.17 560.54,2665.68 559.811,2665.2 559.071,2664.75 558.319,2664.31 557.558,2663.89 556.786,2663.49 556.004,2663.11 555.213,2662.74 554.414,2662.4 553.607,2662.08 552.792,2661.78 551.969,2661.49 551.14,2661.23 550.305,2660.99 549.464,2660.77 548.618,2660.57 547.767,2660.39 546.912,2660.23 546.054,2660.09 545.192,2659.97 544.328,2659.88 543.461,2659.8 542.593,2659.75 541.724,2659.72 540.855,2659.71 539.985,2659.72 539.116,2659.75 538.248,2659.8 537.381,2659.88 536.517,2659.97 535.655,2660.09 534.797,2660.23 533.942,2660.39 533.091,2660.57 532.245,2660.77 531.404,2660.99 530.569,2661.23 529.74,2661.49 528.917,2661.78 528.102,2662.08 527.295,2662.4 526.496,2662.74 525.705,2663.11 524.923,2663.49 524.151,2663.89 523.39,2664.31 522.638,2664.75 521.898,2665.2 521.169,2665.68 520.452,2666.17 519.747,2666.68 519.055,2667.2 518.376,2667.75 517.711,2668.31 517.059,2668.88 516.422,2669.48 515.8,2670.08 515.192,2670.71 514.6,2671.34 514.024,2671.99 513.464,2672.66 512.921,2673.34 512.394,2674.03 511.885,2674.74 511.393,2675.45 510.919,2676.18 510.463,2676.92 510.025,2677.67 509.605,2678.44 509.205,2679.21 508.823,2679.99 508.461,2680.78 508.119,2681.58 507.796,2682.39 507.493,2683.2 507.21,2684.02 506.947,2684.85 506.705,2685.69 506.483,2686.53 506.282,2687.37 506.102,2688.23 505.943,2689.08 505.805,2689.94 505.688,2690.8 505.592,2691.67 505.517,2692.53 505.464,2693.4 505.432,2694.27 505.421,2695.14 505.432,2696.01 505.464,2696.88 505.517,2697.74 505.592,2698.61 505.688,2699.48 505.805,2700.34 505.943,2701.2 506.102,2702.05 506.282,2702.9 506.483,2703.75 506.705,2704.59 506.947,2705.42 507.21,2706.25 507.493,2707.08 507.796,2707.89 508.119,2708.7 508.461,2709.5 508.823,2710.29 509.205,2711.07 509.605,2711.84 510.025,2712.6 510.463,2713.35 510.919,2714.09 511.393,2714.82 511.885,2715.54 512.394,2716.25 512.921,2716.94 513.464,2717.62 514.024,2718.28 514.6,2718.93 515.192,2719.57 515.8,2720.19 516.422,2720.8 517.059,2721.39 517.711,2721.97 518.376,2722.53 519.055,2723.07 519.747,2723.6 520.452,2724.11 521.169,2724.6 521.898,2725.07 522.638,2725.53 523.39,2725.97 524.151,2726.39 524.923,2726.79 525.705,2727.17 526.496,2727.53 527.295,2727.87 528.102,2728.2 528.917,2728.5 529.74,2728.78 530.569,2729.05 531.404,2729.29 532.245,2729.51 533.091,2729.71 533.942,2729.89 534.797,2730.05 535.655,2730.19 536.517,2730.3 537.381,2730.4 538.248,2730.48 539.116,2730.53 539.985,2730.56 540.855,2730.57 541.724,2730.56 542.593,2730.53 543.461,2730.48 544.328,2730.4 545.192,2730.3 546.054,2730.19 546.912,2730.05 547.767,2729.89 548.618,2729.71 549.464,2729.51 550.305,2729.29 551.14,2729.05 551.969,2728.78 552.792,2728.5 553.607,2728.2 554.414,2727.87 555.213,2727.53 556.004,2727.17 556.786,2726.79 557.558,2726.39 558.319,2725.97 559.071,2725.53 559.811,2725.07 560.54,2724.6 561.257,2724.11 561.962,2723.6 562.654,2723.07 563.333,2722.53 563.998,2721.97 564.65,2721.39 565.287,2720.8 565.909,2720.19 566.517,2719.57 567.109,2718.93 567.685,2718.28 568.245,2717.62 568.788,2716.94 569.315,2716.25 569.824,2715.54 570.316,2714.82 570.79,2714.09 571.246,2713.35 571.684,2712.6 572.104,2711.84 572.504,2711.07 572.886,2710.29 573.248,2709.5 573.59,2708.7 573.913,2707.89 574.216,2707.08 574.499,2706.25 574.762,2705.42 575.004,2704.59 575.226,2703.75 575.427,2702.9 575.607,2702.05 575.766,2701.2 575.904,2700.34 576.021,2699.48 576.117,2698.61 576.192,2697.74 576.245,2696.88 576.277,2696.01 576.288,2695.14 "
         id="polyline36"
         style="vector-effect:none;fill:none;stroke:#ff0000;stroke-width:1.1811024;stroke-miterlimit:4;stroke-dasharray:none;stroke-opacity:1" />
      <polyline
         points="2466.05,2695.14 2466.04,2694.27 2466.01,2693.4 2465.96,2692.53 2465.88,2691.67 2465.78,2690.8 2465.67,2689.94 2465.53,2689.08 2465.37,2688.23 2465.19,2687.37 2464.99,2686.53 2464.77,2685.69 2464.53,2684.85 2464.26,2684.02 2463.98,2683.2 2463.68,2682.39 2463.35,2681.58 2463.01,2680.78 2462.65,2679.99 2462.27,2679.21 2461.87,2678.44 2461.45,2677.67 2461.01,2676.92 2460.55,2676.18 2460.08,2675.45 2459.59,2674.74 2459.08,2674.03 2458.55,2673.34 2458.01,2672.66 2457.45,2671.99 2456.87,2671.34 2456.28,2670.71 2455.67,2670.08 2455.05,2669.48 2454.41,2668.88 2453.76,2668.31 2453.1,2667.75 2452.42,2667.2 2451.73,2666.68 2451.02,2666.17 2450.3,2665.68 2449.57,2665.2 2448.83,2664.75 2448.08,2664.31 2447.32,2663.89 2446.55,2663.49 2445.77,2663.11 2444.98,2662.74 2444.18,2662.4 2443.37,2662.08 2442.56,2661.78 2441.73,2661.49 2440.9,2661.23 2440.07,2660.99 2439.23,2660.77 2438.38,2660.57 2437.53,2660.39 2436.68,2660.23 2435.82,2660.09 2434.96,2659.97 2434.09,2659.88 2433.22,2659.8 2432.36,2659.75 2431.49,2659.72 2430.62,2659.71 2429.75,2659.72 2428.88,2659.75 2428.01,2659.8 2427.15,2659.88 2426.28,2659.97 2425.42,2660.09 2424.56,2660.23 2423.71,2660.39 2422.85,2660.57 2422.01,2660.77 2421.17,2660.99 2420.33,2661.23 2419.5,2661.49 2418.68,2661.78 2417.87,2662.08 2417.06,2662.4 2416.26,2662.74 2415.47,2663.11 2414.69,2663.49 2413.92,2663.89 2413.15,2664.31 2412.4,2664.75 2411.66,2665.2 2410.93,2665.68 2410.22,2666.17 2409.51,2666.68 2408.82,2667.2 2408.14,2667.75 2407.47,2668.31 2406.82,2668.88 2406.19,2669.48 2405.56,2670.08 2404.96,2670.71 2404.36,2671.34 2403.79,2671.99 2403.23,2672.66 2402.68,2673.34 2402.16,2674.03 2401.65,2674.74 2401.16,2675.45 2400.68,2676.18 2400.23,2676.92 2399.79,2677.67 2399.37,2678.44 2398.97,2679.21 2398.59,2679.99 2398.23,2680.78 2397.88,2681.58 2397.56,2682.39 2397.26,2683.2 2396.97,2684.02 2396.71,2684.85 2396.47,2685.69 2396.25,2686.53 2396.05,2687.37 2395.87,2688.23 2395.71,2689.08 2395.57,2689.94 2395.45,2690.8 2395.36,2691.67 2395.28,2692.53 2395.23,2693.4 2395.2,2694.27 2395.19,2695.14 2395.2,2696.01 2395.23,2696.88 2395.28,2697.74 2395.36,2698.61 2395.45,2699.48 2395.57,2700.34 2395.71,2701.2 2395.87,2702.05 2396.05,2702.9 2396.25,2703.75 2396.47,2704.59 2396.71,2705.42 2396.97,2706.25 2397.26,2707.08 2397.56,2707.89 2397.88,2708.7 2398.23,2709.5 2398.59,2710.29 2398.97,2711.07 2399.37,2711.84 2399.79,2712.6 2400.23,2713.35 2400.68,2714.09 2401.16,2714.82 2401.65,2715.54 2402.16,2716.25 2402.68,2716.94 2403.23,2717.62 2403.79,2718.28 2404.36,2718.93 2404.96,2719.57 2405.56,2720.19 2406.19,2720.8 2406.82,2721.39 2407.47,2721.97 2408.14,2722.53 2408.82,2723.07 2409.51,2723.6 2410.22,2724.11 2410.93,2724.6 2411.66,2725.07 2412.4,2725.53 2413.15,2725.97 2413.92,2726.39 2414.69,2726.79 2415.47,2727.17 2416.26,2727.53 2417.06,2727.87 2417.87,2728.2 2418.68,2728.5 2419.5,2728.78 2420.33,2729.05 2421.17,2729.29 2422.01,2729.51 2422.85,2729.71 2423.71,2729.89 2424.56,2730.05 2425.42,2730.19 2426.28,2730.3 2427.15,2730.4 2428.01,2730.48 2428.88,2730.53 2429.75,2730.56 2430.62,2730.57 2431.49,2730.56 2432.36,2730.53 2433.22,2730.48 2434.09,2730.4 2434.96,2730.3 2435.82,2730.19 2436.68,2730.05 2437.53,2729.89 2438.38,2729.71 2439.23,2729.51 2440.07,2729.29 2440.9,2729.05 2441.73,2728.78 2442.56,2728.5 2443.37,2728.2 2444.18,2727.87 2444.98,2727.53 2445.77,2727.17 2446.55,2726.79 2447.32,2726.39 2448.08,2725.97 2448.83,2725.53 2449.57,2725.07 2450.3,2724.6 2451.02,2724.11 2451.73,2723.6 2452.42,2723.07 2453.1,2722.53 2453.76,2721.97 2454.41,2721.39 2455.05,2720.8 2455.67,2720.19 2456.28,2719.57 2456.87,2718.93 2457.45,2718.28 2458.01,2717.62 2458.55,2716.94 2459.08,2716.25 2459.59,2715.54 2460.08,2714.82 2460.55,2714.09 2461.01,2713.35 2461.45,2712.6 2461.87,2711.84 2462.27,2711.07 2462.65,2710.29 2463.01,2709.5 2463.35,2708.7 2463.68,2707.89 2463.98,2707.08 2464.26,2706.25 2464.53,2705.42 2464.77,2704.59 2464.99,2703.75 2465.19,2702.9 2465.37,2702.05 2465.53,2701.2 2465.67,2700.34 2465.78,2699.48 2465.88,2698.61 2465.96,2697.74 2466.01,2696.88 2466.04,2696.01 2466.05,2695.14 "
         id="polyline38"
         style="vector-effect:none;fill:none;stroke:#ff0000;stroke-width:1.1811024;stroke-miterlimit:4;stroke-dasharray:none;stroke-opacity:1" />
      <polyline
         points="2466.05,4703.01 2466.04,4702.14 2466.01,4701.27 2465.96,4700.41 2465.88,4699.54 2465.78,4698.67 2465.67,4697.81 2465.53,4696.95 2465.37,4696.1 2465.19,4695.25 2464.99,4694.4 2464.77,4693.56 2464.53,4692.73 2464.26,4691.9 2463.98,4691.08 2463.68,4690.26 2463.35,4689.45 2463.01,4688.65 2462.65,4687.86 2462.27,4687.08 2461.87,4686.31 2461.45,4685.55 2461.01,4684.8 2460.55,4684.06 2460.08,4683.33 2459.59,4682.61 2459.08,4681.9 2458.55,4681.21 2458.01,4680.53 2457.45,4679.87 2456.87,4679.22 2456.28,4678.58 2455.67,4677.96 2455.05,4677.35 2454.41,4676.76 2453.76,4676.18 2453.1,4675.62 2452.42,4675.08 2451.73,4674.55 2451.02,4674.04 2450.3,4673.55 2449.57,4673.08 2448.83,4672.62 2448.08,4672.18 2447.32,4671.76 2446.55,4671.36 2445.77,4670.98 2444.98,4670.62 2444.18,4670.28 2443.37,4669.95 2442.56,4669.65 2441.73,4669.37 2440.9,4669.1 2440.07,4668.86 2439.23,4668.64 2438.38,4668.44 2437.53,4668.26 2436.68,4668.1 2435.82,4667.96 2434.96,4667.85 2434.09,4667.75 2433.22,4667.68 2432.36,4667.62 2431.49,4667.59 2430.62,4667.58 2429.75,4667.59 2428.88,4667.62 2428.01,4667.68 2427.15,4667.75 2426.28,4667.85 2425.42,4667.96 2424.56,4668.1 2423.71,4668.26 2422.85,4668.44 2422.01,4668.64 2421.17,4668.86 2420.33,4669.1 2419.5,4669.37 2418.68,4669.65 2417.87,4669.95 2417.06,4670.28 2416.26,4670.62 2415.47,4670.98 2414.69,4671.36 2413.92,4671.76 2413.15,4672.18 2412.4,4672.62 2411.66,4673.08 2410.93,4673.55 2410.22,4674.04 2409.51,4674.55 2408.82,4675.08 2408.14,4675.62 2407.47,4676.18 2406.82,4676.76 2406.19,4677.35 2405.56,4677.96 2404.96,4678.58 2404.36,4679.22 2403.79,4679.87 2403.23,4680.53 2402.68,4681.21 2402.16,4681.9 2401.65,4682.61 2401.16,4683.33 2400.68,4684.06 2400.23,4684.8 2399.79,4685.55 2399.37,4686.31 2398.97,4687.08 2398.59,4687.86 2398.23,4688.65 2397.88,4689.45 2397.56,4690.26 2397.26,4691.08 2396.97,4691.9 2396.71,4692.73 2396.47,4693.56 2396.25,4694.4 2396.05,4695.25 2395.87,4696.1 2395.71,4696.95 2395.57,4697.81 2395.45,4698.67 2395.36,4699.54 2395.28,4700.41 2395.23,4701.27 2395.2,4702.14 2395.19,4703.01 2395.2,4703.88 2395.23,4704.75 2395.28,4705.62 2395.36,4706.49 2395.45,4707.35 2395.57,4708.21 2395.71,4709.07 2395.87,4709.92 2396.05,4710.78 2396.25,4711.62 2396.47,4712.46 2396.71,4713.3 2396.97,4714.13 2397.26,4714.95 2397.56,4715.76 2397.88,4716.57 2398.23,4717.37 2398.59,4718.16 2398.97,4718.94 2399.37,4719.72 2399.79,4720.48 2400.23,4721.23 2400.68,4721.97 2401.16,4722.7 2401.65,4723.41 2402.16,4724.12 2402.68,4724.81 2403.23,4725.49 2403.79,4726.16 2404.36,4726.81 2404.96,4727.44 2405.56,4728.07 2406.19,4728.67 2406.82,4729.27 2407.47,4729.84 2408.14,4730.4 2408.82,4730.95 2409.51,4731.47 2410.22,4731.98 2410.93,4732.47 2411.66,4732.95 2412.4,4733.4 2413.15,4733.84 2413.92,4734.26 2414.69,4734.66 2415.47,4735.04 2416.26,4735.41 2417.06,4735.75 2417.87,4736.07 2418.68,4736.37 2419.5,4736.66 2420.33,4736.92 2421.17,4737.16 2422.01,4737.38 2422.85,4737.58 2423.71,4737.76 2424.56,4737.92 2425.42,4738.06 2426.28,4738.18 2427.15,4738.27 2428.01,4738.35 2428.88,4738.4 2429.75,4738.43 2430.62,4738.45 2431.49,4738.43 2432.36,4738.4 2433.22,4738.35 2434.09,4738.27 2434.96,4738.18 2435.82,4738.06 2436.68,4737.92 2437.53,4737.76 2438.38,4737.58 2439.23,4737.38 2440.07,4737.16 2440.9,4736.92 2441.73,4736.66 2442.56,4736.37 2443.37,4736.07 2444.18,4735.75 2444.98,4735.41 2445.77,4735.04 2446.55,4734.66 2447.32,4734.26 2448.08,4733.84 2448.83,4733.4 2449.57,4732.95 2450.3,4732.47 2451.02,4731.98 2451.73,4731.47 2452.42,4730.95 2453.1,4730.4 2453.76,4729.84 2454.41,4729.27 2455.05,4728.67 2455.67,4728.07 2456.28,4727.44 2456.87,4726.81 2457.45,4726.16 2458.01,4725.49 2458.55,4724.81 2459.08,4724.12 2459.59,4723.41 2460.08,4722.7 2460.55,4721.97 2461.01,4721.23 2461.45,4720.48 2461.87,4719.72 2462.27,4718.94 2462.65,4718.16 2463.01,4717.37 2463.35,4716.57 2463.68,4715.76 2463.98,4714.95 2464.26,4714.13 2464.53,4713.3 2464.77,4712.46 2464.99,4711.62 2465.19,4710.78 2465.37,4709.92 2465.53,4709.07 2465.67,4708.21 2465.78,4707.35 2465.88,4706.49 2465.96,4705.62 2466.01,4704.75 2466.04,4703.88 2466.05,4703.01 "
         id="polyline40"
         style="vector-effect:none;fill:none;stroke:#ff0000;stroke-width:1.1811024;stroke-miterlimit:4;stroke-dasharray:none;stroke-opacity:1" />
      <polyline
         points="2548.73,391.989 2548.73,4762.07 "
         id="polyline42"
         style="vector-effect:none;fill:none;stroke:#ff0000;stroke-width:1.1811024;stroke-miterlimit:4;stroke-dasharray:none;stroke-opacity:1" />
      <polyline
         points="422.744,391.989 422.744,4762.07 "
         id="polyline44"
         style="vector-effect:none;fill:none;stroke:#ff0000;stroke-width:1.1811024;stroke-miterlimit:4;stroke-dasharray:none;stroke-opacity:1" />
      <polyline
         points="481.799,332.933 2489.67,332.933 "
         id="polyline46"
         style="vector-effect:none;fill:none;stroke:#ff0000;stroke-width:1.1811024;stroke-miterlimit:4;stroke-dasharray:none;stroke-opacity:1" />
    </g>
    <g
       font-size="12"
       font-weight="400"
       font-style="normal"
       id="g50"
       style="font-style:normal;font-weight:400;font-size:12px;font-family:Arial;fill:none;stroke:#000000;stroke-width:1;stroke-linecap:square;stroke-linejoin:bevel;stroke-opacity:1" />
  </g>
</svg>
