<?xml version="1.0" encoding="UTF-8" standalone="no"?>
<svg
   xmlns:dc="http://purl.org/dc/elements/1.1/"
   xmlns:cc="http://creativecommons.org/ns#"
   xmlns:rdf="http://www.w3.org/1999/02/22-rdf-syntax-ns#"
   xmlns:svg="http://www.w3.org/2000/svg"
   xmlns="http://www.w3.org/2000/svg"
   xmlns:sodipodi="http://sodipodi.sourceforge.net/DTD/sodipodi-0.dtd"
   xmlns:inkscape="http://www.inkscape.org/namespaces/inkscape"
   width="180.0957mm"
   height="380.09039mm"
   viewBox="0 0 2127.1218 4489.2565"
   version="1.2"
   id="svg62"
   sodipodi:docname="Plaque_Base_Ez_Wheel.svg"
   inkscape:version="0.92.4 (5da689c313, 2019-01-14)">
  <metadata
     id="metadata66">
    <rdf:RDF>
      <cc:Work
         rdf:about="">
        <dc:format>image/svg+xml</dc:format>
        <dc:type
           rdf:resource="http://purl.org/dc/dcmitype/StillImage" />
      </cc:Work>
    </rdf:RDF>
  </metadata>
  <sodipodi:namedview
     pagecolor="#ffffff"
     bordercolor="#666666"
     borderopacity="1"
     objecttolerance="10"
     gridtolerance="10"
     guidetolerance="10"
     inkscape:pageopacity="0"
     inkscape:pageshadow="2"
     inkscape:window-width="1920"
     inkscape:window-height="1017"
     id="namedview64"
     showgrid="false"
     inkscape:zoom="0.29698983"
     inkscape:cx="903.19797"
     inkscape:cy="197.88404"
     inkscape:window-x="-8"
     inkscape:window-y="-8"
     inkscape:window-maximized="1"
     inkscape:current-layer="g60" />
  <defs
     id="defs2" />
  <g
     id="g60"
     style="fill:none;fill-rule:evenodd;stroke:#000000;stroke-width:1;stroke-linecap:square;stroke-linejoin:bevel"
     transform="translate(-2210.2049,-560.51712)">
    <g
       font-size="12"
       font-weight="400"
       font-style="normal"
       id="g8"
       style="font-style:normal;font-weight:400;font-size:12px;font-family:Arial;fill:none;stroke:#000000;stroke-width:1;stroke-linecap:square;stroke-linejoin:bevel;stroke-opacity:1" />
    <g
       stroke-miterlimit="2"
       font-size="12"
       font-weight="400"
       font-style="normal"
       id="g10"
       style="font-style:normal;font-weight:400;font-size:12px;font-family:Arial;fill:#000000;fill-opacity:1;stroke:#000000;stroke-width:1;stroke-linecap:butt;stroke-linejoin:miter;stroke-miterlimit:2;stroke-opacity:1" />
    <g
       font-size="12"
       font-weight="400"
       font-style="normal"
       id="g58"
       style="font-style:normal;font-weight:400;font-size:12px;font-family:Arial;fill:none;stroke:#000000;stroke-width:1;stroke-linecap:square;stroke-linejoin:bevel;stroke-opacity:1" />
    <g
       style="font-style:normal;font-weight:400;font-size:12px;font-family:Arial;fill:none;fill-opacity:1;stroke:#ff0000;stroke-width:1.18110645;stroke-linecap:round;stroke-linejoin:bevel;stroke-miterlimit:4;stroke-dasharray:none;stroke-opacity:1"
       transform="translate(137.98582,-644.95904)"
       font-size="12"
       font-weight="400"
       font-style="normal"
       id="g56">
      <polyline
         style="vector-effect:none;fill:none;stroke:#ff0000;stroke-width:1.18110645;stroke-miterlimit:4;stroke-dasharray:none;stroke-opacity:1"
         points="2131.86,1206.05 2127.45,1206.21 2123.06,1206.71 2118.72,1207.53 2114.46,1208.67 2110.29,1210.13 2106.24,1211.89 2102.33,1213.96 2098.6,1216.31 2095.04,1218.93 2091.69,1221.81 2088.57,1224.93 2085.69,1228.28 2083.07,1231.83 2080.72,1235.57 2078.66,1239.48 2076.89,1243.53 2075.43,1247.69 2074.29,1251.96 2073.47,1256.3 2072.97,1260.69 2072.81,1265.1 "
         id="polyline12" />
      <polyline
         style="vector-effect:none;fill:none;stroke:#ff0000;stroke-width:1.18110645;stroke-miterlimit:4;stroke-dasharray:none;stroke-opacity:1"
         points="4198.75,1265.1 4198.58,1260.69 4198.09,1256.3 4197.27,1251.96 4196.12,1247.69 4194.66,1243.53 4192.9,1239.48 4190.83,1235.57 4188.48,1231.83 4185.86,1228.28 4182.98,1224.93 4179.86,1221.81 4176.51,1218.93 4172.96,1216.31 4169.22,1213.96 4165.31,1211.89 4161.27,1210.13 4157.1,1208.67 4152.83,1207.53 4148.49,1206.71 4144.1,1206.21 4139.69,1206.05 "
         id="polyline14" />
      <polyline
         style="vector-effect:none;fill:none;stroke:#ff0000;stroke-width:1.18110645;stroke-miterlimit:4;stroke-dasharray:none;stroke-opacity:1"
         points="4139.69,5694.14 4144.1,5693.97 4148.49,5693.48 4152.83,5692.66 4157.1,5691.51 4161.27,5690.05 4165.31,5688.29 4169.22,5686.23 4172.96,5683.88 4176.51,5681.25 4179.86,5678.37 4182.98,5675.25 4185.86,5671.9 4188.48,5668.35 4190.83,5664.61 4192.9,5660.71 4194.66,5656.66 4196.12,5652.49 4197.27,5648.22 4198.09,5643.88 4198.58,5639.5 4198.75,5635.08 "
         id="polyline16" />
      <polyline
         style="vector-effect:none;fill:none;stroke:#ff0000;stroke-width:1.18110645;stroke-miterlimit:4;stroke-dasharray:none;stroke-opacity:1"
         points="4139.69,5694.14 2131.86,5694.14 "
         id="polyline18" />
      <polyline
         style="vector-effect:none;fill:none;stroke:#ff0000;stroke-width:1.18110645;stroke-miterlimit:4;stroke-dasharray:none;stroke-opacity:1"
         points="2072.81,5635.08 2072.97,5639.5 2073.47,5643.88 2074.29,5648.22 2075.43,5652.49 2076.89,5656.66 2078.66,5660.71 2080.72,5664.61 2083.07,5668.35 2085.69,5671.9 2088.57,5675.25 2091.69,5678.37 2095.04,5681.25 2098.6,5683.88 2102.33,5686.23 2106.24,5688.29 2110.29,5690.05 2114.46,5691.51 2118.72,5692.66 2123.06,5693.48 2127.45,5693.97 2131.86,5694.14 "
         id="polyline20" />
      <polyline
         style="vector-effect:none;fill:none;stroke:#ff0000;stroke-width:1.18110645;stroke-miterlimit:4;stroke-dasharray:none;stroke-opacity:1"
         points="2887.75,3166.63 2887.58,3161.74 2887.08,3156.88 2886.24,3152.06 2885.07,3147.31 2883.57,3142.65 2881.76,3138.11 2879.63,3133.7 2877.21,3129.45 2874.5,3125.38 2871.52,3121.5 2868.28,3117.84 2864.79,3114.41 2861.07,3111.23 2857.14,3108.31 2853.02,3105.67 2848.73,3103.33 2844.29,3101.28 2839.71,3099.55 2835.03,3098.13 2830.26,3097.04 2825.43,3096.29 2820.55,3095.86 2815.66,3095.78 2810.78,3096.03 2805.92,3096.62 2801.12,3097.55 2796.39,3098.8 2791.76,3100.37 2787.25,3102.27 2782.88,3104.46 2778.67,3106.96 2774.64,3109.74 2770.82,3112.79 2767.21,3116.09 2763.84,3119.64 2760.73,3123.41 2757.88,3127.39 2755.31,3131.55 2753.04,3135.89 2751.07,3140.36 2749.41,3144.97 2748.08,3149.67 2747.07,3154.46 2746.4,3159.31 2746.06,3164.19 2746.06,3169.08 2746.4,3173.96 2747.07,3178.8 2748.08,3183.59 2749.41,3188.3 2751.07,3192.9 2753.04,3197.38 2755.31,3201.71 2757.88,3205.88 2760.73,3209.85 2763.84,3213.63 2767.21,3217.17 2770.82,3220.48 2774.64,3223.53 2778.67,3226.31 2782.88,3228.8 2787.25,3231 2791.76,3232.89 2796.39,3234.47 2801.12,3235.72 2805.92,3236.64 2810.78,3237.23 2815.66,3237.49 2820.55,3237.4 2825.43,3236.98 2830.26,3236.22 2835.03,3235.14 2839.71,3233.72 2844.29,3231.99 2848.73,3229.94 2853.02,3227.59 2857.14,3224.95 2861.07,3222.04 2864.79,3218.86 2868.28,3215.43 2871.52,3211.77 2874.5,3207.89 2877.21,3203.82 2879.63,3199.57 2881.76,3195.16 2883.57,3190.61 2885.07,3185.96 2886.24,3181.21 2887.08,3176.39 2887.58,3171.52 2887.75,3166.63 "
         id="polyline22" />
      <polyline
         style="vector-effect:none;fill:none;stroke:#ff0000;stroke-width:1.18110645;stroke-miterlimit:4;stroke-dasharray:none;stroke-opacity:1"
         points="2887.75,1300.53 2887.58,1295.64 2887.08,1290.78 2886.24,1285.96 2885.07,1281.21 2883.57,1276.55 2881.76,1272.01 2879.63,1267.6 2877.21,1263.35 2874.5,1259.28 2871.52,1255.4 2868.28,1251.74 2864.79,1248.31 2861.07,1245.13 2857.14,1242.21 2853.02,1239.57 2848.73,1237.23 2844.29,1235.18 2839.71,1233.44 2835.03,1232.03 2830.26,1230.94 2825.43,1230.18 2820.55,1229.76 2815.66,1229.68 2810.78,1229.93 2805.92,1230.52 2801.12,1231.44 2796.39,1232.7 2791.76,1234.27 2787.25,1236.16 2782.88,1238.36 2778.67,1240.86 2774.64,1243.64 2770.82,1246.69 2767.21,1249.99 2763.84,1253.54 2760.73,1257.31 2757.88,1261.29 2755.31,1265.45 2753.04,1269.79 2751.07,1274.26 2749.41,1278.87 2748.08,1283.57 2747.07,1288.36 2746.4,1293.21 2746.06,1298.09 2746.06,1302.98 2746.4,1307.86 2747.07,1312.7 2748.08,1317.49 2749.41,1322.2 2751.07,1326.8 2753.04,1331.28 2755.31,1335.61 2757.88,1339.78 2760.73,1343.75 2763.84,1347.52 2767.21,1351.07 2770.82,1354.38 2774.64,1357.43 2778.67,1360.21 2782.88,1362.7 2787.25,1364.9 2791.76,1366.79 2796.39,1368.37 2801.12,1369.62 2805.92,1370.54 2810.78,1371.13 2815.66,1371.39 2820.55,1371.3 2825.43,1370.88 2830.26,1370.12 2835.03,1369.03 2839.71,1367.62 2844.29,1365.89 2848.73,1363.84 2853.02,1361.49 2857.14,1358.85 2861.07,1355.94 2864.79,1352.76 2868.28,1349.33 2871.52,1345.67 2874.5,1341.79 2877.21,1337.72 2879.63,1333.46 2881.76,1329.06 2883.57,1324.51 2885.07,1319.86 2886.24,1315.11 2887.08,1310.29 2887.58,1305.42 2887.75,1300.53 "
         id="polyline24" />
      <polyline
         style="vector-effect:none;fill:none;stroke:#ff0000;stroke-width:1.18110645;stroke-miterlimit:4;stroke-dasharray:none;stroke-opacity:1"
         points="2808.03,4808.33 2807.86,4805.35 2807.36,4802.42 2806.54,4799.55 2805.4,4796.8 2803.95,4794.19 2802.23,4791.76 2800.24,4789.54 2798.02,4787.55 2795.59,4785.83 2792.98,4784.39 2790.23,4783.25 2787.37,4782.42 2784.43,4781.92 2781.45,4781.76 2778.48,4781.92 2775.54,4782.42 2772.68,4783.25 2769.92,4784.39 2767.32,4785.83 2764.89,4787.55 2762.66,4789.54 2760.68,4791.76 2758.95,4794.19 2757.51,4796.8 2756.37,4799.55 2755.55,4802.42 2755.05,4805.35 2754.88,4808.33 2755.05,4811.31 2755.55,4814.24 2756.37,4817.11 2757.51,4819.86 2758.95,4822.47 2760.68,4824.9 2762.66,4827.12 2764.89,4829.11 2767.32,4830.83 2769.92,4832.27 2772.68,4833.41 2775.54,4834.24 2778.48,4834.74 2781.45,4834.9 2784.43,4834.74 2787.37,4834.24 2790.23,4833.41 2792.98,4832.27 2795.59,4830.83 2798.02,4829.11 2800.24,4827.12 2802.23,4824.9 2803.95,4822.47 2805.4,4819.86 2806.54,4817.11 2807.36,4814.24 2807.86,4811.31 2808.03,4808.33 "
         id="polyline26" />
      <polyline
         style="vector-effect:none;fill:none;stroke:#ff0000;stroke-width:1.18110645;stroke-miterlimit:4;stroke-dasharray:none;stroke-opacity:1"
         points="3516.67,5516.98 3516.51,5514 3516.01,5511.06 3515.18,5508.2 3514.04,5505.45 3512.6,5502.84 3510.88,5500.41 3508.89,5498.18 3506.67,5496.2 3504.24,5494.47 3501.63,5493.03 3498.88,5491.89 3496.01,5491.07 3493.08,5490.57 3490.1,5490.4 3487.12,5490.57 3484.19,5491.07 3481.32,5491.89 3478.57,5493.03 3475.96,5494.47 3473.53,5496.2 3471.31,5498.18 3469.32,5500.41 3467.6,5502.84 3466.16,5505.45 3465.02,5508.2 3464.19,5511.06 3463.69,5514 3463.53,5516.98 3463.69,5519.95 3464.19,5522.89 3465.02,5525.75 3466.16,5528.51 3467.6,5531.11 3469.32,5533.54 3471.31,5535.77 3473.53,5537.75 3475.96,5539.48 3478.57,5540.92 3481.32,5542.06 3484.19,5542.88 3487.12,5543.38 3490.1,5543.55 3493.08,5543.38 3496.01,5542.88 3498.88,5542.06 3501.63,5540.92 3504.24,5539.48 3506.67,5537.75 3508.89,5535.77 3510.88,5533.54 3512.6,5531.11 3514.04,5528.51 3515.18,5525.75 3516.01,5522.89 3516.51,5519.95 3516.67,5516.98 "
         id="polyline28" />
      <polyline
         style="vector-effect:none;fill:none;stroke:#ff0000;stroke-width:1.18110645;stroke-miterlimit:4;stroke-dasharray:none;stroke-opacity:1"
         points="2808.03,5516.98 2807.86,5514 2807.36,5511.06 2806.54,5508.2 2805.4,5505.45 2803.95,5502.84 2802.23,5500.41 2800.24,5498.18 2798.02,5496.2 2795.59,5494.47 2792.98,5493.03 2790.23,5491.89 2787.37,5491.07 2784.43,5490.57 2781.45,5490.4 2778.48,5490.57 2775.54,5491.07 2772.68,5491.89 2769.92,5493.03 2767.32,5494.47 2764.89,5496.2 2762.66,5498.18 2760.68,5500.41 2758.95,5502.84 2757.51,5505.45 2756.37,5508.2 2755.55,5511.06 2755.05,5514 2754.88,5516.98 2755.05,5519.95 2755.55,5522.89 2756.37,5525.75 2757.51,5528.51 2758.95,5531.11 2760.68,5533.54 2762.66,5535.77 2764.89,5537.75 2767.32,5539.48 2769.92,5540.92 2772.68,5542.06 2775.54,5542.88 2778.48,5543.38 2781.45,5543.55 2784.43,5543.38 2787.37,5542.88 2790.23,5542.06 2792.98,5540.92 2795.59,5539.48 2798.02,5537.75 2800.24,5535.77 2802.23,5533.54 2803.95,5531.11 2805.4,5528.51 2806.54,5525.75 2807.36,5522.89 2807.86,5519.95 2808.03,5516.98 "
         id="polyline30" />
      <polyline
         style="vector-effect:none;fill:none;stroke:#ff0000;stroke-width:1.18110645;stroke-miterlimit:4;stroke-dasharray:none;stroke-opacity:1"
         points="3516.67,4808.33 3516.51,4805.35 3516.01,4802.42 3515.18,4799.55 3514.04,4796.8 3512.6,4794.19 3510.88,4791.76 3508.89,4789.54 3506.67,4787.55 3504.24,4785.83 3501.63,4784.39 3498.88,4783.25 3496.01,4782.42 3493.08,4781.92 3490.1,4781.76 3487.12,4781.92 3484.19,4782.42 3481.32,4783.25 3478.57,4784.39 3475.96,4785.83 3473.53,4787.55 3471.31,4789.54 3469.32,4791.76 3467.6,4794.19 3466.16,4796.8 3465.02,4799.55 3464.19,4802.42 3463.69,4805.35 3463.53,4808.33 3463.69,4811.31 3464.19,4814.24 3465.02,4817.11 3466.16,4819.86 3467.6,4822.47 3469.32,4824.9 3471.31,4827.12 3473.53,4829.11 3475.96,4830.83 3478.57,4832.27 3481.32,4833.41 3484.19,4834.24 3487.12,4834.74 3490.1,4834.9 3493.08,4834.74 3496.01,4834.24 3498.88,4833.41 3501.63,4832.27 3504.24,4830.83 3506.67,4829.11 3508.89,4827.12 3510.88,4824.9 3512.6,4822.47 3514.04,4819.86 3515.18,4817.11 3516.01,4814.24 3516.51,4811.31 3516.67,4808.33 "
         id="polyline32" />
      <polyline
         style="vector-effect:none;fill:none;stroke:#ff0000;stroke-width:1.18110645;stroke-miterlimit:4;stroke-dasharray:none;stroke-opacity:1"
         points="2226.35,5576.03 2226.18,5572.61 2225.69,5569.22 2224.87,5565.9 2223.73,5562.67 2222.29,5559.56 2220.55,5556.61 2218.54,5553.84 2216.27,5551.28 2213.76,5548.95 2211.04,5546.87 2208.14,5545.06 2205.07,5543.55 2201.86,5542.33 2198.56,5541.43 2195.19,5540.86 2191.77,5540.61 2188.35,5540.69 2184.95,5541.1 2181.61,5541.84 2178.35,5542.9 2175.21,5544.27 2172.22,5545.93 2169.4,5547.88 2166.79,5550.08 2164.39,5552.53 2162.25,5555.2 2160.37,5558.07 2158.78,5561.1 2157.49,5564.27 2156.51,5567.55 2155.86,5570.91 2155.52,5574.32 2155.52,5577.74 2155.86,5581.15 2156.51,5584.51 2157.49,5587.79 2158.78,5590.96 2160.37,5593.99 2162.25,5596.86 2164.39,5599.53 2166.79,5601.98 2169.4,5604.18 2172.22,5606.13 2175.21,5607.79 2178.35,5609.16 2181.61,5610.22 2184.95,5610.96 2188.35,5611.37 2191.77,5611.45 2195.19,5611.2 2198.56,5610.63 2201.86,5609.73 2205.07,5608.51 2208.14,5607 2211.04,5605.19 2213.76,5603.11 2216.27,5600.78 2218.54,5598.22 2220.55,5595.45 2222.29,5592.5 2223.73,5589.39 2224.87,5586.16 2225.69,5582.84 2226.18,5579.45 2226.35,5576.03 "
         id="polyline34" />
      <polyline
         style="vector-effect:none;fill:none;stroke:#ff0000;stroke-width:1.18110645;stroke-miterlimit:4;stroke-dasharray:none;stroke-opacity:1"
         points="2226.35,3568.2 2226.18,3564.78 2225.69,3561.39 2224.87,3558.07 2223.73,3554.84 2222.29,3551.73 2220.55,3548.78 2218.54,3546.01 2216.27,3543.45 2213.76,3541.12 2211.04,3539.04 2208.14,3537.23 2205.07,3535.72 2201.86,3534.5 2198.56,3533.6 2195.19,3533.03 2191.77,3532.78 2188.35,3532.86 2184.95,3533.27 2181.61,3534.01 2178.35,3535.07 2175.21,3536.44 2172.22,3538.1 2169.4,3540.05 2166.79,3542.25 2164.39,3544.7 2162.25,3547.37 2160.37,3550.24 2158.78,3553.27 2157.49,3556.44 2156.51,3559.72 2155.86,3563.08 2155.52,3566.49 2155.52,3569.91 2155.86,3573.32 2156.51,3576.68 2157.49,3579.96 2158.78,3583.13 2160.37,3586.16 2162.25,3589.03 2164.39,3591.7 2166.79,3594.15 2169.4,3596.35 2172.22,3598.3 2175.21,3599.96 2178.35,3601.33 2181.61,3602.39 2184.95,3603.13 2188.35,3603.54 2191.77,3603.62 2195.19,3603.37 2198.56,3602.8 2201.86,3601.9 2205.07,3600.68 2208.14,3599.17 2211.04,3597.36 2213.76,3595.28 2216.27,3592.95 2218.54,3590.39 2220.55,3587.62 2222.29,3584.67 2223.73,3581.56 2224.87,3578.33 2225.69,3575.01 2226.18,3571.62 2226.35,3568.2 "
         id="polyline36" />
      <polyline
         style="vector-effect:none;fill:none;stroke:#ff0000;stroke-width:1.18110645;stroke-miterlimit:4;stroke-dasharray:none;stroke-opacity:1"
         points="4116.07,3568.2 4115.9,3564.78 4115.41,3561.39 4114.59,3558.07 4113.45,3554.84 4112.01,3551.73 4110.28,3548.78 4108.26,3546.01 4105.99,3543.45 4103.49,3541.12 4100.77,3539.04 4097.86,3537.23 4094.79,3535.72 4091.59,3534.5 4088.28,3533.6 4084.91,3533.03 4081.49,3532.78 4078.07,3532.86 4074.67,3533.27 4071.33,3534.01 4068.07,3535.07 4064.93,3536.44 4061.94,3538.1 4059.12,3540.05 4056.51,3542.25 4054.12,3544.7 4051.97,3547.37 4050.1,3550.24 4048.51,3553.27 4047.21,3556.44 4046.24,3559.72 4045.58,3563.08 4045.25,3566.49 4045.25,3569.91 4045.58,3573.32 4046.24,3576.68 4047.21,3579.96 4048.51,3583.13 4050.1,3586.16 4051.97,3589.03 4054.12,3591.7 4056.51,3594.15 4059.12,3596.35 4061.94,3598.3 4064.93,3599.96 4068.07,3601.33 4071.33,3602.39 4074.67,3603.13 4078.07,3603.54 4081.49,3603.62 4084.91,3603.37 4088.28,3602.8 4091.59,3601.9 4094.79,3600.68 4097.86,3599.17 4100.77,3597.36 4103.49,3595.28 4105.99,3592.95 4108.26,3590.39 4110.28,3587.62 4112.01,3584.67 4113.45,3581.56 4114.59,3578.33 4115.41,3575.01 4115.9,3571.62 4116.07,3568.2 "
         id="polyline38" />
      <polyline
         style="vector-effect:none;fill:none;stroke:#ff0000;stroke-width:1.18110645;stroke-miterlimit:4;stroke-dasharray:none;stroke-opacity:1"
         points="4116.07,5576.03 4115.9,5572.61 4115.41,5569.22 4114.59,5565.9 4113.45,5562.67 4112.01,5559.56 4110.28,5556.61 4108.26,5553.84 4105.99,5551.28 4103.49,5548.95 4100.77,5546.87 4097.86,5545.06 4094.79,5543.55 4091.59,5542.33 4088.28,5541.43 4084.91,5540.86 4081.49,5540.61 4078.07,5540.69 4074.67,5541.1 4071.33,5541.84 4068.07,5542.9 4064.93,5544.27 4061.94,5545.93 4059.12,5547.88 4056.51,5550.08 4054.12,5552.53 4051.97,5555.2 4050.1,5558.07 4048.51,5561.1 4047.21,5564.27 4046.24,5567.55 4045.58,5570.91 4045.25,5574.32 4045.25,5577.74 4045.58,5581.15 4046.24,5584.51 4047.21,5587.79 4048.51,5590.96 4050.1,5593.99 4051.97,5596.86 4054.12,5599.53 4056.51,5601.98 4059.12,5604.18 4061.94,5606.13 4064.93,5607.79 4068.07,5609.16 4071.33,5610.22 4074.67,5610.96 4078.07,5611.37 4081.49,5611.45 4084.91,5611.2 4088.28,5610.63 4091.59,5609.73 4094.79,5608.51 4097.86,5607 4100.77,5605.19 4103.49,5603.11 4105.99,5600.78 4108.26,5598.22 4110.28,5595.45 4112.01,5592.5 4113.45,5589.39 4114.59,5586.16 4115.41,5582.84 4115.9,5579.45 4116.07,5576.03 "
         id="polyline40" />
      <polyline
         style="vector-effect:none;fill:none;stroke:#ff0000;stroke-width:1.18110645;stroke-miterlimit:4;stroke-dasharray:none;stroke-opacity:1"
         points="2864.13,1808.4 2863.96,1805.6 2863.47,1802.85 2862.65,1800.17 2861.52,1797.61 2860.1,1795.2 2858.4,1792.97 2856.45,1790.97 2854.28,1789.2 2851.91,1787.71 2849.39,1786.51 2846.73,1785.61 2844,1785.03 2841.21,1784.78 2838.41,1784.87 2835.64,1785.28 2832.94,1786.02 2830.35,1787.07 2827.9,1788.42 2825.62,1790.05 2823.56,1791.94 2821.73,1794.06 2820.17,1796.38 2818.89,1798.87 2817.92,1801.5 2817.26,1804.22 2816.93,1807 2816.93,1809.79 2817.26,1812.57 2817.92,1815.29 2818.89,1817.92 2820.17,1820.41 2821.73,1822.73 2823.56,1824.85 2825.62,1826.74 2827.9,1828.37 2830.35,1829.72 2832.94,1830.77 2835.64,1831.51 2838.41,1831.92 2841.21,1832.01 2844,1831.76 2846.73,1831.18 2849.39,1830.29 2851.91,1829.08 2854.28,1827.59 2856.45,1825.82 2858.4,1823.82 2860.1,1821.59 2861.52,1819.18 2862.65,1816.62 2863.47,1813.94 2863.96,1811.19 2864.13,1808.4 "
         id="polyline42" />
      <polyline
         style="vector-effect:none;fill:none;stroke:#ff0000;stroke-width:1.18110645;stroke-miterlimit:4;stroke-dasharray:none;stroke-opacity:1"
         points="3159.4,2103.66 3159.23,2100.87 3158.74,2098.12 3157.92,2095.44 3156.79,2092.88 3155.37,2090.47 3153.67,2088.24 3151.72,2086.24 3149.55,2084.47 3147.18,2082.98 3144.65,2081.77 3142,2080.88 3139.26,2080.3 3136.48,2080.05 3133.68,2080.14 3130.91,2080.55 3128.21,2081.29 3125.62,2082.34 3123.17,2083.69 3120.89,2085.32 3118.83,2087.21 3117,2089.33 3115.44,2091.65 3114.16,2094.14 3113.19,2096.77 3112.53,2099.49 3112.2,2102.27 3112.2,2105.06 3112.53,2107.84 3113.19,2110.56 3114.16,2113.19 3115.44,2115.68 3117,2118 3118.83,2120.12 3120.89,2122.01 3123.17,2123.64 3125.62,2124.99 3128.21,2126.04 3130.91,2126.78 3133.68,2127.19 3136.48,2127.28 3139.26,2127.03 3142,2126.45 3144.65,2125.55 3147.18,2124.35 3149.55,2122.86 3151.72,2121.09 3153.67,2119.09 3155.37,2116.86 3156.79,2114.45 3157.92,2111.89 3158.74,2109.21 3159.23,2106.46 3159.4,2103.66 "
         id="polyline44" />
      <polyline
         style="vector-effect:none;fill:none;stroke:#ff0000;stroke-width:1.18110645;stroke-miterlimit:4;stroke-dasharray:none;stroke-opacity:1"
         points="3454.67,1808.4 3454.5,1805.6 3454.01,1802.85 3453.19,1800.17 3452.06,1797.61 3450.64,1795.2 3448.94,1792.97 3446.99,1790.97 3444.82,1789.2 3442.45,1787.71 3439.92,1786.51 3437.27,1785.61 3434.53,1785.03 3431.75,1784.78 3428.95,1784.87 3426.18,1785.28 3423.48,1786.02 3420.89,1787.07 3418.44,1788.42 3416.16,1790.05 3414.1,1791.94 3412.27,1794.06 3410.71,1796.38 3409.43,1798.87 3408.45,1801.5 3407.8,1804.22 3407.47,1807 3407.47,1809.79 3407.8,1812.57 3408.45,1815.29 3409.43,1817.92 3410.71,1820.41 3412.27,1822.73 3414.1,1824.85 3416.16,1826.74 3418.44,1828.37 3420.89,1829.72 3423.48,1830.77 3426.18,1831.51 3428.95,1831.92 3431.75,1832.01 3434.53,1831.76 3437.27,1831.18 3439.92,1830.29 3442.45,1829.08 3444.82,1827.59 3446.99,1825.82 3448.94,1823.82 3450.64,1821.59 3452.06,1819.18 3453.19,1816.62 3454.01,1813.94 3454.5,1811.19 3454.67,1808.4 "
         id="polyline46" />
      <polyline
         style="vector-effect:none;fill:none;stroke:#ff0000;stroke-width:1.18110645;stroke-miterlimit:4;stroke-dasharray:none;stroke-opacity:1"
         points="3159.4,1513.13 3159.23,1510.33 3158.74,1507.58 3157.92,1504.9 3156.79,1502.34 3155.37,1499.93 3153.67,1497.71 3151.72,1495.7 3149.55,1493.93 3147.18,1492.44 3144.65,1491.24 3142,1490.34 3139.26,1489.76 3136.48,1489.51 3133.68,1489.6 3130.91,1490.01 3128.21,1490.75 3125.62,1491.8 3123.17,1493.15 3120.89,1494.78 3118.83,1496.67 3117,1498.79 3115.44,1501.11 3114.16,1503.6 3113.19,1506.23 3112.53,1508.95 3112.2,1511.73 3112.2,1514.53 3112.53,1517.3 3113.19,1520.02 3114.16,1522.65 3115.44,1525.14 3117,1527.46 3118.83,1529.58 3120.89,1531.47 3123.17,1533.1 3125.62,1534.45 3128.21,1535.5 3130.91,1536.24 3133.68,1536.65 3136.48,1536.74 3139.26,1536.49 3142,1535.91 3144.65,1535.02 3147.18,1533.81 3149.55,1532.32 3151.72,1530.55 3153.67,1528.55 3155.37,1526.32 3156.79,1523.91 3157.92,1521.35 3158.74,1518.67 3159.23,1515.92 3159.4,1513.13 "
         id="polyline48" />
      <polyline
         style="vector-effect:none;fill:none;stroke:#ff0000;stroke-width:1.18110645;stroke-miterlimit:4;stroke-dasharray:none;stroke-opacity:1"
         points="4198.75,1265.1 4198.75,5635.08 "
         id="polyline50" />
      <polyline
         style="vector-effect:none;fill:none;stroke:#ff0000;stroke-width:1.18110645;stroke-miterlimit:4;stroke-dasharray:none;stroke-opacity:1"
         points="2072.81,1265.1 2072.81,5635.08 "
         id="polyline52" />
      <polyline
         style="vector-effect:none;fill:none;stroke:#ff0000;stroke-width:1.18110645;stroke-miterlimit:4;stroke-dasharray:none;stroke-opacity:1"
         points="2131.86,1206.05 4139.69,1206.05 "
         id="polyline54" />
    </g>
  </g>
</svg>
